<svg width="546" height="331" viewBox="0 0 546 331" fill="none" xmlns="http://www.w3.org/2000/svg">
<path d="M435.495 55.2212C436.67 55.2212 437.622 54.2689 437.622 53.0942C437.622 51.9195 436.67 50.9672 435.495 50.9672C434.32 50.9672 433.368 51.9195 433.368 53.0942C433.368 54.2689 434.32 55.2212 435.495 55.2212Z" fill="#FF6600" fill-opacity="0.08"/>
<path d="M450.794 55.2212C451.968 55.2212 452.921 54.2689 452.921 53.0942C452.921 51.9195 451.968 50.9672 450.794 50.9672C449.619 50.9672 448.667 51.9195 448.667 53.0942C448.667 54.2689 449.619 55.2212 450.794 55.2212Z" fill="#FF6600" fill-opacity="0.08"/>
<path d="M466.072 55.2212C467.246 55.2212 468.199 54.2689 468.199 53.0942C468.199 51.9195 467.246 50.9672 466.072 50.9672C464.897 50.9672 463.945 51.9195 463.945 53.0942C463.945 54.2689 464.897 55.2212 466.072 55.2212Z" fill="#FF6600" fill-opacity="0.08"/>
<path d="M481.37 55.2212C482.545 55.2212 483.497 54.2689 483.497 53.0942C483.497 51.9195 482.545 50.9672 481.37 50.9672C480.195 50.9672 479.243 51.9195 479.243 53.0942C479.243 54.2689 480.195 55.2212 481.37 55.2212Z" fill="#FF6600" fill-opacity="0.08"/>
<path d="M435.495 67.329C436.67 67.329 437.622 66.3767 437.622 65.202C437.622 64.0273 436.67 63.075 435.495 63.075C434.32 63.075 433.368 64.0273 433.368 65.202C433.368 66.3767 434.32 67.329 435.495 67.329Z" fill="#FF6600" fill-opacity="0.08"/>
<path d="M450.794 67.329C451.968 67.329 452.921 66.3767 452.921 65.202C452.921 64.0273 451.968 63.075 450.794 63.075C449.619 63.075 448.667 64.0273 448.667 65.202C448.667 66.3767 449.619 67.329 450.794 67.329Z" fill="#FF6600" fill-opacity="0.08"/>
<path d="M466.072 67.329C467.246 67.329 468.199 66.3767 468.199 65.202C468.199 64.0273 467.246 63.075 466.072 63.075C464.897 63.075 463.945 64.0273 463.945 65.202C463.945 66.3767 464.897 67.329 466.072 67.329Z" fill="#FF6600" fill-opacity="0.08"/>
<path d="M481.37 67.329C482.545 67.329 483.497 66.3767 483.497 65.202C483.497 64.0273 482.545 63.075 481.37 63.075C480.195 63.075 479.243 64.0273 479.243 65.202C479.243 66.3767 480.195 67.329 481.37 67.329Z" fill="#FF6600" fill-opacity="0.08"/>
<path d="M437.622 77.3097C437.622 78.496 436.661 79.4368 435.495 79.4368C434.309 79.4368 433.368 78.4755 433.368 77.3097C433.368 76.1235 434.329 75.1827 435.495 75.1827C436.661 75.1622 437.622 76.1235 437.622 77.3097Z" fill="#FF6600" fill-opacity="0.08"/>
<path d="M452.921 77.3097C452.921 78.496 451.959 79.4368 450.794 79.4368C449.607 79.4368 448.667 78.4755 448.667 77.3097C448.667 76.1235 449.628 75.1827 450.794 75.1827C451.959 75.1622 452.921 76.1235 452.921 77.3097Z" fill="#FF6600" fill-opacity="0.08"/>
<path d="M468.219 77.3097C468.219 78.496 467.258 79.4368 466.092 79.4368C464.906 79.4368 463.965 78.4755 463.965 77.3097C463.965 76.1235 464.926 75.1827 466.092 75.1827C467.258 75.1622 468.219 76.1235 468.219 77.3097Z" fill="#FF6600" fill-opacity="0.08"/>
<path d="M483.518 77.3098C483.518 78.496 482.556 79.4368 481.391 79.4368C480.225 79.4368 479.263 78.4756 479.263 77.3098C479.263 76.1235 480.225 75.1827 481.391 75.1827C482.556 75.1827 483.518 76.1235 483.518 77.3098Z" fill="#FF6600" fill-opacity="0.08"/>
<path d="M435.495 91.5445C436.67 91.5445 437.622 90.5922 437.622 89.4174C437.622 88.2427 436.67 87.2904 435.495 87.2904C434.32 87.2904 433.368 88.2427 433.368 89.4174C433.368 90.5922 434.32 91.5445 435.495 91.5445Z" fill="#FF6600" fill-opacity="0.08"/>
<path d="M450.794 91.5445C451.968 91.5445 452.921 90.5922 452.921 89.4174C452.921 88.2427 451.968 87.2904 450.794 87.2904C449.619 87.2904 448.667 88.2427 448.667 89.4174C448.667 90.5922 449.619 91.5445 450.794 91.5445Z" fill="#FF6600" fill-opacity="0.08"/>
<path d="M466.072 91.5445C467.246 91.5445 468.199 90.5922 468.199 89.4174C468.199 88.2427 467.246 87.2904 466.072 87.2904C464.897 87.2904 463.945 88.2427 463.945 89.4174C463.945 90.5922 464.897 91.5445 466.072 91.5445Z" fill="#FF6600" fill-opacity="0.08"/>
<path d="M481.37 91.5445C482.545 91.5445 483.497 90.5922 483.497 89.4174C483.497 88.2427 482.545 87.2904 481.37 87.2904C480.195 87.2904 479.243 88.2427 479.243 89.4174C479.243 90.5922 480.195 91.5445 481.37 91.5445Z" fill="#FF6600" fill-opacity="0.08"/>
<path d="M422.712 165.214H133.371C132.798 165.214 132.348 164.764 132.348 164.191V1.02261C132.348 0.449951 132.798 0 133.371 0H422.712C423.285 0 423.735 0.449951 423.735 1.02261V164.191C423.735 164.764 423.265 165.214 422.712 165.214ZM134.393 163.168H421.69V2.04523H134.393V163.168Z" fill="#FF6600" fill-opacity="0.08"/>
<path d="M424.86 173.456H131.223C128.38 173.456 126.069 171.145 126.069 168.302C126.069 165.459 128.38 163.148 131.223 163.148H424.839C427.682 163.148 429.993 165.459 429.993 168.302C429.993 171.145 427.682 173.456 424.86 173.456ZM131.223 165.214C129.505 165.214 128.114 166.604 128.114 168.322C128.114 170.04 129.505 171.431 131.223 171.431H424.839C426.557 171.431 427.948 170.04 427.948 168.322C427.948 166.604 426.557 165.214 424.839 165.214H131.223Z" fill="#FF6600" fill-opacity="0.08"/>
<path d="M158.2 40.5774C164.09 33.5418 172.742 29.5127 181.925 29.5127C186.793 29.5127 191.64 30.6785 195.955 32.8669L182.109 60.048C182.068 60.0275 182.027 60.0071 181.925 60.0071C181.864 60.0071 181.72 60.0071 181.577 60.1707L158.2 40.5774Z" fill="#FF6600" fill-opacity="0.08"/>
<path d="M150.98 60.457H181.475C181.475 60.7025 181.659 60.8252 181.72 60.8661L167.772 87.9858C157.423 82.6478 150.98 72.0944 150.98 60.457Z" fill="#FF6600" fill-opacity="0.08"/>
<path d="M181.925 91.4013V60.907C182.109 60.8865 182.375 60.7638 182.375 60.457C182.375 60.3547 182.354 60.2934 182.314 60.2116L207.429 42.9089C211.008 48.0834 212.89 54.1577 212.89 60.457C212.89 76.2666 201.048 89.4788 185.341 91.2173C184.195 91.34 183.05 91.4013 181.925 91.4013Z" fill="#FF6600" fill-opacity="0.08"/>
<path d="M191.66 101.198H162.597C162.025 101.198 161.575 100.748 161.575 100.175C161.575 99.6028 162.025 99.1528 162.597 99.1528H191.64C192.213 99.1528 192.663 99.6028 192.663 100.175C192.683 100.748 192.213 101.198 191.66 101.198Z" fill="#FF6600" fill-opacity="0.08"/>
<path d="M202.971 109.215H162.597C162.025 109.215 161.575 108.765 161.575 108.193C161.575 107.62 162.025 107.17 162.597 107.17H202.971C203.543 107.17 203.993 107.62 203.993 108.193C203.993 108.765 203.543 109.215 202.971 109.215Z" fill="#FF6600" fill-opacity="0.08"/>
<path d="M188.695 117.233H162.597C162.025 117.233 161.575 116.783 161.575 116.21C161.575 115.637 162.025 115.187 162.597 115.187H188.695C189.267 115.187 189.717 115.637 189.717 116.21C189.717 116.762 189.267 117.233 188.695 117.233Z" fill="#FF6600" fill-opacity="0.08"/>
<path d="M304.129 126.416C304.129 127.622 303.147 128.604 301.94 128.604C300.734 128.604 299.752 127.622 299.752 126.416C299.752 125.209 300.734 124.227 301.94 124.227C303.167 124.227 304.129 125.209 304.129 126.416Z" fill="#FF6600" fill-opacity="0.08"/>
<path d="M350.413 126.416C350.413 127.622 349.431 128.604 348.224 128.604C347.018 128.604 346.036 127.622 346.036 126.416C346.036 125.209 347.018 124.227 348.224 124.227C349.431 124.227 350.413 125.209 350.413 126.416Z" fill="#FF6600" fill-opacity="0.08"/>
<path d="M386.021 100.073H287.664C287.439 100.073 287.255 99.889 287.255 99.664C287.255 99.4391 287.439 99.255 287.664 99.255H386.021C386.245 99.255 386.43 99.4391 386.43 99.664C386.43 99.889 386.245 100.073 386.021 100.073Z" fill="#FF6600" fill-opacity="0.08"/>
<path d="M386.021 83.159H287.664C287.439 83.159 287.255 82.975 287.255 82.75C287.255 82.525 287.439 82.3409 287.664 82.3409H386.021C386.245 82.3409 386.43 82.525 386.43 82.75C386.43 82.975 386.245 83.159 386.021 83.159Z" fill="#FF6600" fill-opacity="0.08"/>
<path d="M386.021 67.4313H287.664C287.439 67.4313 287.255 67.2472 287.255 67.0222C287.255 66.7972 287.439 66.6132 287.664 66.6132H386.021C386.245 66.6132 386.43 66.7972 386.43 67.0222C386.43 67.2472 386.245 67.4313 386.021 67.4313Z" fill="#FF6600" fill-opacity="0.08"/>
<path d="M386.021 53.2374H287.664C287.439 53.2374 287.255 53.0533 287.255 52.8284C287.255 52.6034 287.439 52.4193 287.664 52.4193H386.021C386.245 52.4193 386.43 52.6034 386.43 52.8284C386.43 53.0533 386.245 53.2374 386.021 53.2374Z" fill="#FF6600" fill-opacity="0.08"/>
<path d="M386.021 36.3233H287.664C287.439 36.3233 287.255 36.1393 287.255 35.9143C287.255 35.6893 287.439 35.5052 287.664 35.5052H386.021C386.245 35.5052 386.43 35.6893 386.43 35.9143C386.43 36.1393 386.245 36.3233 386.021 36.3233Z" fill="#FF6600" fill-opacity="0.08"/>
<path d="M301.94 66.92H293.166V114.369H301.94V66.92Z" fill="#FF6600" fill-opacity="0.08"/>
<path d="M316.748 59.3322H307.974V114.369H316.748V59.3322Z" fill="#FF6600" fill-opacity="0.08"/>
<path d="M331.555 48.2062H322.781V114.369H331.555V48.2062Z" fill="#FF6600" fill-opacity="0.08"/>
<path d="M346.363 80.7252H337.589V114.369H346.363V80.7252Z" fill="#FF6600" fill-opacity="0.08"/>
<path d="M361.171 49.8423H352.397V114.369H361.171V49.8423Z" fill="#FF6600" fill-opacity="0.08"/>
<path d="M375.978 84.3248H367.204V114.369H375.978V84.3248Z" fill="#FF6600" fill-opacity="0.08"/>
<path d="M386.021 114.778H287.664C287.439 114.778 287.255 114.594 287.255 114.369C287.255 114.144 287.439 113.96 287.664 113.96H386.021C386.245 113.96 386.43 114.144 386.43 114.369C386.43 114.594 386.245 114.778 386.021 114.778Z" fill="#FF6600" fill-opacity="0.08"/>
<path d="M331.637 127.438H307.974C307.401 127.438 306.951 126.988 306.951 126.416C306.951 125.843 307.401 125.393 307.974 125.393H331.637C332.21 125.393 332.66 125.843 332.66 126.416C332.66 126.968 332.21 127.438 331.637 127.438Z" fill="#FF6600" fill-opacity="0.08"/>
<path d="M377.39 127.438H353.726C353.153 127.438 352.703 126.988 352.703 126.416C352.703 125.843 353.153 125.393 353.726 125.393H377.39C377.962 125.393 378.412 125.843 378.412 126.416C378.412 126.968 377.962 127.438 377.39 127.438Z" fill="#FF6600" fill-opacity="0.08"/>
<path d="M257.906 323.719V318.238H268.357V320.569V323.719L264.676 325.846H261.403L257.906 323.719Z" fill="#FFCEC8"/>
<path d="M257.906 323.719V328.116L284.453 328.055V327.687C284.453 326.746 283.86 325.907 282.96 325.58L268.357 320.549L266.128 323.167C266.128 323.167 262.672 325.682 257.906 323.719Z" fill="#426BFF"/>
<path d="M284.453 328.055V329.671H257.906V328.137L284.453 328.055Z" fill="#426BFF"/>
<path d="M207.409 147.972L208.104 226.714L212.277 318.279H227.943L234.12 176.831C234.181 175.644 235.101 174.704 236.226 174.704C237.29 174.704 238.19 175.542 238.333 176.647L255.431 318.258H270.403V147.972H207.409Z" fill="#426BFF"/>
<path d="M242.219 76.0825C242.219 76.0825 248.518 76.737 249.173 71.1944C249.827 65.6518 250.052 57.8186 250.052 57.8186H226.246V80.5411H242.219V76.0825Z" fill="#FFCEC8"/>
<path d="M243.794 66.9199C243.794 66.9199 239.969 68.2289 239.724 63.8112C239.724 63.8112 240.296 61.1933 243.139 62.5022C243.139 62.5022 242.771 58.4527 249.97 59.9048C250.564 60.0275 251.443 57.5119 251.525 57.1846C252.691 52.4602 249.602 47.4902 245.185 45.8336C242.669 44.8928 239.622 44.4838 236.942 44.8928C235.838 45.0564 234.733 45.3632 233.752 45.895C233.118 46.2222 231.154 47.4084 231.154 48.247V45.22C227.411 45.22 224.384 48.247 224.384 51.9898V72.2989H235.142C237.822 72.2989 240.358 71.0922 242.055 69.0265L243.794 66.9199Z" fill="#384B61"/>
<path d="M200.659 83.3226C203.727 80.1934 208.002 78.5368 212.399 78.7617L264.308 81.5228L300.488 84.652L315.971 54.8939L327.097 59.0662L313.476 93.3851C311.717 97.8028 308.26 101.321 303.863 103.141C301.736 104.02 299.445 104.47 297.154 104.47H271.425L272.121 158.648H205.486V134.065C200.394 134.065 196.262 129.933 196.262 124.841V94.0396C196.262 90.031 197.837 86.1859 200.659 83.3226Z" fill="#FF6652"/>
<path d="M205.486 134.065V95.6145L203.359 133.799L205.486 134.065Z" fill="#FF361C"/>
<path d="M226.225 79.4981V77.7596L242.219 78.6391V80.5412L226.225 79.4981Z" fill="#FF6652"/>
<path d="M225.509 318.279H214.874V322.431H225.509V318.279Z" fill="#FFCEC8"/>
<path d="M227.636 327.135H213.156L214.301 322.431H225.898L227.636 327.135Z" fill="#426BFF"/>
<path d="M228.618 329.671H212.195V327.85C212.195 327.135 212.767 326.562 213.483 326.562H227.35C228.066 326.562 228.639 327.135 228.639 327.85V329.671H228.618Z" fill="#426BFF"/>
<path d="M228.618 328.055V329.671H212.195V328.137L228.618 328.055Z" fill="#426BFF"/>
<path d="M324.602 58.1459L325.154 55.8552L328.365 49.6991C328.774 49.29 328.692 48.6151 328.304 48.3288C327.956 48.0629 327.404 48.1242 327.076 48.5128C327.342 47.8993 327.138 47.2448 326.688 46.9585C326.217 46.6721 325.665 46.9176 325.624 46.938C325.829 46.2426 326.013 45.5677 326.217 44.8723C326.238 44.7905 326.279 44.3815 326.013 44.0338C325.747 43.7066 325.297 43.5634 324.847 43.6656C325.604 42.1113 326.34 40.5569 327.097 39.0025C327.281 38.7162 327.22 38.3276 326.954 38.1026C326.688 37.8776 326.279 37.8981 326.033 38.1435C324.295 40.9455 322.556 43.7679 320.818 46.5699L319.448 48.5128L318.589 52.4601L316.973 55.3644L324.602 58.1459Z" fill="#FFCEC8"/>
<path d="M323.681 46.3653C323.64 46.3653 323.62 46.3653 323.579 46.3448C323.477 46.2835 323.436 46.1608 323.497 46.079L324.663 43.8088C324.704 43.7065 324.847 43.6656 324.929 43.7269C325.031 43.7883 325.072 43.911 325.011 43.9928L323.845 46.263C323.824 46.3244 323.743 46.3653 323.681 46.3653Z" fill="#FFABA1"/>
<path d="M242.219 76.0826C242.219 76.0826 240.726 76.7575 237.024 73.6692C237.024 73.6692 238.251 77.2483 242.219 77.6165V76.0826Z" fill="#FF9B8F"/>
<path d="M207.491 158.648H270.382L207.511 161.185L207.491 158.648Z" fill="#2453FF"/>
<path d="M410.379 124.779C410.379 124.779 404.673 128.972 404.735 136.437C404.796 143.882 405.348 145.109 399.846 147.256C394.324 149.404 392.647 153.965 393.077 156.89C393.506 159.814 394.754 163.332 403.773 162.821C403.773 162.821 404.407 157.36 405.941 155.806C407.475 154.272 410.625 151.429 418.254 149.506L418.724 143.596C418.724 143.596 412.875 143.698 411.259 138.646L410.379 124.779Z" fill="#FDA74C"/>
<path d="M410.911 136.417C410.707 129.136 410.257 123.143 410.257 123.143C410.257 123.143 426.885 118.603 430.709 129.749C430.709 129.749 434.268 129.381 434.186 132.674C434.104 135.946 430.648 136.212 430.648 136.212L431.589 148.034C431.589 148.034 430.218 153.617 423.244 154.088C423.244 154.088 415.697 154.088 416.883 149.69L418.274 149.527L418.745 143.616C418.724 143.616 411.116 143.677 410.911 136.417Z" fill="#FFCEC8"/>
<path d="M430.709 129.749C430.709 129.749 420.626 135.026 415.595 123.88C415.595 123.88 413.57 128.195 410.298 128.195C410.298 128.195 410.093 120.934 410.093 120.893C409.991 117.212 413.734 115.208 416.761 114.41C420.606 113.387 425.801 113.612 429.032 116.21C431.896 118.521 433.164 122.346 433.716 125.843C433.716 125.843 440.465 125.884 441.61 133.083L442.04 139.076C442.04 139.076 456.091 136.867 458.586 145.907C460.12 151.449 459.077 158.055 453.146 158.546L452.062 155.908C451.1 153.576 449.239 151.204 447.01 149.977C444.781 148.729 442.51 148.095 440.281 148.034H431.568L430.627 136.212C430.627 136.212 433.777 135.885 434.166 132.674C434.207 132.654 433.982 129.504 430.709 129.749Z" fill="#FDA74C"/>
<path d="M418.724 143.616C418.724 143.616 423.162 143.943 425.187 140.18C425.187 140.18 424.308 145.232 418.54 145.989L418.724 143.616Z" fill="#FF9B8F"/>
<path d="M443.778 324.435C443.778 327.237 446.049 329.507 448.851 329.507C451.653 329.507 453.923 327.237 453.923 324.435C453.923 321.633 451.653 319.363 448.851 319.363C446.049 319.363 443.778 321.633 443.778 324.435Z" fill="#426BFF"/>
<path d="M449.423 321.121H407.864C407.291 321.121 406.841 320.671 406.841 320.099C406.841 319.526 407.291 319.076 407.864 319.076H449.423C449.996 319.076 450.446 319.526 450.446 320.099C450.446 320.671 449.976 321.121 449.423 321.121Z" fill="#426BFF"/>
<path d="M428.644 320.365C428.071 320.365 427.621 319.915 427.621 319.342V234.383C427.621 233.811 428.071 233.361 428.644 233.361C429.216 233.361 429.666 233.811 429.666 234.383V319.342C429.666 319.915 429.196 320.365 428.644 320.365Z" fill="#426BFF"/>
<path d="M402.935 324.435C402.935 327.237 405.205 329.507 408.007 329.507C410.809 329.507 413.079 327.237 413.079 324.435C413.079 321.633 410.809 319.363 408.007 319.363C405.205 319.363 402.935 321.633 402.935 324.435Z" fill="#426BFF"/>
<path d="M458.218 248.086H395.756V241.583H459.936L458.218 248.086Z" fill="#3661FF"/>
<path d="M459.895 241.787L481.902 167.668H413.161L427.744 241.787H459.895Z" fill="#426BFF"/>
<path d="M400.767 241.583H394.856L384.814 321.387L369.679 323.065L374.342 319.424L370.497 246.941C370.456 246.266 370.477 245.591 370.415 244.916C369.127 228.411 383.198 218.206 383.198 218.206C383.198 218.206 402.383 214.831 400.767 241.583Z" fill="#FFC1BA"/>
<path d="M385.857 313.759L387.289 319.219C387.636 320.569 386.859 321.96 385.55 322.308L363.257 328.464C362.05 328.791 361.15 327.298 362.03 326.378L374.997 316.827L385.857 313.759Z" fill="#FF5640"/>
<path d="M385.857 313.759L383.055 316.663C383.055 316.663 378.351 322.41 370.17 320.406L374.976 316.847L385.857 313.759Z" fill="#FFC1BA"/>
<path d="M426.148 194.931L416.393 199.594L407.066 204.134L428.869 204.318L426.148 194.931Z" fill="#FFCEC8"/>
<path d="M451.407 210.843C451.407 210.843 460.672 232.318 447.869 241.582H407.066C407.066 241.582 406.146 217.244 383.198 218.226L395.633 210.843H451.407Z" fill="#FF6652"/>
<path d="M407.066 241.582H401.155L391.113 321.387L375.283 324.435L379.701 319.608L376.715 247.882C376.387 243.157 377.124 238.433 378.821 234.076C379.905 231.275 381.501 228.677 383.321 226.284L389.088 218.676C389.068 218.676 406.003 219.903 407.066 241.582Z" fill="#FFCEC8"/>
<path d="M447.951 199.185L450.057 204.727L431.323 204.318L447.951 199.185Z" fill="#384B61"/>
<path d="M335.953 212.908H497.119C499.368 212.908 501.209 211.068 501.209 208.818C501.209 206.568 499.368 204.727 497.119 204.727H335.953C333.703 204.727 331.862 206.568 331.862 208.818C331.862 211.068 333.683 212.908 335.953 212.908Z" fill="#FDA74C"/>
<path d="M337.528 328.566C337.466 328.566 337.405 328.566 337.364 328.546C336.812 328.443 336.423 327.932 336.525 327.359L355.833 213.317C355.935 212.765 356.446 212.377 357.019 212.479C357.571 212.581 357.96 213.092 357.857 213.665L338.55 327.707C338.448 328.218 338.019 328.566 337.528 328.566Z" fill="#426BFF"/>
<path d="M497.834 328.566C497.344 328.566 496.914 328.218 496.832 327.707L477.525 213.665C477.423 213.113 477.811 212.581 478.364 212.479C478.916 212.377 479.448 212.765 479.55 213.317L498.857 327.359C498.959 327.912 498.571 328.443 498.018 328.546C497.937 328.566 497.875 328.566 497.834 328.566Z" fill="#426BFF"/>
<path d="M431.63 148.238H440.751C444.822 148.238 448.687 149.977 451.387 153.024C452.737 154.558 453.759 156.358 454.352 158.301L462.124 183.682C463.27 187.404 462.492 191.454 460.059 194.481C458.422 196.526 456.132 197.958 453.575 198.571L428.889 204.339L424.042 195.953L416.393 199.614L407.578 203.889L406.146 193.949L403.528 204.073H374.363L374.097 201.823L392.218 195.79L397.597 163.761C398.026 161.164 399.11 158.689 400.705 156.603C403.507 152.942 407.7 150.652 412.282 150.283L416.515 149.936C416.515 149.936 420.279 152.554 424.43 151.981C424.451 151.981 429.707 151.551 431.63 148.238Z" fill="#384B61"/>
<path d="M424.042 196.567C423.817 196.567 423.592 196.444 423.49 196.219C423.346 195.913 423.469 195.544 423.776 195.401L444.024 185.748L437.561 164.702C437.459 164.375 437.643 164.027 437.97 163.925C438.297 163.823 438.645 164.007 438.727 164.334L445.353 185.891C445.435 186.177 445.312 186.484 445.026 186.627L424.287 196.506C424.226 196.547 424.124 196.567 424.042 196.567Z" fill="#212B38"/>
<path d="M406.146 194.563C405.859 194.563 405.594 194.358 405.553 194.051L403.651 183.375C403.589 183.048 403.814 182.721 404.142 182.659C404.469 182.598 404.796 182.823 404.857 183.15L406.759 193.826C406.821 194.154 406.596 194.481 406.269 194.542C406.228 194.563 406.187 194.563 406.146 194.563Z" fill="#212B38"/>
<path d="M408.048 185.298C406.555 185.298 405.082 184.786 403.896 183.784C402.117 182.312 401.237 180.042 401.544 177.771L403.835 160.51C403.876 160.162 404.182 159.957 404.53 159.978C404.857 160.019 405.103 160.326 405.062 160.673L402.771 177.935C402.526 179.796 403.242 181.637 404.694 182.844C406.105 184.009 407.966 184.377 409.684 183.825L409.971 184.377L410.155 184.971L409.971 184.377L410.073 184.991C409.398 185.175 408.723 185.298 408.048 185.298Z" fill="#212B38"/>
<path d="M429.748 204.727C429.462 204.727 429.216 204.543 429.155 204.257C429.073 203.93 429.278 203.603 429.605 203.521L447.399 199.348C447.726 199.267 448.053 199.471 448.135 199.798C448.217 200.126 448.012 200.453 447.685 200.535L429.891 204.707C429.83 204.727 429.789 204.727 429.748 204.727Z" fill="#212B38"/>
<path d="M421.424 204.727H402.096V201.046H417.742C419.767 201.026 421.424 202.682 421.424 204.727Z" fill="#293545"/>
<path d="M404.428 204.727H348.654L339.798 176.769C339 174.274 340.861 171.738 343.479 171.738H391.154C392.831 171.738 394.324 172.822 394.836 174.438L404.428 204.727Z" fill="#293545"/>
<path d="M365.916 189.634C366.775 191.147 368.575 191.72 369.924 190.943C371.274 190.165 371.663 188.325 370.783 186.811C369.904 185.298 368.125 184.725 366.775 185.502C365.445 186.28 365.057 188.141 365.916 189.634Z" fill="#526985"/>
<path d="M392.075 315.129L393.261 320.671C393.608 322.021 392.831 323.412 391.522 323.76L369.229 329.916C368.022 330.243 367.122 328.73 368.002 327.83L380.008 318.463L392.075 315.129Z" fill="#FF6652"/>
<path d="M391.809 315.19L389.007 318.095C389.007 318.095 383.955 323.76 375.774 321.755L379.987 318.483L391.809 315.19Z" fill="#FFCEC8"/>
<path d="M106.128 229.373C99.9718 251.788 108.787 277.865 112.918 301.426L125.906 299.974C125.906 299.974 128.319 220.537 127.562 218.124C120.302 220.762 112.836 220.169 105.351 221.887C105.371 221.907 106.108 229.352 106.128 229.373Z" fill="#FFCEC8"/>
<path d="M64.6095 296.906L56.5512 317.277L48.1656 315.047L52.2766 294.227C52.2766 294.227 59.2918 295.413 64.6095 296.906Z" fill="#FFCEC8"/>
<path d="M48.2884 313.534L46.3249 318.361C45.8341 319.547 46.3454 320.917 47.4498 321.408L66.123 329.855C67.1456 330.305 68.1069 329.037 67.4728 328.096L58.2078 318.013L48.2884 313.534Z" fill="#384B61"/>
<path d="M48.2884 313.534L50.3541 316.54C50.3541 316.54 54.0355 322.369 61.4394 321.551L56.8784 315.865L48.2884 313.534Z" fill="#FFCEC8"/>
<path d="M125.926 299.279L126.294 321.674L117.725 323.065L112.918 301.426C112.918 301.426 120.465 300.097 125.926 299.279Z" fill="#FFCEC8"/>
<path d="M117.254 321.633L117.336 326.869C117.356 328.157 118.338 329.2 119.545 329.221L139.956 329.323C141.061 329.323 141.45 327.769 140.509 327.155L128.094 321.694L117.254 321.633Z" fill="#384B61"/>
<path d="M117.254 321.633L120.322 323.535C120.322 323.535 125.967 327.38 132.43 323.596L126.028 320.242L117.254 321.633Z" fill="#FFCEC8"/>
<path d="M105.719 161.819L111.037 168.241L89.3366 238.126L75.3061 233.852L65.3049 230.804C68.9454 202.314 69.7431 183.13 73.3632 166.359C75.1834 157.912 80.8488 150.979 88.5389 147.829L93.6929 145.723L105.719 161.819Z" fill="#FFCEC8"/>
<path d="M89.3366 238.126L64.2004 297.888L52.2766 294.227C57.2261 273.468 60.9894 255.081 67.1047 230.375H79.0898L89.3366 238.126Z" fill="#FFCEC8"/>
<path d="M126.437 199.164C128.155 205.157 129.423 211.293 129.894 217.531C130.385 224.116 130.405 231.336 127.726 237.492C122.286 233.054 99.2969 227.961 93.3452 230.763C85.8596 234.302 77.6377 235.754 69.4158 234.567C59.1282 233.074 50.4359 229.332 44.4024 220.414C40.496 214.647 36.8554 205.914 37.3463 198.817C39.3711 199.492 41.1504 200.269 43.4002 199.389C47.5316 197.774 50.1086 193.499 53.5856 190.943C59.66 186.464 63.0755 179.305 65.7957 172.29C68.5159 165.255 70.8679 157.912 75.572 152.022C76.5128 150.836 77.5968 149.69 78.9876 149.118C81.6464 148.013 84.6529 146.623 87.3526 147.584C93.8565 149.895 99.8082 142.9 104.349 148.688C106.844 151.858 108.562 155.54 110.239 159.18C111.937 162.862 114.084 166.4 115.598 170.122C119.197 179.039 122.981 187.895 125.803 197.119C126.028 197.753 126.233 198.469 126.437 199.164Z" fill="#FF6652"/>
<path d="M112.816 74.9781C110.505 74.201 109.482 70.4377 109.482 70.4377C109.748 66.9813 108.991 64.8134 108.112 63.484L90.9114 62.7886L90.4614 75.6122L88.6412 92.199L102.937 92.6898L102.263 85.0611C102.263 85.0611 102.365 85.0816 102.508 85.102L107.232 85.7156L108.235 85.9201C108.705 85.961 109.175 85.8792 109.585 85.6747C111.262 84.9384 111.18 78.4346 111.18 78.4346L111.303 77.2688C113.307 76.4916 112.816 74.9781 112.816 74.9781Z" fill="#FFCEC8"/>
<path d="M102.283 85.0611L95.7586 83.5681L102.344 86.7178L102.283 85.0611Z" fill="#FF897A"/>
<path d="M98.0084 72.3193C98.0084 72.3193 101.035 71.2967 103.081 68.1675C104.594 65.8564 104.492 63.8521 104.492 63.8521C104.492 63.8521 108.255 64.3634 109.482 70.0491C109.482 70.0491 111.343 64.527 107.151 60.3547C103.96 57.1846 87.3322 54.5258 83.2212 68.1266C80.726 76.3893 90.3183 81.8706 89.5411 83.9158C89.5411 83.9158 96.0245 82.9136 94.511 77.1461L98.0084 72.3193Z" fill="#5C403A"/>
<path d="M104.492 63.8521C104.492 63.8521 105.883 73.6487 97.9675 76.9415C97.9675 76.9415 98.0084 73.2192 94.4496 71.8693L104.492 63.8521Z" fill="#5C403A"/>
<path d="M98.4379 78.7209C96.7199 79.9276 94.961 80.3571 93.5293 78.3119C92.0976 76.2666 91.5454 72.5034 93.243 71.2967C94.961 70.09 97.4971 70.7854 98.9288 72.8307C100.381 74.8963 100.156 77.5347 98.4379 78.7209Z" fill="#FFCEC8"/>
<path d="M91.6886 80.1117C91.5045 84.4885 87.8231 87.904 83.4462 87.7199C79.0694 87.5359 75.6538 83.8545 75.8379 79.4777C76.022 75.1009 79.7034 71.6853 84.0803 71.8694C88.4571 72.0535 91.8727 75.7349 91.6886 80.1117Z" fill="#5C403A"/>
<path d="M89.0707 74.2214C88.9888 74.2214 88.8866 74.1805 88.8252 74.1191C86.4527 71.5626 83.2826 72.1966 83.2621 72.1966C83.0781 72.2375 82.9144 72.1148 82.8735 71.9307C82.8326 71.7466 82.9554 71.583 83.1394 71.5421C83.2826 71.5012 86.6982 70.8263 89.3365 73.6487C89.4593 73.7919 89.4592 73.9964 89.3161 74.1191C89.2343 74.2009 89.1525 74.2214 89.0707 74.2214Z" fill="white"/>
<path d="M111.384 118.971L131.632 166.359L126.499 169.754L103.469 145.845L111.384 118.971Z" fill="#FFCEC8"/>
<path d="M127.194 161.819L123.901 166.952L136.255 180.86C136.561 181.105 136.97 181.105 137.257 180.901C137.625 180.676 137.707 180.185 137.502 179.796C138.3 180.655 139.077 181.473 139.875 182.332C139.875 182.353 140.386 182.619 140.856 182.394C141.245 182.169 141.47 181.637 141.286 181.146C141.572 181.473 141.859 181.801 142.124 182.128C142.615 182.373 143.208 182.332 143.618 181.964C144.027 181.616 144.067 181.146 143.863 180.614C143.433 180.144 143.024 179.653 142.615 179.203L139.916 176.135L143.249 178.344C143.761 178.671 144.272 178.712 144.661 178.242C145.029 177.771 144.906 177.219 144.477 176.769C142.206 174.683 140.222 172.331 137.952 170.204L139.691 170.94C140.059 171.124 140.488 171.206 140.918 171.145C141.511 171.063 142.022 170.736 142.329 170.286L138.77 168.179L135.232 166.134C134.496 165.705 133.637 165.561 132.819 165.725L131.203 166.032L127.194 161.819Z" fill="#FFCEC8"/>
<path d="M85.471 95.9622L79.9693 149.793L104.349 148.627C104.103 143.78 110.014 123.491 110.014 123.491L114.514 118.276C115.148 117.089 115.516 115.842 115.638 114.553C115.925 111.486 114.33 108.622 111.855 106.782C108.746 104.491 106.721 97.5984 103.265 93.1398C89.8274 92.6694 88.8457 89.7448 88.8457 89.7448C87.2095 94.1624 85.471 95.9622 85.471 95.9622Z" fill="#384B61"/>
<path d="M92.2613 91.7285C92.2613 91.7285 94.6338 94.5305 99.2151 98.2119C100.79 99.4595 104.574 102.446 107.11 101.893L108.173 101.771C107.212 99.5617 104.962 94.6123 102.937 92.6898L92.2613 91.7285Z" fill="#FFCEC8"/>
<path d="M104.376 172.285L71.4742 166.317L66.8523 191.792L99.7538 197.761L104.376 172.285Z" fill="white"/>
<path d="M94.4906 198.06L53.4833 190.615C52.6652 190.472 52.1335 189.695 52.2766 188.877L56.8171 163.905C56.9602 163.087 57.7374 162.555 58.5555 162.698L99.5628 170.143C100.381 170.286 100.913 171.063 100.769 171.881L96.229 196.874C96.0654 197.672 95.3087 198.203 94.4906 198.06Z" fill="#384B61"/>
<path d="M94.286 94.7147C93.7952 94.4283 93.3248 94.1829 92.8748 93.9988C91.0136 93.2012 88.4366 92.874 86.5754 93.8761C84.7961 94.8169 83.4258 96.8212 82.6281 98.621C81.4419 101.3 81.1964 104.266 80.7465 107.129C79.9079 112.385 79.0694 117.642 78.2513 122.898C77.7195 126.191 77.2082 129.484 76.6764 132.776C76.6764 132.797 76.6764 132.838 76.656 132.858L71.7474 182.189L79.1307 182.987C79.1307 182.987 89.2138 153.106 92.1181 144.496C92.6294 142.962 93.018 141.407 93.3043 139.832C94.2042 134.535 95.1246 129.238 96.0245 123.941C96.9858 118.358 97.947 112.774 98.8878 107.17C99.3787 104.307 99.5423 101.587 98.4379 98.846C97.7221 97.1894 95.9836 95.6964 94.286 94.7147Z" fill="#FFCEC8"/>
<path d="M97.6198 120.116C98.3561 115.842 99.0924 111.547 99.8082 107.272C100.34 104.123 100.524 101.116 99.3174 98.1302C98.5811 96.3099 96.679 94.6737 94.7974 93.5693C94.2656 93.2625 93.7338 92.9966 93.243 92.7717C91.1773 91.8922 88.3753 91.5445 86.3096 92.6285C84.3666 93.6716 82.8531 95.86 81.9736 97.8438C80.6647 100.789 80.4192 104.041 79.9079 107.191C79.233 111.486 78.5376 115.801 77.8627 120.096H97.6198V120.116Z" fill="#384B61"/>
<path d="M72.5041 179.714L71.8497 181.923L68.2705 187.445C68.0864 187.527 67.391 189.736 66.9206 191.29C66.6547 192.149 66.9615 193.274 67.6773 193.826L69.9067 194.972C70.4589 195.197 71.052 195.238 71.6451 195.094L74.4676 194.399L72.0133 193.52C72.545 193.029 73.0973 192.538 73.629 192.047L75.8174 189.879L76.1856 190.206L75.8992 192.17C75.797 192.804 75.8583 193.458 76.0833 194.072C76.3492 194.788 77.1059 195.197 77.8627 195.013L77.7195 192.354C77.7195 192.354 78.2513 189.245 78.2717 189.122C78.2922 189.02 79.0285 184.234 79.0285 184.234L79.867 180.737L72.5041 179.714Z" fill="#FFCEC8"/>
<path d="M97.8857 119.094C97.8448 119.094 97.8243 119.094 97.7834 119.094C97.538 119.053 97.3744 118.807 97.4153 118.542C97.4357 118.398 100.258 104.573 99.8082 101.341C99.7673 101.096 99.9514 100.85 100.197 100.809C100.463 100.769 100.688 100.953 100.729 101.198C101.219 104.593 98.4583 118.133 98.3356 118.705C98.2947 118.951 98.0902 119.094 97.8857 119.094Z" fill="#384B61"/>
<path d="M544.977 331H1.02263C0.449955 331 0 330.55 0 329.977C0 329.405 0.449955 328.955 1.02263 328.955H544.977C545.55 328.955 546 329.405 546 329.977C546 330.55 545.55 331 544.977 331Z" fill="#FF6600" fill-opacity="0.08"/>
</svg>
