<svg width="1440" height="302" viewBox="0 0 1440 302" fill="none" xmlns="http://www.w3.org/2000/svg">
<g clip-path="url(#clip0_117_1736)">
<rect width="1440" height="302" fill="#2B2B2B"/>
<g opacity="0.1">
<g filter="url(#filter0_b_117_1736)">
<path d="M142.984 -88.3796C145.571 -88.3997 147.429 -88.4132 148.892 -88.3149C150.338 -88.2176 151.277 -88.0163 152.043 -87.6692C153.88 -86.8362 155.356 -85.3723 156.203 -83.5409C156.556 -82.7779 156.765 -81.841 156.873 -80.395C156.983 -78.9335 156.984 -77.0757 156.984 -74.4884L156.984 170.351C156.984 172.939 156.983 174.797 156.873 176.26C156.765 177.707 156.556 178.648 156.203 179.416C155.356 181.261 153.88 182.747 152.043 183.609C151.277 183.968 150.338 184.184 148.892 184.304C147.429 184.425 145.571 184.44 142.984 184.46L-199.135 187.117C-201.722 187.137 -203.58 187.151 -205.042 187.052C-206.489 186.955 -207.428 186.754 -208.193 186.407C-210.031 185.574 -211.507 184.11 -212.354 182.278C-212.707 181.515 -212.915 180.579 -213.024 179.132C-213.134 177.671 -213.135 175.813 -213.135 173.226L-213.135 -71.6138C-213.135 -74.2012 -213.134 -76.059 -213.024 -77.5222C-212.915 -78.9699 -212.707 -79.91 -212.354 -80.6785C-211.507 -82.5231 -210.031 -84.0098 -208.193 -84.8714C-207.428 -85.2304 -206.489 -85.4463 -205.042 -85.5661C-203.58 -85.6871 -201.722 -85.7025 -199.135 -85.7226L142.984 -88.3796Z" stroke="#FF6600" stroke-width="3"/>
</g>
<g filter="url(#filter1_b_117_1736)">
<path d="M186.651 -22.3074C189.238 -22.3275 191.096 -22.3409 192.558 -22.2426C194.005 -22.1454 194.944 -21.944 195.709 -21.5969C197.547 -20.7639 199.023 -19.3 199.87 -17.4686C200.223 -16.7056 200.431 -15.7688 200.54 -14.3227C200.65 -12.8612 200.651 -11.0034 200.651 -8.41609L200.651 236.424C200.651 239.011 200.65 240.869 200.54 242.332C200.431 243.78 200.223 244.72 199.87 245.488C199.022 247.333 197.547 248.82 195.709 249.681C194.944 250.04 194.005 250.256 192.558 250.376C191.096 250.497 189.238 250.512 186.651 250.532L-155.468 253.189C-158.056 253.21 -159.913 253.223 -161.376 253.125C-162.822 253.027 -163.761 252.826 -164.527 252.479C-166.364 251.646 -167.84 250.182 -168.687 248.351C-169.04 247.588 -169.249 246.651 -169.357 245.205C-169.467 243.743 -169.468 241.885 -169.468 239.298L-169.468 -5.54158C-169.468 -8.1289 -169.467 -9.98673 -169.357 -11.4499C-169.249 -12.8977 -169.04 -13.8378 -168.687 -14.6062C-167.84 -16.4508 -166.364 -17.9376 -164.527 -18.7992C-163.761 -19.1581 -162.822 -19.3741 -161.376 -19.4938C-159.913 -19.6148 -158.055 -19.6302 -155.468 -19.6503L186.651 -22.3074Z" stroke="#FF6600" stroke-width="3"/>
</g>
<g filter="url(#filter2_b_117_1736)">
<path d="M229.94 43.803C232.527 43.7829 234.385 43.7695 235.847 43.8677C237.294 43.965 238.233 44.1664 238.998 44.5134C240.836 45.3465 242.312 46.8103 243.159 48.6417C243.512 49.4047 243.721 50.3416 243.829 51.7877C243.939 53.2491 243.94 55.1069 243.94 57.6943L243.94 302.534C243.94 305.121 243.939 306.979 243.829 308.442C243.721 309.89 243.512 310.83 243.159 311.599C242.312 313.443 240.836 314.93 238.998 315.792C238.233 316.151 237.294 316.366 235.847 316.486C234.385 316.607 232.527 316.623 229.94 316.643L-112.179 319.3C-114.766 319.32 -116.624 319.333 -118.086 319.235C-119.533 319.138 -120.472 318.936 -121.237 318.589C-123.075 317.756 -124.551 316.292 -125.398 314.461C-125.751 313.698 -125.96 312.761 -126.068 311.315C-126.178 309.854 -126.179 307.996 -126.179 305.408L-126.179 60.5688C-126.179 57.9815 -126.178 56.1236 -126.068 54.6604C-125.96 53.2127 -125.751 52.2726 -125.398 51.5041C-124.551 49.6596 -123.075 48.1728 -121.237 47.3112C-120.472 46.9522 -119.533 46.7363 -118.086 46.6165C-116.624 46.4956 -114.766 46.4801 -112.179 46.46L229.94 43.803Z" stroke="#FF6600" stroke-width="3"/>
</g>
<g filter="url(#filter3_b_117_1736)">
<path d="M281.887 86.8144C284.474 86.7943 286.332 86.7809 287.794 86.8792C289.241 86.9764 290.179 87.1778 290.945 87.5248C292.783 88.3579 294.258 89.8217 295.106 91.6531C295.459 92.4161 295.667 93.353 295.776 94.7991C295.885 96.2605 295.886 98.1184 295.886 100.706L295.886 345.545C295.886 348.133 295.885 349.991 295.776 351.454C295.667 352.901 295.459 353.842 295.106 354.61C294.258 356.455 292.783 357.941 290.945 358.803C290.179 359.162 289.241 359.378 287.794 359.498C286.332 359.619 284.474 359.634 281.887 359.654L-60.2325 362.311C-62.8197 362.331 -64.6775 362.345 -66.1398 362.246C-67.5866 362.149 -68.5251 361.948 -69.2908 361.601C-71.1287 360.768 -72.604 359.304 -73.4513 357.472C-73.8043 356.709 -74.0129 355.773 -74.1214 354.326C-74.2311 352.865 -74.232 351.007 -74.232 348.42L-74.232 103.58C-74.232 100.993 -74.2311 99.135 -74.1214 97.6719C-74.0129 96.2241 -73.8043 95.284 -73.4513 94.5155C-72.604 92.671 -71.1287 91.1842 -69.2908 90.3226C-68.5251 89.9636 -67.5866 89.7477 -66.1398 89.628C-64.6775 89.507 -62.8197 89.4916 -60.2325 89.4715L281.887 86.8144Z" stroke="#FF6600" stroke-width="3"/>
</g>
</g>
<g opacity="0.1">
<g filter="url(#filter4_b_117_1736)">
<path d="M1307.63 -88.3796C1305.04 -88.3997 1303.18 -88.4132 1301.72 -88.3149C1300.28 -88.2176 1299.34 -88.0163 1298.57 -87.6692C1296.73 -86.8362 1295.26 -85.3723 1294.41 -83.5409C1294.06 -82.7779 1293.85 -81.841 1293.74 -80.395C1293.63 -78.9335 1293.63 -77.0757 1293.63 -74.4884L1293.63 170.351C1293.63 172.939 1293.63 174.797 1293.74 176.26C1293.85 177.707 1294.06 178.648 1294.41 179.416C1295.26 181.261 1296.73 182.747 1298.57 183.609C1299.34 183.968 1300.28 184.184 1301.72 184.304C1303.18 184.425 1305.04 184.44 1307.63 184.46L1649.75 187.117C1652.34 187.137 1654.19 187.151 1655.66 187.052C1657.1 186.955 1658.04 186.754 1658.81 186.407C1660.64 185.574 1662.12 184.11 1662.97 182.278C1663.32 181.515 1663.53 180.579 1663.64 179.132C1663.75 177.671 1663.75 175.813 1663.75 173.226L1663.75 -71.6138C1663.75 -74.2012 1663.75 -76.059 1663.64 -77.5222C1663.53 -78.9699 1663.32 -79.91 1662.97 -80.6785C1662.12 -82.5231 1660.64 -84.0098 1658.81 -84.8714C1658.04 -85.2304 1657.1 -85.4463 1655.66 -85.5661C1654.19 -85.6871 1652.34 -85.7025 1649.75 -85.7226L1307.63 -88.3796Z" stroke="#FF6600" stroke-width="3"/>
</g>
<g filter="url(#filter5_b_117_1736)">
<path d="M1263.96 -22.3074C1261.38 -22.3275 1259.52 -22.3409 1258.06 -22.2426C1256.61 -22.1454 1255.67 -21.944 1254.9 -21.5969C1253.07 -20.7639 1251.59 -19.3 1250.74 -17.4686C1250.39 -16.7056 1250.18 -15.7688 1250.07 -14.3227C1249.96 -12.8612 1249.96 -11.0034 1249.96 -8.41609L1249.96 236.424C1249.96 239.011 1249.96 240.869 1250.07 242.332C1250.18 243.78 1250.39 244.72 1250.74 245.488C1251.59 247.333 1253.07 248.82 1254.9 249.681C1255.67 250.04 1256.61 250.256 1258.06 250.376C1259.52 250.497 1261.38 250.512 1263.96 250.532L1606.08 253.189C1608.67 253.21 1610.53 253.223 1611.99 253.125C1613.44 253.027 1614.37 252.826 1615.14 252.479C1616.98 251.646 1618.45 250.182 1619.3 248.351C1619.65 247.588 1619.86 246.651 1619.97 245.205C1620.08 243.743 1620.08 241.885 1620.08 239.298L1620.08 -5.54158C1620.08 -8.1289 1620.08 -9.98673 1619.97 -11.4499C1619.86 -12.8977 1619.65 -13.8378 1619.3 -14.6062C1618.45 -16.4508 1616.98 -17.9376 1615.14 -18.7992C1614.37 -19.1581 1613.44 -19.3741 1611.99 -19.4938C1610.53 -19.6148 1608.67 -19.6302 1606.08 -19.6503L1263.96 -22.3074Z" stroke="#FF6600" stroke-width="3"/>
</g>
<g filter="url(#filter6_b_117_1736)">
<path d="M1220.67 43.803C1218.09 43.7829 1216.23 43.7695 1214.77 43.8677C1213.32 43.965 1212.38 44.1664 1211.62 44.5134C1209.78 45.3465 1208.3 46.8103 1207.45 48.6417C1207.1 49.4047 1206.89 50.3416 1206.78 51.7877C1206.67 53.2491 1206.67 55.1069 1206.67 57.6943L1206.67 302.534C1206.67 305.121 1206.67 306.979 1206.78 308.442C1206.89 309.89 1207.1 310.83 1207.45 311.599C1208.3 313.443 1209.78 314.93 1211.62 315.792C1212.38 316.151 1213.32 316.366 1214.77 316.486C1216.23 316.607 1218.09 316.623 1220.67 316.643L1562.79 319.3C1565.38 319.32 1567.24 319.333 1568.7 319.235C1570.15 319.138 1571.09 318.936 1571.85 318.589C1573.69 317.756 1575.16 316.292 1576.01 314.461C1576.36 313.698 1576.57 312.761 1576.68 311.315C1576.79 309.854 1576.79 307.996 1576.79 305.408L1576.79 60.5688C1576.79 57.9815 1576.79 56.1236 1576.68 54.6604C1576.57 53.2127 1576.36 52.2726 1576.01 51.5041C1575.16 49.6596 1573.69 48.1728 1571.85 47.3112C1571.09 46.9522 1570.15 46.7363 1568.7 46.6165C1567.24 46.4956 1565.38 46.4801 1562.79 46.46L1220.67 43.803Z" stroke="#FF6600" stroke-width="3"/>
</g>
<g filter="url(#filter7_b_117_1736)">
<path d="M1168.73 86.8144C1166.14 86.7943 1164.28 86.7809 1162.82 86.8792C1161.37 86.9764 1160.43 87.1778 1159.67 87.5248C1157.83 88.3579 1156.36 89.8217 1155.51 91.6531C1155.15 92.4161 1154.95 93.353 1154.84 94.7991C1154.73 96.2605 1154.73 98.1184 1154.73 100.706L1154.73 345.545C1154.73 348.133 1154.73 349.991 1154.84 351.454C1154.95 352.901 1155.15 353.842 1155.51 354.61C1156.36 356.455 1157.83 357.941 1159.67 358.803C1160.43 359.162 1161.37 359.378 1162.82 359.498C1164.28 359.619 1166.14 359.634 1168.73 359.654L1510.85 362.311C1513.43 362.331 1515.29 362.345 1516.75 362.246C1518.2 362.149 1519.14 361.948 1519.9 361.601C1521.74 360.768 1523.22 359.304 1524.06 357.472C1524.42 356.709 1524.63 355.773 1524.73 354.326C1524.84 352.865 1524.85 351.007 1524.85 348.42L1524.85 103.58C1524.85 100.993 1524.84 99.135 1524.73 97.6719C1524.63 96.2241 1524.42 95.284 1524.06 94.5155C1523.22 92.671 1521.74 91.1842 1519.9 90.3226C1519.14 89.9636 1518.2 89.7477 1516.75 89.628C1515.29 89.507 1513.43 89.4916 1510.85 89.4715L1168.73 86.8144Z" stroke="#FF6600" stroke-width="3"/>
</g>
</g>
</g>
<defs>
<filter id="filter0_b_117_1736" x="-245.271" y="-120.53" width="434.39" height="339.798" filterUnits="userSpaceOnUse" color-interpolation-filters="sRGB">
<feFlood flood-opacity="0" result="BackgroundImageFix"/>
<feGaussianBlur in="BackgroundImage" stdDeviation="15.318"/>
<feComposite in2="SourceAlpha" operator="in" result="effect1_backgroundBlur_117_1736"/>
<feBlend mode="normal" in="SourceGraphic" in2="effect1_backgroundBlur_117_1736" result="shape"/>
</filter>
<filter id="filter1_b_117_1736" x="-201.604" y="-54.4577" width="434.39" height="339.797" filterUnits="userSpaceOnUse" color-interpolation-filters="sRGB">
<feFlood flood-opacity="0" result="BackgroundImageFix"/>
<feGaussianBlur in="BackgroundImage" stdDeviation="15.318"/>
<feComposite in2="SourceAlpha" operator="in" result="effect1_backgroundBlur_117_1736"/>
<feBlend mode="normal" in="SourceGraphic" in2="effect1_backgroundBlur_117_1736" result="shape"/>
</filter>
<filter id="filter2_b_117_1736" x="-158.315" y="11.6526" width="434.39" height="339.797" filterUnits="userSpaceOnUse" color-interpolation-filters="sRGB">
<feFlood flood-opacity="0" result="BackgroundImageFix"/>
<feGaussianBlur in="BackgroundImage" stdDeviation="15.318"/>
<feComposite in2="SourceAlpha" operator="in" result="effect1_backgroundBlur_117_1736"/>
<feBlend mode="normal" in="SourceGraphic" in2="effect1_backgroundBlur_117_1736" result="shape"/>
</filter>
<filter id="filter3_b_117_1736" x="-106.368" y="54.664" width="434.39" height="339.798" filterUnits="userSpaceOnUse" color-interpolation-filters="sRGB">
<feFlood flood-opacity="0" result="BackgroundImageFix"/>
<feGaussianBlur in="BackgroundImage" stdDeviation="15.318"/>
<feComposite in2="SourceAlpha" operator="in" result="effect1_backgroundBlur_117_1736"/>
<feBlend mode="normal" in="SourceGraphic" in2="effect1_backgroundBlur_117_1736" result="shape"/>
</filter>
<filter id="filter4_b_117_1736" x="1261.49" y="-120.53" width="434.39" height="339.798" filterUnits="userSpaceOnUse" color-interpolation-filters="sRGB">
<feFlood flood-opacity="0" result="BackgroundImageFix"/>
<feGaussianBlur in="BackgroundImage" stdDeviation="15.318"/>
<feComposite in2="SourceAlpha" operator="in" result="effect1_backgroundBlur_117_1736"/>
<feBlend mode="normal" in="SourceGraphic" in2="effect1_backgroundBlur_117_1736" result="shape"/>
</filter>
<filter id="filter5_b_117_1736" x="1217.83" y="-54.4577" width="434.39" height="339.797" filterUnits="userSpaceOnUse" color-interpolation-filters="sRGB">
<feFlood flood-opacity="0" result="BackgroundImageFix"/>
<feGaussianBlur in="BackgroundImage" stdDeviation="15.318"/>
<feComposite in2="SourceAlpha" operator="in" result="effect1_backgroundBlur_117_1736"/>
<feBlend mode="normal" in="SourceGraphic" in2="effect1_backgroundBlur_117_1736" result="shape"/>
</filter>
<filter id="filter6_b_117_1736" x="1174.54" y="11.6526" width="434.39" height="339.797" filterUnits="userSpaceOnUse" color-interpolation-filters="sRGB">
<feFlood flood-opacity="0" result="BackgroundImageFix"/>
<feGaussianBlur in="BackgroundImage" stdDeviation="15.318"/>
<feComposite in2="SourceAlpha" operator="in" result="effect1_backgroundBlur_117_1736"/>
<feBlend mode="normal" in="SourceGraphic" in2="effect1_backgroundBlur_117_1736" result="shape"/>
</filter>
<filter id="filter7_b_117_1736" x="1122.59" y="54.664" width="434.39" height="339.798" filterUnits="userSpaceOnUse" color-interpolation-filters="sRGB">
<feFlood flood-opacity="0" result="BackgroundImageFix"/>
<feGaussianBlur in="BackgroundImage" stdDeviation="15.318"/>
<feComposite in2="SourceAlpha" operator="in" result="effect1_backgroundBlur_117_1736"/>
<feBlend mode="normal" in="SourceGraphic" in2="effect1_backgroundBlur_117_1736" result="shape"/>
</filter>
<clipPath id="clip0_117_1736">
<rect width="1440" height="302" fill="white"/>
</clipPath>
</defs>
</svg>
