<svg width="44" height="44" viewBox="0 0 44 44" fill="none" xmlns="http://www.w3.org/2000/svg">
<path fill-rule="evenodd" clip-rule="evenodd" d="M44 21.9996C44 34.15 34.1506 44 21.9996 44C9.84936 44 0 34.15 0 21.9996C0 9.85095 9.84936 6.541e-06 21.9996 6.541e-06C27.8238 -0.00449161 33.4137 2.31116 37.5564 6.44405C41.6751 10.5527 43.9955 16.1538 44 21.9996Z" fill="#FF6600"/>
<path fill-rule="evenodd" clip-rule="evenodd" d="M21.375 35.4814C16.2119 35.2367 11.6423 32.0673 9.60438 27.3182C7.56642 22.5682 8.42188 17.0579 11.8001 13.1634C12.1298 12.7847 12.7018 12.7469 13.0779 13.0807C13.0895 13.0906 13.1011 13.1014 13.1118 13.1121L15.4491 15.4494C15.7744 15.7697 15.8011 16.286 15.5115 16.6387C13.1492 19.4896 12.9371 23.5739 14.992 26.6588C17.0469 29.7481 20.8822 31.1281 24.4341 30.0549C27.9852 28.9825 30.4161 25.7097 30.417 21.9996C30.4116 19.9943 29.6827 18.0592 28.3666 16.5568C28.0573 16.2177 28.0573 15.6959 28.3666 15.3567L30.7547 12.9889C31.0942 12.6263 31.661 12.6102 32.021 12.9529C32.0334 12.9646 32.045 12.9763 32.0566 12.9889C35.6923 17.021 36.5433 22.8767 34.2077 27.7932C31.873 32.7097 26.8116 35.7414 21.375 35.4805V35.4814Z" fill="white"/>
</svg>
