<svg width="196" height="63" viewBox="0 0 196 63" fill="none" xmlns="http://www.w3.org/2000/svg">
<path fill-rule="evenodd" clip-rule="evenodd" d="M62.6444 31.3215C62.6444 48.6205 48.6215 62.6444 31.3215 62.6444C14.0229 62.6444 0 48.6205 0 31.3215C0 14.0252 14.0229 9.31265e-06 31.3215 9.31265e-06C39.6137 -0.00639486 47.5723 3.29047 53.4704 9.17463C59.3343 15.0242 62.638 22.9987 62.6444 31.3215Z" fill="#FF6600"/>
<path fill-rule="evenodd" clip-rule="evenodd" d="M30.4323 50.5161C23.0814 50.1677 16.5756 45.6553 13.6741 38.8938C10.7726 32.131 11.9905 24.2859 16.8001 18.7411C17.2696 18.2019 18.0841 18.1481 18.6194 18.6233C18.6359 18.6374 18.6524 18.6528 18.6677 18.6681L21.9954 21.9957C22.4585 22.4517 22.4966 23.1869 22.0842 23.689C18.7209 27.748 18.419 33.563 21.3446 37.9549C24.2702 42.3533 29.7307 44.3181 34.7877 42.7901C39.8434 41.2633 43.3044 36.6037 43.3057 31.3215C43.2981 28.4665 42.2603 25.7114 40.3864 23.5725C39.9462 23.0896 39.9462 22.3467 40.3864 21.8638L43.7865 18.4927C44.2699 17.9765 45.0768 17.9534 45.5894 18.4414C45.6071 18.4581 45.6236 18.4747 45.6401 18.4927C50.8164 24.2334 52.028 32.5703 48.7027 39.5701C45.3788 46.5698 38.1726 50.8863 30.4323 50.5148V50.5161Z" fill="white"/>
<path d="M80.7443 23.5883H94.6943V26.9783H84.3593V32.3033H92.8943V35.6933H84.3593V41.7983H94.6943V45.1883H80.7443V23.5883ZM102.418 36.9983L96.6132 28.9883H100.873L104.518 34.1633L108.103 28.9883H112.363L106.558 36.9983L112.513 45.1883H108.253L104.518 39.8333L100.753 45.1883H96.4932L102.418 36.9983ZM121.354 45.6383C119.724 45.6383 118.309 45.2733 117.109 44.5433C115.919 43.8033 115.009 42.7883 114.379 41.4983C113.749 40.1983 113.429 38.7283 113.419 37.0883C113.419 35.4383 113.744 33.9683 114.394 32.6783C115.044 31.3783 115.969 30.3633 117.169 29.6333C118.379 28.9033 119.789 28.5383 121.399 28.5383C122.619 28.5383 123.724 28.7483 124.714 29.1683C125.704 29.5883 126.529 30.1883 127.189 30.9683C127.859 31.7383 128.319 32.6533 128.569 33.7133L124.969 34.6883C124.699 33.8283 124.234 33.1533 123.574 32.6633C122.924 32.1733 122.184 31.9283 121.354 31.9283C119.994 31.9283 118.969 32.3983 118.279 33.3383C117.599 34.2783 117.254 35.5283 117.244 37.0883C117.254 38.6783 117.609 39.9383 118.309 40.8683C119.009 41.7883 120.024 42.2483 121.354 42.2483C122.294 42.2483 123.044 42.0383 123.604 41.6183C124.164 41.1883 124.589 40.5433 124.879 39.6833L128.569 40.5083C128.069 42.1583 127.194 43.4283 125.944 44.3183C124.694 45.1983 123.164 45.6383 121.354 45.6383ZM137.649 45.6533C135.839 45.6533 134.464 45.1983 133.524 44.2883C132.584 43.3683 131.974 42.3483 131.694 41.2283C131.414 40.1083 131.274 39.0433 131.274 38.0333V28.9883H134.934V36.7883C134.934 40.4283 136.194 42.2483 138.714 42.2483C139.804 42.2483 140.709 41.8783 141.429 41.1383C142.149 40.3883 142.509 39.1133 142.509 37.3133V28.9883H146.139V45.1883H142.944V43.3883C142.334 44.1083 141.584 44.6683 140.694 45.0683C139.804 45.4583 138.789 45.6533 137.649 45.6533ZM150.354 28.9883H153.549V31.5833C153.989 30.8233 154.529 30.2433 155.169 29.8433C155.619 29.5333 156.129 29.3033 156.699 29.1533C157.269 28.9933 157.854 28.9133 158.454 28.9133C158.764 28.9133 159.104 28.9383 159.474 28.9883V32.3633C159.094 32.2633 158.704 32.2133 158.304 32.2133C157.474 32.2133 156.749 32.3933 156.129 32.7533C155.409 33.1433 154.869 33.6983 154.509 34.4183C154.159 35.1383 153.984 35.9833 153.984 36.9533V45.1883H150.354V28.9883ZM168.005 45.6383C166.005 45.6383 164.38 45.1883 163.13 44.2883C161.88 43.3883 161.12 42.1233 160.85 40.4933L164.54 39.9233C164.72 40.7333 165.135 41.3683 165.785 41.8283C166.445 42.2783 167.27 42.5033 168.26 42.5033C169.12 42.5033 169.79 42.3333 170.27 41.9933C170.75 41.6433 170.99 41.1683 170.99 40.5683C170.99 40.1783 170.895 39.8783 170.705 39.6683C170.525 39.4583 170.16 39.2533 169.61 39.0533C169.06 38.8433 168.145 38.5683 166.865 38.2283C165.495 37.8683 164.41 37.4833 163.61 37.0733C162.82 36.6533 162.25 36.1633 161.9 35.6033C161.55 35.0333 161.375 34.3383 161.375 33.5183C161.375 32.5183 161.635 31.6433 162.155 30.8933C162.685 30.1433 163.43 29.5633 164.39 29.1533C165.36 28.7433 166.48 28.5383 167.75 28.5383C169 28.5383 170.115 28.7333 171.095 29.1233C172.075 29.5133 172.865 30.0733 173.465 30.8033C174.075 31.5233 174.445 32.3633 174.575 33.3233L170.885 33.9833C170.785 33.2933 170.465 32.7483 169.925 32.3483C169.395 31.9483 168.69 31.7233 167.81 31.6733C166.96 31.6333 166.275 31.7683 165.755 32.0783C165.235 32.3783 164.975 32.7983 164.975 33.3383C164.975 33.6683 165.08 33.9383 165.29 34.1483C165.51 34.3583 165.925 34.5733 166.535 34.7933C167.145 35.0033 168.1 35.2733 169.4 35.6033C170.71 35.9433 171.745 36.3233 172.505 36.7433C173.275 37.1633 173.83 37.6683 174.17 38.2583C174.52 38.8383 174.695 39.5533 174.695 40.4033C174.695 41.4833 174.425 42.4183 173.885 43.2083C173.355 43.9883 172.585 44.5883 171.575 45.0083C170.575 45.4283 169.385 45.6383 168.005 45.6383ZM182.195 45.0683L175.64 28.9883H179.405L183.935 40.5833L188.33 28.9883H191.945L182.915 52.3883H179.525L182.195 45.0683Z" fill="white"/>
</svg>
