<svg width="239" height="76" viewBox="0 0 239 76" fill="none" xmlns="http://www.w3.org/2000/svg">
<path fill-rule="evenodd" clip-rule="evenodd" d="M76 37.9992C76 58.9863 58.9875 76 37.9992 76C17.0125 76 0 58.9863 0 37.9992C0 17.0153 17.0125 1.12981e-05 37.9992 1.12981e-05C48.0593 -0.00775823 57.7146 3.992 64.8702 11.1306C71.9843 18.2273 75.9923 27.9019 76 37.9992Z" fill="#FF6600"/>
<path fill-rule="evenodd" clip-rule="evenodd" d="M36.9204 61.286C28.0024 60.8633 20.1095 55.3889 16.5894 47.1859C13.0693 38.9812 14.5469 29.4636 20.3819 22.7367C20.9514 22.0825 21.9395 22.0172 22.5891 22.5937C22.6091 22.6108 22.6291 22.6295 22.6476 22.6481L26.6848 26.6852C27.2466 27.2384 27.2928 28.1303 26.7926 28.7394C22.7122 33.6638 22.3459 40.7185 25.8952 46.0468C29.4446 51.383 36.0692 53.7666 42.2044 51.9128C48.338 50.0606 52.5369 44.4075 52.5384 37.9992C52.5292 34.5355 51.2701 31.1931 48.9968 28.598C48.4627 28.0122 48.4627 27.1109 48.9968 26.5251L53.1218 22.4352C53.7082 21.809 54.6871 21.781 55.3089 22.3731C55.3305 22.3933 55.3505 22.4135 55.3705 22.4352C61.6503 29.3998 63.1203 39.5142 59.0861 48.0063C55.0534 56.4984 46.3109 61.7351 36.9204 61.2844V61.286Z" fill="white"/>
<path d="M99.1 26.4H113.05V29.79H102.715V35.115H111.25V38.505H102.715V44.61H113.05V48H99.1V26.4ZM120.774 39.81L114.969 31.8H119.229L122.874 36.975L126.459 31.8H130.719L124.914 39.81L130.869 48H126.609L122.874 42.645L119.109 48H114.849L120.774 39.81ZM139.709 48.45C138.079 48.45 136.664 48.085 135.464 47.355C134.274 46.615 133.364 45.6 132.734 44.31C132.104 43.01 131.784 41.54 131.774 39.9C131.774 38.25 132.099 36.78 132.749 35.49C133.399 34.19 134.324 33.175 135.524 32.445C136.734 31.715 138.144 31.35 139.754 31.35C140.974 31.35 142.079 31.56 143.069 31.98C144.059 32.4 144.884 33 145.544 33.78C146.214 34.55 146.674 35.465 146.924 36.525L143.324 37.5C143.054 36.64 142.589 35.965 141.929 35.475C141.279 34.985 140.539 34.74 139.709 34.74C138.349 34.74 137.324 35.21 136.634 36.15C135.954 37.09 135.609 38.34 135.599 39.9C135.609 41.49 135.964 42.75 136.664 43.68C137.364 44.6 138.379 45.06 139.709 45.06C140.649 45.06 141.399 44.85 141.959 44.43C142.519 44 142.944 43.355 143.234 42.495L146.924 43.32C146.424 44.97 145.549 46.24 144.299 47.13C143.049 48.01 141.519 48.45 139.709 48.45ZM156.005 48.465C154.195 48.465 152.82 48.01 151.88 47.1C150.94 46.18 150.33 45.16 150.05 44.04C149.77 42.92 149.63 41.855 149.63 40.845V31.8H153.29V39.6C153.29 43.24 154.55 45.06 157.07 45.06C158.16 45.06 159.065 44.69 159.785 43.95C160.505 43.2 160.865 41.925 160.865 40.125V31.8H164.495V48H161.3V46.2C160.69 46.92 159.94 47.48 159.05 47.88C158.16 48.27 157.145 48.465 156.005 48.465ZM168.709 31.8H171.904V34.395C172.344 33.635 172.884 33.055 173.524 32.655C173.974 32.345 174.484 32.115 175.054 31.965C175.624 31.805 176.209 31.725 176.809 31.725C177.119 31.725 177.459 31.75 177.829 31.8V35.175C177.449 35.075 177.059 35.025 176.659 35.025C175.829 35.025 175.104 35.205 174.484 35.565C173.764 35.955 173.224 36.51 172.864 37.23C172.514 37.95 172.339 38.795 172.339 39.765V48H168.709V31.8ZM186.361 48.45C184.361 48.45 182.736 48 181.486 47.1C180.236 46.2 179.476 44.935 179.206 43.305L182.896 42.735C183.076 43.545 183.491 44.18 184.141 44.64C184.801 45.09 185.626 45.315 186.616 45.315C187.476 45.315 188.146 45.145 188.626 44.805C189.106 44.455 189.346 43.98 189.346 43.38C189.346 42.99 189.251 42.69 189.061 42.48C188.881 42.27 188.516 42.065 187.966 41.865C187.416 41.655 186.501 41.38 185.221 41.04C183.851 40.68 182.766 40.295 181.966 39.885C181.176 39.465 180.606 38.975 180.256 38.415C179.906 37.845 179.731 37.15 179.731 36.33C179.731 35.33 179.991 34.455 180.511 33.705C181.041 32.955 181.786 32.375 182.746 31.965C183.716 31.555 184.836 31.35 186.106 31.35C187.356 31.35 188.471 31.545 189.451 31.935C190.431 32.325 191.221 32.885 191.821 33.615C192.431 34.335 192.801 35.175 192.931 36.135L189.241 36.795C189.141 36.105 188.821 35.56 188.281 35.16C187.751 34.76 187.046 34.535 186.166 34.485C185.316 34.445 184.631 34.58 184.111 34.89C183.591 35.19 183.331 35.61 183.331 36.15C183.331 36.48 183.436 36.75 183.646 36.96C183.866 37.17 184.281 37.385 184.891 37.605C185.501 37.815 186.456 38.085 187.756 38.415C189.066 38.755 190.101 39.135 190.861 39.555C191.631 39.975 192.186 40.48 192.526 41.07C192.876 41.65 193.051 42.365 193.051 43.215C193.051 44.295 192.781 45.23 192.241 46.02C191.711 46.8 190.941 47.4 189.931 47.82C188.931 48.24 187.741 48.45 186.361 48.45ZM200.55 47.88L193.995 31.8H197.76L202.29 43.395L206.685 31.8H210.3L201.27 55.2H197.88L200.55 47.88Z" fill="#2B2B2B"/>
</svg>
