<svg width="175" height="37" viewBox="0 0 175 37" fill="none" xmlns="http://www.w3.org/2000/svg">
<path d="M62.1689 21.3941L61.1293 24.2911H61.0426C60.8694 23.6379 60.5517 22.6438 60.0319 21.4509L54.4582 7.67574H49V29.6308H52.6099V16.0828C52.6099 15.2308 52.6099 14.2651 52.581 13.0722C52.5521 12.4757 52.4944 12.0213 52.4655 11.6805H52.5521C52.7254 12.5325 52.9276 13.1574 53.072 13.555L59.7719 29.574H62.3133L68.9555 13.413C69.0999 13.0438 69.2443 12.3053 69.3887 11.6805H69.4754C69.3887 13.2994 69.331 14.7479 69.3021 15.6284V29.5456H73.143V7.61893H67.887L62.1689 21.3941ZM76.7818 13.8107H80.5361V29.5456H76.7818V13.8107ZM78.6878 7.1645C78.0525 7.1645 77.5327 7.39172 77.0995 7.78935C76.6663 8.18698 76.4352 8.69822 76.4352 9.32308C76.4352 9.91953 76.6663 10.4308 77.0995 10.8284C77.5327 11.226 78.0525 11.4249 78.6878 11.4249C79.3232 11.4249 79.8719 11.1976 80.2762 10.8284C80.7094 10.4308 80.9404 9.91953 80.9404 9.32308C80.9404 8.72663 80.7094 8.21538 80.2762 7.78935C79.9008 7.39172 79.352 7.1645 78.6878 7.1645ZM93.8494 13.6686C93.1563 13.5266 92.4343 13.4414 91.7412 13.4414C90.0374 13.4414 88.4779 13.8107 87.1783 14.5491C85.8787 15.2876 84.8391 16.3101 84.1749 17.5882C83.4818 18.8947 83.1352 20.4 83.1352 22.1325C83.1352 23.6379 83.4818 24.9728 84.146 26.1941C84.8102 27.387 85.7344 28.3527 86.9762 29.0059C88.1602 29.6592 89.5464 30 91.1059 30C92.8964 30 94.427 29.6308 95.6399 28.9491L95.6688 28.9207V25.5124L95.5244 25.626C94.9757 26.0237 94.3404 26.3645 93.705 26.5633C93.0408 26.7905 92.4343 26.9041 91.9145 26.9041C90.4128 26.9041 89.2287 26.4781 88.3912 25.5408C87.5249 24.632 87.0917 23.3822 87.0917 21.8201C87.0917 20.2012 87.5249 18.9231 88.4201 17.9858C89.3154 17.0485 90.4994 16.5657 91.9434 16.5657C93.1563 16.5657 94.3981 16.9633 95.5244 17.7586L95.6688 17.8722V14.2651L95.6399 14.2367C95.149 14.0379 94.6003 13.8107 93.8494 13.6686ZM106.239 13.555C105.314 13.555 104.448 13.8391 103.697 14.4355C103.062 14.9467 102.629 15.6852 102.253 16.5657H102.224V13.8107H98.4701V29.5456H102.224V21.5077C102.224 20.1444 102.513 19.0083 103.149 18.1846C103.784 17.3325 104.592 16.9065 105.574 16.9065C105.921 16.9065 106.267 16.9917 106.701 17.0485C107.105 17.1621 107.394 17.2757 107.596 17.4178L107.74 17.5314V13.8391L107.654 13.8107C107.394 13.6402 106.874 13.555 106.239 13.555ZM116.462 13.4698C113.834 13.4698 111.726 14.2367 110.253 15.742C108.751 17.2473 108.029 19.3207 108.029 21.9337C108.029 24.3763 108.78 26.3645 110.224 27.813C111.668 29.2331 113.632 29.9716 116.086 29.9716C118.657 29.9716 120.707 29.2047 122.18 27.671C123.682 26.1373 124.404 24.0923 124.404 21.5645C124.404 19.0651 123.711 17.0769 122.295 15.6284C120.938 14.1799 118.945 13.4698 116.462 13.4698ZM119.465 25.5692C118.772 26.4497 117.675 26.8757 116.317 26.8757C114.96 26.8757 113.863 26.4497 113.083 25.5124C112.303 24.632 111.928 23.3538 111.928 21.7349C111.928 20.0592 112.332 18.7811 113.083 17.8722C113.863 16.9633 114.931 16.5089 116.289 16.5089C117.617 16.5089 118.657 16.9349 119.408 17.8154C120.158 18.6959 120.563 19.974 120.563 21.6497C120.505 23.3538 120.187 24.6888 119.465 25.5692ZM132.779 20.3432C131.595 19.8604 130.844 19.4911 130.497 19.1787C130.208 18.8947 130.064 18.497 130.064 17.9858C130.064 17.5598 130.237 17.1337 130.67 16.8497C131.104 16.5657 131.595 16.4237 132.317 16.4237C132.952 16.4237 133.616 16.5373 134.251 16.7077C134.887 16.8781 135.464 17.1337 135.926 17.4746L136.071 17.5882V14.1231L135.984 14.0947C135.551 13.9243 134.973 13.7538 134.28 13.6118C133.587 13.4982 132.952 13.4414 132.432 13.4414C130.642 13.4414 129.169 13.8675 128.014 14.8047C126.858 15.6852 126.31 16.8781 126.31 18.2698C126.31 19.0083 126.425 19.6615 126.685 20.2012C126.945 20.7408 127.32 21.2521 127.84 21.6781C128.36 22.0757 129.111 22.5302 130.151 22.9562C131.017 23.3254 131.681 23.6095 132.085 23.8367C132.49 24.0639 132.75 24.3195 132.952 24.5183C133.096 24.7456 133.183 25.0296 133.183 25.3988C133.183 26.4497 132.374 26.9609 130.728 26.9609C130.093 26.9609 129.429 26.8473 128.649 26.5917C127.869 26.3361 127.147 25.9669 126.541 25.5408L126.396 25.4272V29.0343L126.483 29.0627C127.032 29.3183 127.696 29.4888 128.504 29.6876C129.313 29.8296 130.035 29.9432 130.67 29.9432C132.605 29.9432 134.194 29.5172 135.32 28.5799C136.475 27.671 137.082 26.5065 137.082 25.0012C137.082 23.9503 136.793 23.013 136.157 22.303C135.32 21.6213 134.28 20.9112 132.779 20.3432ZM146.987 13.4698C144.359 13.4698 142.251 14.2367 140.778 15.742C139.305 17.2473 138.554 19.3207 138.554 21.9337C138.554 24.3763 139.305 26.3645 140.749 27.813C142.193 29.2331 144.157 29.9716 146.612 29.9716C149.182 29.9716 151.232 29.2047 152.705 27.671C154.207 26.1373 154.929 24.0923 154.929 21.5645C154.929 19.0651 154.236 17.0769 152.821 15.6284C151.463 14.1799 149.471 13.4698 146.987 13.4698ZM149.962 25.5692C149.269 26.4497 148.171 26.8757 146.814 26.8757C145.428 26.8757 144.359 26.4497 143.579 25.5124C142.8 24.632 142.424 23.3538 142.424 21.7349C142.424 20.0592 142.829 18.7811 143.579 17.8722C144.359 16.9633 145.428 16.5089 146.785 16.5089C148.085 16.5089 149.153 16.9349 149.904 17.8154C150.655 18.6959 151.059 19.974 151.059 21.6497C151.059 23.3538 150.684 24.6888 149.962 25.5692ZM175 16.8497V13.8107H171.217V9.15266L171.101 9.18106L167.52 10.232L167.434 10.2604V13.8107H161.773V11.8225C161.773 10.9136 162.004 10.2035 162.409 9.74911C162.813 9.29467 163.419 9.06746 164.17 9.06746C164.69 9.06746 165.239 9.18107 165.845 9.43669L165.99 9.52189V6.31243L165.903 6.28402C165.383 6.11361 164.69 6 163.795 6C162.669 6 161.687 6.25562 160.791 6.68166C159.896 7.1645 159.232 7.81775 158.741 8.69822C158.25 9.5503 157.99 10.516 157.99 11.6237V13.8107H155.362V16.8213H157.99V29.5456H161.773V16.8497H167.434V24.9444C167.434 28.2675 169.022 29.9432 172.199 29.9432C172.719 29.9432 173.267 29.858 173.787 29.7728C174.336 29.6592 174.74 29.5172 174.971 29.4036L175 29.3751V26.3361L174.856 26.4497C174.625 26.5917 174.422 26.7053 174.076 26.7905C173.787 26.8757 173.527 26.9041 173.325 26.9041C172.574 26.9041 172.054 26.7337 171.679 26.3077C171.332 25.9101 171.159 25.2568 171.159 24.2911V16.8497H175Z" fill="#737373"/>
<path d="M0 0H18V18H0V0Z" fill="#F25022"/>
<path d="M20 0H38V18H20V0Z" fill="#7FBA00"/>
<path d="M0 19H18V37H0V19Z" fill="#00A4EF"/>
<path d="M20 19H38V37H20V19Z" fill="#FFB900"/>
</svg>
