<svg width="514" height="353" viewBox="0 0 514 353" fill="none" xmlns="http://www.w3.org/2000/svg">
<path d="M325.801 143.489C327.004 143.489 327.979 142.514 327.979 141.311C327.979 140.108 327.004 139.133 325.801 139.133C324.598 139.133 323.623 140.108 323.623 141.311C323.623 142.514 324.598 143.489 325.801 143.489Z" fill="#DEE5FF"/>
<path d="M343.642 141.311C343.642 142.525 342.658 143.489 341.464 143.489C340.249 143.489 339.286 142.504 339.286 141.311C339.286 140.117 340.27 139.133 341.464 139.133C342.679 139.133 343.642 140.117 343.642 141.311Z" fill="#DEE5FF"/>
<path d="M357.127 143.489C358.33 143.489 359.305 142.514 359.305 141.311C359.305 140.108 358.33 139.133 357.127 139.133C355.924 139.133 354.949 140.108 354.949 141.311C354.949 142.514 355.924 143.489 357.127 143.489Z" fill="#DEE5FF"/>
<path d="M374.968 141.311C374.968 142.525 373.983 143.489 372.79 143.489C371.575 143.489 370.612 142.504 370.612 141.311C370.612 140.117 371.596 139.133 372.79 139.133C374.004 139.133 374.968 140.117 374.968 141.311Z" fill="#DEE5FF"/>
<path d="M325.801 155.885C327.004 155.885 327.979 154.91 327.979 153.707C327.979 152.504 327.004 151.529 325.801 151.529C324.598 151.529 323.623 152.504 323.623 153.707C323.623 154.91 324.598 155.885 325.801 155.885Z" fill="#DEE5FF"/>
<path d="M343.642 153.707C343.642 154.922 342.658 155.885 341.464 155.885C340.249 155.885 339.286 154.901 339.286 153.707C339.286 152.513 340.27 151.529 341.464 151.529C342.679 151.529 343.642 152.513 343.642 153.707Z" fill="#DEE5FF"/>
<path d="M357.127 155.885C358.33 155.885 359.305 154.91 359.305 153.707C359.305 152.504 358.33 151.529 357.127 151.529C355.924 151.529 354.949 152.504 354.949 153.707C354.949 154.91 355.924 155.885 357.127 155.885Z" fill="#DEE5FF"/>
<path d="M374.967 153.707C374.967 154.922 373.983 155.885 372.79 155.885C371.575 155.885 370.612 154.901 370.612 153.707C370.612 152.514 371.596 151.53 372.79 151.53C374.004 151.53 374.967 152.514 374.967 153.707Z" fill="#DEE5FF"/>
<path d="M325.801 168.281C327.004 168.281 327.979 167.306 327.979 166.103C327.979 164.901 327.004 163.926 325.801 163.926C324.598 163.926 323.623 164.901 323.623 166.103C323.623 167.306 324.598 168.281 325.801 168.281Z" fill="#DEE5FF"/>
<path d="M343.642 166.103C343.642 167.318 342.658 168.281 341.464 168.281C340.249 168.281 339.286 167.297 339.286 166.103C339.286 164.91 340.27 163.926 341.464 163.926C342.679 163.926 343.642 164.91 343.642 166.103Z" fill="#DEE5FF"/>
<path d="M357.127 168.281C358.33 168.281 359.305 167.306 359.305 166.103C359.305 164.901 358.33 163.926 357.127 163.926C355.924 163.926 354.949 164.901 354.949 166.103C354.949 167.306 355.924 168.281 357.127 168.281Z" fill="#DEE5FF"/>
<path d="M374.967 166.103C374.967 167.318 373.983 168.281 372.79 168.281C371.575 168.281 370.612 167.297 370.612 166.103C370.612 164.91 371.596 163.926 372.79 163.926C374.004 163.926 374.967 164.91 374.967 166.103Z" fill="#DEE5FF"/>
<path d="M325.801 180.677C327.004 180.677 327.979 179.702 327.979 178.5C327.979 177.297 327.004 176.322 325.801 176.322C324.598 176.322 323.623 177.297 323.623 178.5C323.623 179.702 324.598 180.677 325.801 180.677Z" fill="#DEE5FF"/>
<path d="M343.642 178.5C343.642 179.714 342.658 180.677 341.464 180.677C340.249 180.677 339.286 179.693 339.286 178.5C339.286 177.285 340.27 176.322 341.464 176.322C342.679 176.322 343.642 177.285 343.642 178.5Z" fill="#DEE5FF"/>
<path d="M357.127 180.677C358.33 180.677 359.305 179.702 359.305 178.5C359.305 177.297 358.33 176.322 357.127 176.322C355.924 176.322 354.949 177.297 354.949 178.5C354.949 179.702 355.924 180.677 357.127 180.677Z" fill="#DEE5FF"/>
<path d="M374.968 178.5C374.968 179.714 373.983 180.677 372.79 180.677C371.575 180.677 370.612 179.693 370.612 178.5C370.612 177.285 371.596 176.322 372.79 176.322C374.004 176.322 374.968 177.285 374.968 178.5Z" fill="#DEE5FF"/>
<path d="M292.905 53.8457C292.507 53.8457 292.109 53.6154 291.941 53.2175L275.734 16.7615L262.039 19.6302C261.453 19.7559 260.909 19.3789 260.804 18.8136C260.678 18.2482 261.055 17.6828 261.621 17.5781L276.153 14.5419C276.634 14.4372 277.116 14.6884 277.325 15.1491L293.533 51.6052L339.37 42.0357L343.725 6.7523C343.788 6.18692 344.312 5.76813 344.898 5.83095C345.463 5.89377 345.882 6.41726 345.798 7.00357L341.359 43.0408C341.296 43.4805 340.982 43.8365 340.542 43.9412L293.135 53.8248C293.051 53.8248 292.988 53.8457 292.905 53.8457Z" fill="#FF6600" fill-opacity="0.08"/>
<path d="M288.612 43.1455L294.643 56.7144L288.612 43.1455Z" fill="white"/>
<path d="M294.643 57.7616C294.245 57.7616 293.868 57.5313 293.68 57.1334L287.649 43.5645C287.419 43.041 287.649 42.4128 288.172 42.1825C288.696 41.9521 289.324 42.1825 289.554 42.7059L295.585 56.2749C295.815 56.7984 295.585 57.4266 295.062 57.6569C294.936 57.7197 294.789 57.7616 294.643 57.7616Z" fill="#FF6600" fill-opacity="0.08"/>
<path d="M305.615 62.3053C306.515 66.577 303.772 70.7649 299.479 71.6653C295.208 72.5657 291.02 69.8226 290.119 65.53C289.219 61.2583 291.962 57.0704 296.255 56.17C300.526 55.2905 304.714 58.0336 305.615 62.3053Z" fill="white"/>
<path d="M297.867 72.8797C293.721 72.8797 289.994 69.969 289.114 65.7602C288.633 63.4149 289.072 61.0278 290.392 59.0176C291.711 57.0074 293.721 55.6463 296.045 55.1647C298.391 54.6831 300.778 55.1228 302.788 56.442C304.798 57.7612 306.159 59.7714 306.641 62.0957C307.122 64.441 306.683 66.8281 305.363 68.8383C304.044 70.8485 302.034 72.2096 299.71 72.6912C299.082 72.8168 298.474 72.8797 297.867 72.8797ZM297.888 57.0702C297.427 57.0702 296.946 57.1121 296.464 57.2168C294.663 57.5937 293.135 58.6407 292.13 60.1693C291.124 61.6979 290.789 63.5406 291.145 65.3204C291.92 69.0268 295.564 71.4139 299.27 70.6391C301.071 70.2622 302.599 69.2152 303.605 67.6866C304.61 66.158 304.945 64.3153 304.589 62.5354C304.212 60.7346 303.165 59.206 301.636 58.2009C300.505 57.4471 299.207 57.0702 297.888 57.0702Z" fill="#FF6600" fill-opacity="0.08"/>
<path d="M347.892 53.4896C348.793 57.7613 346.05 61.9493 341.757 62.8497C337.485 63.7501 333.297 61.007 332.397 56.7143C331.496 52.4426 334.24 48.2547 338.532 47.3543C342.825 46.4748 347.013 49.2179 347.892 53.4896Z" fill="white"/>
<path d="M340.165 64.0642C336.019 64.0642 332.271 61.1536 331.392 56.9447C330.386 52.1077 333.486 47.3543 338.323 46.3492C340.668 45.8676 343.055 46.3074 345.065 47.6266C347.075 48.9458 348.436 50.956 348.918 53.2803C349.4 55.6255 348.96 58.0127 347.641 60.0229C346.322 62.0331 344.311 63.3942 341.987 63.8758C341.38 64.0014 340.773 64.0642 340.165 64.0642ZM340.186 48.2338C339.726 48.2338 339.244 48.2757 338.762 48.3804C335.056 49.1552 332.669 52.7987 333.444 56.505C334.218 60.2113 337.862 62.5775 341.568 61.8237C343.369 61.4468 344.898 60.3998 345.903 58.8712C346.908 57.3426 347.243 55.4999 346.887 53.72C346.51 51.9192 345.463 50.3906 343.934 49.3855C342.783 48.6107 341.484 48.2338 340.186 48.2338Z" fill="#FF6600" fill-opacity="0.08"/>
<path d="M305.615 62.3053L332.417 56.7144L305.615 62.3053Z" fill="white"/>
<path d="M305.615 63.3522C305.133 63.3522 304.693 63.0172 304.589 62.5146C304.463 61.9492 304.84 61.3839 305.405 61.2792L332.208 55.6883C332.774 55.5626 333.339 55.9395 333.444 56.5049C333.569 57.0703 333.192 57.6357 332.627 57.7404L305.824 63.3313C305.761 63.3522 305.678 63.3522 305.615 63.3522Z" fill="#FF6600" fill-opacity="0.08"/>
<path d="M344.06 12.4478L281.115 25.577L344.06 12.4478Z" fill="white"/>
<path d="M281.115 26.6239C280.634 26.6239 280.194 26.2889 280.089 25.7863C279.964 25.2209 280.341 24.6556 280.906 24.5509L343.851 11.4217C344.416 11.296 344.982 11.6729 345.086 12.2383C345.212 12.8037 344.835 13.3691 344.27 13.4738L281.325 26.603C281.262 26.6239 281.199 26.6239 281.115 26.6239Z" fill="#FF6600" fill-opacity="0.08"/>
<path d="M117.346 187.462H209.69C211.952 187.462 213.795 185.619 213.795 183.358V39.7951C213.795 37.5336 211.952 35.6909 209.69 35.6909H117.346C115.085 35.6909 113.242 37.5336 113.242 39.7951V183.379C113.242 185.64 115.064 187.462 117.346 187.462Z" fill="white"/>
<path d="M209.69 188.509H117.346C114.498 188.509 112.195 186.205 112.195 183.358V39.795C112.195 36.9472 114.498 34.6438 117.346 34.6438H209.69C212.538 34.6438 214.842 36.9472 214.842 39.795V183.379C214.842 186.205 212.517 188.509 209.69 188.509ZM117.346 36.7378C115.671 36.7378 114.289 38.0989 114.289 39.795V183.379C114.289 185.075 115.671 186.436 117.346 186.436H209.69C211.366 186.436 212.748 185.075 212.748 183.379V39.795C212.748 38.0989 211.366 36.7378 209.69 36.7378H117.346Z" fill="#C9D5FF"/>
<path d="M161.989 123.491C149.509 123.365 139.312 133.374 139.165 145.834C139.039 158.314 149.049 168.511 161.508 168.658C173.988 168.784 184.185 158.774 184.332 146.315C184.479 133.835 174.469 123.617 161.989 123.491Z" fill="#FF6600" fill-opacity="0.08"/>
<path d="M161.068 147.3L161.361 119.848C176.27 120.287 188.164 132.579 188.017 147.572L161.068 147.3Z" fill="#FF6600" fill-opacity="0.08"/>
<path d="M160.21 148.137L160.524 118.989L161.382 119.01C176.689 119.45 189.002 132.265 188.855 147.593V148.43L160.21 148.137ZM161.906 146.483L187.138 146.755C186.866 132.998 175.894 121.586 162.178 120.748L161.906 146.483Z" fill="white"/>
<path d="M179.898 101.728H196.168V70.1721H179.898V101.728Z" fill="#FF6600" fill-opacity="0.08"/>
<path d="M179.956 94.5732H163.686V101.714H179.956V94.5732Z" fill="#FFEDE0"/>
<path d="M142.72 101.73H158.99V73.9642H142.72V101.73Z" fill="#FF6600" fill-opacity="0.08"/>
<path d="M142.788 85.4854H126.518V101.735H142.788V85.4854Z" fill="#FF6600" fill-opacity="0.12"/>
<path d="M209.46 103.473H117.765V101.379H209.46V102.426V103.473Z" fill="#FF6600" fill-opacity="0.12"/>
<path d="M230.065 344.154V338.73H220.076V341.034V344.154L223.594 346.248H226.714L230.065 344.154Z" fill="#FFCEC8"/>
<path d="M230.065 344.154V348.488L204.686 348.426V348.07C204.686 347.127 205.251 346.311 206.11 345.997L220.077 341.013L222.212 343.589C222.212 343.609 225.5 346.08 230.065 344.154Z" fill="#426BFF"/>
<path d="M204.686 348.426V350.017H230.065V348.489L204.686 348.426Z" fill="#426BFF"/>
<path d="M281.119 342.85H291.296V338.746H281.119V342.85Z" fill="#FFCEC8"/>
<path d="M279.084 347.483H292.926L291.837 342.835H280.739L279.084 347.483Z" fill="#426BFF"/>
<path d="M278.163 349.996H293.868V348.174C293.868 347.483 293.303 346.939 292.633 346.939H279.42C278.729 346.939 278.184 347.504 278.184 348.174V349.996H278.163Z" fill="#426BFF"/>
<path d="M278.163 348.384V349.975L293.847 349.996V348.468L278.163 348.384Z" fill="#426BFF"/>
<path d="M285.764 173.642L294.559 338.731H278.624L262.961 205.428C262.793 203.837 261.495 202.643 259.946 202.643C258.48 202.643 257.223 203.732 256.972 205.219L232.745 338.731H217.773L234.692 173.642H285.764Z" fill="#426BFF"/>
<path d="M258.962 88.2079C264.636 88.2079 269.243 83.6011 269.243 77.9265V68.2942H248.659V77.9265C248.68 83.6011 253.287 88.2079 258.962 88.2079Z" fill="#FFCEC8"/>
<path d="M268.07 78.2613C268.07 79.748 268.342 80.9625 269.787 80.9625C271.232 80.9625 273.305 79.748 273.305 78.2613C273.305 76.7746 272.132 75.5601 270.687 75.5601C269.242 75.5601 268.07 76.7746 268.07 78.2613Z" fill="#FFCEC8"/>
<path d="M250.355 78.2613C250.355 79.748 250.083 80.9625 248.638 80.9625C247.193 80.9625 245.12 79.748 245.12 78.2613C245.12 76.7746 246.293 75.5601 247.738 75.5601C249.183 75.5601 250.355 76.7746 250.355 78.2613Z" fill="#FFCEC8"/>
<path d="M267.275 83.9569L268.887 94.699C268.887 94.699 265.599 100.143 257.998 100.018C250.397 99.8711 249.853 94.699 249.853 94.699L250.334 83.5591L267.275 83.9569Z" fill="#FFCEC8"/>
<path d="M267.275 83.9569C267.275 83.9569 265.578 88.1239 259.38 88.2077C253.182 88.2915 250.355 83.5591 250.355 83.5591C250.355 83.5591 252.072 88.2705 257.265 89.3594C258.752 89.6735 260.302 89.5478 261.767 89.129C263.903 88.5009 266.772 87.0979 267.275 83.9569Z" fill="#FFBDB5"/>
<path d="M269.243 76.0209V69.404C269.243 69.404 265.39 68.7967 262.228 72.0424C259.045 75.288 248.68 71.5608 248.68 71.5608V75.7487C248.68 75.7487 246.418 75.1414 245.497 76.8585C245.497 76.8585 245.937 74.953 244.22 73.3197C242.503 71.6654 243.717 66.1374 248.68 65.4673C248.68 65.4673 246.628 58.4944 252.889 58.2222C259.171 57.9499 261.977 62.3263 261.977 62.3263C261.977 62.3263 264.845 57.3636 268.07 59.3529C271.316 61.3422 274.687 64.3784 272.865 70.2415L271.609 75.7487C271.63 75.7487 270.038 75.1833 269.243 76.0209Z" fill="#384B61"/>
<path d="M232.849 164.47L231.802 185.766L210.926 153.665C208.769 148.598 208.978 142.84 211.491 137.919L228.368 102.091L234.378 136.537L226.442 146.734L232.849 164.47Z" fill="#FF6652"/>
<path d="M267.672 90.6787L293.24 101.672L287.083 197.45H280.11C272.698 197.45 266.751 191.315 267.002 183.902L269.871 93.7568L267.672 90.6787Z" fill="#FF6652"/>
<path d="M250.606 90.6787L248.659 93.7568L252.135 183.819C252.428 191.252 246.46 197.45 239.027 197.45H231.886L228.348 102.07L250.606 90.6787Z" fill="#FF6652"/>
<path d="M250.606 90.6787H267.672L259.191 99.7875L250.606 90.6787Z" fill="#384B61"/>
<path d="M250.607 90.679L259.317 96.0814L267.672 90.679L269.85 93.7571L267.442 178.312H251.612L248.659 93.7571L250.607 90.679Z" fill="#FDA74C"/>
<path d="M267.672 90.6787L268.028 92.2911L259.318 96.0812L250.481 91.8932L250.607 90.6787H267.672Z" fill="#FFCEC8"/>
<path d="M250.188 86.6372L259.401 96.5836L254.774 103.829L248.115 95.2853L246.272 92.6678L250.188 86.6372Z" fill="#FF6652"/>
<path d="M267.798 86.7422L259.255 96.5839L263.882 103.829L270.541 95.2856L272.447 92.5006L267.798 86.7422Z" fill="#FF6652"/>
<path d="M230.965 141.73C230.525 141.73 230.169 141.394 230.127 140.955L228.285 113.712C228.264 113.252 228.599 112.854 229.059 112.812C229.562 112.749 229.918 113.126 229.96 113.587L231.802 140.829C231.823 141.29 231.488 141.688 231.028 141.73C231.007 141.73 230.986 141.73 230.965 141.73Z" fill="#E34934"/>
<path d="M303.438 194.351L305.594 200.78L324.964 200.822L314.766 197.304L312.714 192.278L303.438 194.351Z" fill="#FFCEC8"/>
<path d="M176.459 209.009H338.805C341.087 209.009 342.93 207.166 342.93 204.884C342.93 202.601 341.087 200.759 338.805 200.759H176.459C174.177 200.759 172.334 202.601 172.334 204.884C172.334 207.166 174.177 209.009 176.459 209.009Z" fill="#FF6652"/>
<path d="M177.276 350.436C177.234 350.436 177.171 350.436 177.129 350.415C176.564 350.331 176.166 349.808 176.25 349.221L196.477 209.449C196.561 208.883 197.106 208.465 197.671 208.569C198.236 208.653 198.634 209.177 198.55 209.763L178.323 349.535C178.239 350.059 177.799 350.436 177.276 350.436Z" fill="#426BFF"/>
<path d="M342.762 351.211C342.26 351.211 341.82 350.855 341.736 350.331L319.037 209.784C318.954 209.218 319.331 208.674 319.896 208.59C320.482 208.486 321.006 208.883 321.089 209.449L343.788 349.996C343.872 350.561 343.495 351.106 342.93 351.19C342.888 351.211 342.825 351.211 342.762 351.211Z" fill="#426BFF"/>
<path d="M307.521 153.435C306.704 146.797 293.24 101.672 293.24 101.672L286.916 136.537L292.36 155.676L301.699 195.901L315.834 193.702L307.521 153.435Z" fill="#FF6652"/>
<path d="M289.052 140.096C289.01 140.096 288.989 140.096 288.968 140.096C288.507 140.054 288.172 139.636 288.235 139.175L291.062 113.566C291.104 113.105 291.565 112.77 291.983 112.833C292.444 112.875 292.779 113.293 292.716 113.754L289.848 139.363C289.827 139.782 289.471 140.096 289.052 140.096Z" fill="#E34934"/>
<path d="M276.132 200.822H257.412V197.262H272.572C274.54 197.241 276.132 198.853 276.132 200.822Z" fill="#293545"/>
<path d="M259.673 200.821H205.649L197.063 173.746C196.289 171.338 198.089 168.867 200.623 168.867H246.795C248.429 168.867 249.873 169.914 250.355 171.485L259.673 200.821Z" fill="#293545"/>
<path d="M222.966 186.729C223.552 188.425 225.29 189.368 226.84 188.823C228.389 188.279 229.185 186.478 228.599 184.782C228.012 183.086 226.274 182.143 224.725 182.688C223.175 183.232 222.401 185.033 222.966 186.729Z" fill="#44576E"/>
<path d="M112.153 331.736L120.382 345.87L125.45 345.996L128.905 348.006C129.282 348.216 129.533 348.614 129.575 349.032C129.638 349.681 129.177 350.184 128.549 350.163L119.587 349.933L113.221 340.175C113.221 340.175 111.881 339.295 111.776 340.635C111.692 341.703 112.299 346.792 112.551 348.865C112.614 349.346 112.299 349.744 111.86 349.723C111.441 349.702 111.064 349.346 111.001 348.886L109.766 339.547C109.766 339.547 106.876 333.181 112.153 331.736Z" fill="#FF6652"/>
<path d="M120.383 345.871L125.45 345.996L120.425 323.842L112.154 331.736L120.383 345.871Z" fill="#FFCEC8"/>
<path d="M84.0938 246.449C85.1407 250.155 105.473 308.347 112.153 331.736L120.864 325.789C120.864 325.789 107.986 247.056 107.567 246.323L84.0938 246.449Z" fill="#FFCEC8"/>
<path d="M73.6658 331.674L81.7904 345.871L86.8578 346.038L90.2919 348.069C90.6689 348.3 90.9201 348.677 90.9411 349.095C91.0039 349.745 90.5432 350.247 89.915 350.226L80.9528 349.912L74.65 340.112C74.65 340.112 73.3098 339.212 73.2051 340.552C73.1214 341.62 73.6868 346.708 73.9171 348.802C73.9799 349.284 73.6658 349.682 73.2261 349.661C72.8073 349.64 72.4304 349.263 72.3676 348.802L71.1949 339.463C71.1949 339.463 68.3681 333.077 73.6658 331.674Z" fill="#FF6652"/>
<path d="M81.7694 345.871L86.8369 346.038L83.2562 323.842L73.6658 331.673L81.7694 345.871Z" fill="#FFCEC8"/>
<path d="M84.3242 281.293C84.3451 281.251 84.3451 281.209 84.3451 281.188C84.2823 264.687 89.6638 239.706 84.8058 235.791L63.4473 246.198C63.6357 248.019 65.5622 262.468 67.8027 279.701C67.8027 279.806 67.8027 279.89 67.8027 279.994L84.3032 281.355C84.3242 281.313 84.3242 281.313 84.3242 281.293Z" fill="#FFCEC8"/>
<path d="M83.2562 323.842C84.5544 299.029 83.2771 301.29 84.4707 279.701L67.9073 280.12C69.2475 299.029 73.0795 319.026 73.6448 331.674L83.2562 323.842Z" fill="#FFCEC8"/>
<path d="M52.4122 265.839C56.6839 260.855 56.0138 256.102 57.5424 249.192C60.5368 235.707 60.5996 221.803 61.3953 208.004C62.191 194.225 64.1175 180.07 70.9857 168.092C71.572 167.066 72.2421 166.019 73.2891 165.454C74.6292 164.742 76.2625 164.972 77.7492 165.245C82.5444 166.103 96.0505 167.904 96.0505 167.904C96.0505 167.904 99.5265 195.942 102.332 205.595C102.332 205.595 112.028 235.77 113.724 256.563C113.724 256.563 100.469 249.527 73.7916 264.687C73.7916 264.687 65.4995 268.247 57.2283 266.949L52.4122 265.839Z" fill="#FF6652"/>
<path d="M79.7596 261.546L83.0681 250.825L85.0992 262.007L79.7596 261.546Z" fill="#FFCEC8"/>
<path d="M99.7986 87.1188C98.5422 83.5172 97.0974 82.2398 96.3435 80.7322L80.1571 81.0463L78.126 94.4686L75.2782 113.817L88.889 114.005L89.3916 105.839C89.3916 105.839 89.4963 105.86 89.6638 105.902C90.7317 106.216 91.8624 106.279 92.9304 106.551C94.1239 106.844 95.2966 107.242 96.532 107.326C96.888 107.347 97.2649 107.347 97.558 107.137C97.7465 106.991 97.8512 106.76 97.9559 106.53C99.0448 104.101 99.7358 101.4 99.8614 98.7194C100.05 94.6361 99.7986 87.1188 99.7986 87.1188Z" fill="#FFCEC8"/>
<path d="M85.1829 96.8766C83.5496 97.3792 82.0838 97.2745 81.4766 95.3271C80.8693 93.3797 81.3719 90.3225 83.0052 89.8199C84.6385 89.3174 86.4393 90.49 87.0465 92.4374C87.6538 94.3848 86.8162 96.3741 85.1829 96.8766Z" fill="#FFCEC8"/>
<path d="M74.2522 88.438C74.2522 88.438 73.8544 99.3476 62.526 106.865C51.2186 114.382 52.4121 134.694 70.4412 137.5L70.0643 119.848C70.0643 119.848 71.4254 113.963 75.4668 112.54C75.4668 112.54 83.1726 110.843 83.7379 100.311C83.7379 100.311 82.5444 95.8088 87.3396 94.3011C92.1557 92.7934 94.9197 88.773 94.3125 83.8103L84.1567 86.2603L74.2522 88.438Z" fill="#FF6652"/>
<path d="M69.6869 121.523L71.0061 149.687L66.3575 168.763L96.0709 167.925C95.8406 162.439 99.0234 140.327 99.0234 140.327L100.51 139.175C102.332 137.772 103.861 133.417 103.861 133.417L93.9351 120.497C93.9351 120.497 91.3176 116.246 86.5224 116.707L69.6869 121.523Z" fill="#384B61"/>
<path d="M88.8472 113.607L93.9564 120.476C93.9564 120.476 89.8941 123.554 86.5438 116.686C86.5438 116.686 85.8737 114.801 84.2195 113.859L88.8472 113.607Z" fill="#FFCEC8"/>
<path d="M125.387 141.562L122.832 136.537L89.4963 153.33L91.7578 161.078C92.5745 163.905 95.9458 165.036 98.312 163.298L125.387 141.562Z" fill="#FFCEC8"/>
<path d="M83.8006 136.013C82.7118 135.971 81.7695 135.741 80.6806 135.615C77.1209 135.196 80.0943 137.688 77.3512 140.075L92.6581 162.753L105.389 158.146L92.6372 133.668C89.6219 135.364 87.0672 136.139 83.8006 136.013Z" fill="#FFCEC8"/>
<path d="M76.4091 112.184C72.975 113.021 69.8969 116.162 69.6666 119.827C69.5409 121.753 70.0435 123.679 70.546 125.543C71.5721 129.354 72.5981 133.144 73.6242 136.955C74.1477 138.861 74.6502 140.787 75.1528 142.693C75.2993 143.216 76.1998 145.205 75.8438 145.645C78.901 141.688 83.738 138.882 88.7636 139.824C89.8524 140.033 91.1298 140.599 92.2186 140.871C96.3647 141.855 95.1502 141.373 98.5634 139.112C96.6369 136.18 98.2074 133.375 96.2809 130.422C94.6267 127.93 92.8887 125.459 91.2135 123.009C88.0307 118.34 85.0154 111.765 78.3147 111.953C77.6655 111.932 77.0164 112.037 76.4091 112.184Z" fill="#384B61"/>
<path d="M97.3487 140.641C97.2858 140.703 97.2021 140.745 97.1183 140.766C96.7833 140.871 96.4273 140.683 96.3226 140.348L92.8466 129.312C91.7578 125.836 90.1035 122.57 87.9677 119.638L85.1827 115.785C84.9733 115.513 85.0361 115.094 85.3293 114.906C85.6015 114.696 85.9993 114.759 86.2087 115.052L88.9937 118.905C91.2133 121.962 92.9094 125.334 94.0611 128.956L97.5371 139.992C97.5999 140.222 97.5162 140.473 97.3487 140.641Z" fill="#212B38"/>
<path d="M74.2521 88.438C74.2521 88.438 73.7077 78.9104 81.8323 76.3767C89.936 73.843 100.322 76.1464 100.05 84.6479C99.7776 93.1704 94.0192 98.8032 83.7378 100.311L76.4089 102.782L74.2521 88.438Z" fill="#FF6652"/>
<path d="M122.833 136.557L125.052 134.024C125.052 134.024 125.471 132.244 127.272 131.301C128.507 130.673 130.392 129.626 131.439 129.04C131.878 128.789 132.423 128.956 132.653 129.396L131.878 130.233L138.474 127.386C138.768 127.26 139.103 127.407 139.186 127.721C139.249 127.951 139.165 128.202 138.956 128.328L134.161 131.113C134.224 131.134 134.601 131.28 134.768 131.72C134.915 132.139 134.747 132.474 134.726 132.537C134.622 132.621 134.496 132.704 134.391 132.788C134.663 132.893 134.852 133.123 134.873 133.395C134.894 133.605 134.789 133.772 134.747 133.814C134.559 134.024 134.391 134.254 134.203 134.463C134.475 134.421 134.747 134.547 134.873 134.798C134.978 135.05 134.936 135.322 134.726 135.51C134.098 136.453 133.47 137.374 132.842 138.316L127.649 140.201L125.387 141.541L122.833 136.557Z" fill="#FFCEC8"/>
<path d="M127.649 132.579C127.586 132.579 127.544 132.558 127.502 132.516C127.418 132.432 127.439 132.307 127.523 132.223C127.565 132.181 128.444 131.406 129.805 130.966C131.083 130.548 131.669 130.108 131.669 130.108C131.753 130.024 131.899 130.045 131.962 130.15C132.025 130.233 132.025 130.38 131.92 130.443C131.899 130.464 131.271 130.924 129.91 131.364C128.633 131.783 127.774 132.516 127.774 132.537C127.753 132.558 127.69 132.579 127.649 132.579Z" fill="#FF9D91"/>
<path d="M132.507 132.39C132.444 132.39 132.36 132.348 132.339 132.286C132.276 132.181 132.297 132.055 132.402 131.992L134.056 130.924C134.161 130.862 134.287 130.883 134.35 130.987C134.412 131.092 134.391 131.218 134.287 131.28L132.632 132.348C132.591 132.39 132.549 132.39 132.507 132.39Z" fill="#FF9D91"/>
<path d="M132.862 134.421C132.799 134.421 132.758 134.4 132.716 134.359C132.632 134.275 132.632 134.149 132.716 134.065L134.244 132.641C134.328 132.558 134.454 132.558 134.537 132.662C134.621 132.746 134.621 132.872 134.537 132.956L133.009 134.379C132.967 134.421 132.904 134.421 132.862 134.421Z" fill="#FF9D91"/>
<path d="M132.842 136.474C132.8 136.474 132.758 136.453 132.716 136.432C132.632 136.369 132.611 136.222 132.674 136.139L134.035 134.38C134.098 134.296 134.224 134.275 134.328 134.338C134.412 134.401 134.433 134.547 134.37 134.631L133.009 136.39C132.967 136.432 132.904 136.474 132.842 136.474Z" fill="#FF9D91"/>
<path d="M357.169 116.476L353.714 110.236L354.07 106.362C354.132 105.65 353.986 104.959 353.63 104.331L351.347 100.395L351.871 111.932L348.562 112.142L346.845 100.143L346.448 100.332C344.668 101.148 343.621 103.012 343.83 104.938L344.144 107.87C344.228 108.687 344.542 109.461 345.024 110.111L348.29 116.246L351.389 123.24L357.169 116.476Z" fill="#FFCEC8"/>
<path d="M352.645 112.12L351.242 96.7926C351.242 95.9969 350.614 95.3268 349.819 95.264L347.997 95.0965C346.992 95.0127 346.154 95.8713 346.301 96.8764L348.541 112.162L352.645 112.12Z" fill="#384B61"/>
<path d="M390.378 144.41L382.421 152.388C380.704 154.105 378.526 155.256 376.181 155.696C372.349 156.408 368.413 155.194 365.628 152.388L365.209 151.969C364.204 150.964 363.387 149.812 362.78 148.514L346.3 117.523L355.807 113.419L374.276 137.604L385.416 124.119C385.437 124.14 390.315 139.426 390.378 144.41Z" fill="#384B61"/>
<path d="M380.809 93.6521C381.919 92.5004 382.212 90.909 382.233 89.6945C382.149 89.3176 382.065 88.9616 381.981 88.5638C379.95 85.4437 380.579 82.6378 380.579 82.6378L382.17 78.1986L401.204 74.6179C402.419 75.7696 404.513 88.9407 404.513 88.9407L408.952 106.007L394.378 108.75L393.624 100.625C393.624 100.625 388.577 102.154 388.033 102.321C384.871 103.263 383.74 95.9136 383.678 95.6623V95.7042C380.516 96.0602 380.809 93.6521 380.809 93.6521Z" fill="#FFCEC8"/>
<path d="M397.393 93.2541C399.529 93.8404 401.435 93.652 402.126 91.1183C402.838 88.5845 402.063 84.6269 399.948 84.0406C397.812 83.4543 395.53 85.0248 394.818 87.5794C394.106 90.1341 395.257 92.6678 397.393 93.2541Z" fill="#FFCEC8"/>
<path d="M389.855 84.8782C388.557 83.4543 387.908 81.4441 388.138 79.5386C386.84 81.0672 385.102 82.198 383.175 82.7424C380.223 83.58 377.773 82.1351 377.019 79.1408C376.496 77.0049 377.417 74.6806 378.987 73.152C380.579 71.6234 382.715 70.8068 384.892 70.4089C386.379 70.1367 387.929 70.032 389.353 69.4666C391.007 68.7965 391.782 67.3517 393.038 66.1791C395.949 63.436 401.037 63.8757 403.906 66.6607C406.774 69.4457 407.507 74.0105 406.293 77.8216C406.083 78.4916 405.811 79.1408 405.769 79.8527C405.727 80.5647 405.958 81.3185 406.523 81.6954C407.445 82.3027 408.931 81.842 409.58 82.7214C410.104 83.4334 409.622 84.4594 408.952 85.0248C408.282 85.5902 407.424 85.988 406.942 86.7209C406.356 87.6004 406.481 88.8777 407.235 89.6316C407.989 90.3854 409.266 90.4901 410.146 89.8828C410.9 92.1862 409.455 94.9712 407.151 95.7041C404.827 96.437 402.063 94.9502 401.372 92.6259C401.016 91.4324 401.163 90.1341 401.016 88.8777C400.869 87.6423 400.262 86.2812 399.069 85.9043C397.414 85.3599 396.221 86.9722 394.65 87.0769C392.912 87.1816 390.965 86.0927 389.855 84.8782Z" fill="#384B61"/>
<path d="M384.536 94.5945C384.536 94.5945 384.557 94.6154 384.578 94.6782C384.683 94.9086 384.83 95.4949 384.851 96.3115L385.416 96.6675L386.107 96.0184L384.536 94.5945Z" fill="#FFCEC8"/>
<path d="M471.98 329.433L463.688 316.262L453.218 323.549L463.227 337.642L471.98 329.433Z" fill="#FFCEC8"/>
<path d="M466.745 321.099L471.98 329.433L463.227 337.642L457.427 329.475L466.745 321.099Z" fill="#FFCEC8"/>
<path d="M453.26 350.017C453.763 350.247 454.349 350.206 454.789 349.87L472.86 336.469L473.006 336.343C473.656 335.799 474.074 335.024 474.179 334.187C474.263 333.412 474.053 332.616 473.635 331.967L472.232 329.894L470.368 326.983C470.368 326.983 469.468 332.993 466.473 331.171C463.353 329.287 460.757 334.187 460.757 334.187L452.486 348.237C452.255 348.928 452.59 349.703 453.26 350.017Z" fill="#426BFF"/>
<path d="M384.055 184.216C384.055 184.216 409.476 188.027 419.611 183.797L423.861 183.42L433.745 261.107L412.324 272.938L384.055 184.216Z" fill="#293545"/>
<path d="M432.719 259.704L468.609 323.131L454.664 333.558L412.303 272.959L432.719 259.704Z" fill="#293545"/>
<path d="M379.678 328.658L392.849 328.889L393.875 341.474L393.729 343.63L393.247 343.693C392.033 346.059 389.248 347.42 386.505 346.583L381.814 345.18L379.678 328.658Z" fill="#FFCEC8"/>
<path d="M366.528 349.388C366.8 349.891 367.303 350.184 367.868 350.163L391.488 349.807H391.677C392.514 349.744 394.189 349.368 394.776 348.739C395.299 348.153 393.896 340.719 393.896 340.719C393.896 340.719 389.646 345.075 388.284 341.829C386.861 338.479 381.877 340.929 381.877 340.929L366.947 347.483C366.34 347.923 366.151 348.739 366.528 349.388Z" fill="#426BFF"/>
<path d="M423.84 183.442L403.277 243.874L395.99 268.352L371.763 261.4L385.374 170.082C393.268 174.877 412.344 180.384 423.84 183.442Z" fill="#314154"/>
<path d="M395.236 336.888L377.647 337.83L371.784 261.4L395.99 268.352L395.236 336.888Z" fill="#314154"/>
<path d="M387.635 108.833C390.022 106.467 391.383 106.048 394.189 103.766C394.21 103.745 394.21 103.745 394.231 103.724C394.524 103.473 394.818 103.221 395.132 102.991L409.789 103.054C416.951 104.038 423.023 108.938 425.327 115.806C427.253 121.585 426.583 129.249 426.876 138.756C427.609 161.706 433.912 203.669 433.912 203.669C433.912 203.669 410.585 211.228 395.048 201.743C388.515 197.743 387.635 108.833 387.635 108.833Z" fill="#384B61"/>
<path d="M382.171 183.295C385.311 187.965 387.385 190.77 392.075 192.927C388.452 160.827 387.364 133.71 394.734 103.724C383.95 113.712 383.28 129.061 382.15 140.85L382.171 183.295Z" fill="#426BFF"/>
<path d="M410.334 102.342C410.334 102.342 406.021 109.818 396.326 111.241C392.891 111.744 390.274 108.792 392.054 106.362C392.87 105.253 393.478 103.85 395.3 102.216L402.733 99.4524L410.334 102.342Z" fill="#FFCEC8"/>
<path d="M433.096 138.463L426.29 116.078C424.133 110.969 418.417 105.378 412.868 105.232L406.46 108.561L410.9 147.258C411.947 146.064 418.354 141.436 424.238 140.285C429.913 139.175 433.096 138.463 433.096 138.463Z" fill="#384B61"/>
<path d="M409.225 99.4734L411.151 103.724C411.151 103.724 394.232 129.689 394.232 151.53V114.55L394.693 107.954L409.225 99.4734Z" fill="#384B61"/>
<path d="M398.273 113.44L392.954 108.163L409.224 99.4734L410.941 103.263L398.273 113.44Z" fill="white"/>
<path d="M392.954 108.163L392.849 112.016L395.802 110.948L392.954 108.163Z" fill="#384B61"/>
<path d="M389.436 110.09C389.436 110.09 378.632 121.292 374.192 139.3C373.459 142.274 371.47 144.85 368.664 146.085C366.738 146.943 364.393 147.195 361.964 145.687L356.896 148.326L360.958 152.493C360.958 152.493 377.187 155.236 379.511 142.63C381.835 130.024 387.615 115.869 392.871 112.016L389.436 110.09Z" fill="#FF6652"/>
<path d="M392.954 108.163L391.489 107.263L389.437 110.09L388.201 111.618L391.426 113.294L392.85 112.016L392.954 108.163Z" fill="#FF462E"/>
<path d="M403.005 141.269L398.692 151.341L380.244 135.406C379.993 135.113 379.951 134.631 380.118 134.254C380.307 133.794 380.767 133.584 381.144 133.752C380.265 132.998 379.406 132.265 378.527 131.511C378.506 131.511 378.213 130.967 378.401 130.38C378.59 129.878 379.071 129.522 379.574 129.627C379.239 129.375 378.904 129.103 378.569 128.852C378.296 128.349 378.297 127.637 378.632 127.114C378.925 126.59 379.385 126.423 379.909 126.548C380.39 126.946 380.893 127.323 381.354 127.7L384.495 130.171L382.149 126.779C381.793 126.234 381.731 125.69 382.149 125.145C382.568 124.643 383.113 124.643 383.573 125.062C385.751 127.26 388.138 129.061 390.337 131.26L389.499 129.396C389.29 128.998 389.185 128.517 389.206 128.035C389.248 127.323 389.52 126.674 389.939 126.234L392.221 129.92L394.441 133.584C394.902 134.359 395.195 134.317 395.111 135.301L403.005 141.269Z" fill="#FFCEC8"/>
<path d="M389.436 144.85L396.682 134.82L413.412 145.687L411.151 138.212L433.033 138.275C435.315 145.541 436.216 152.681 435.609 159.717C435.546 160.492 435.253 161.245 434.813 161.895C429.389 169.726 418.312 171.003 411.256 164.596L389.436 144.85Z" fill="#384B61"/>
<path d="M389.583 144.577L387.238 142.525L394.986 133.605L396.682 134.819L389.583 144.577Z" fill="white"/>
<path d="M421.809 169.391C425.264 169.391 427.63 168.219 427.798 168.135C428.091 167.988 428.217 167.632 428.07 167.339C427.923 167.046 427.567 166.92 427.274 167.067C427.211 167.109 421.348 169.977 414.794 166.313C408.031 162.544 396.388 150.315 396.263 150.189C396.032 149.959 395.655 149.938 395.425 150.168C395.195 150.399 395.174 150.776 395.404 151.006C395.886 151.509 407.298 163.486 414.229 167.36C416.972 168.93 419.61 169.391 421.809 169.391Z" fill="#212B38"/>
<path d="M414.48 146.672C414.606 146.672 414.732 146.63 414.836 146.546C415.025 146.399 415.129 146.148 415.046 145.897L408.91 124.81C408.827 124.496 408.491 124.308 408.177 124.413C407.863 124.496 407.675 124.831 407.78 125.146L413.475 144.724L398.671 135.385C398.399 135.218 398.022 135.301 397.854 135.573C397.687 135.846 397.77 136.223 398.043 136.39L414.187 146.567C414.271 146.651 414.376 146.672 414.48 146.672Z" fill="#212B38"/>
<path d="M355.828 113.44L354.76 112.163L346.322 115.429L347.327 117.104L355.828 113.44Z" fill="white"/>
<path d="M453.198 28.341L406.9 2.50137C401.351 -0.597708 394.337 1.39156 391.237 6.94059L381.145 25.0116C378.045 30.5606 380.035 37.5754 385.584 40.6745L413.936 56.5049L415.674 65.2786C416.114 67.4564 418.375 68.7127 420.448 67.938L428.824 64.8179L431.881 66.5141C437.43 69.6131 444.445 67.6239 447.544 62.0748L457.637 44.0039C460.736 38.4339 458.747 31.44 453.198 28.341Z" fill="white"/>
<path d="M419.213 69.1944C418.438 69.1944 417.664 69.006 416.952 68.6081C415.758 67.938 414.92 66.8073 414.669 65.4671L413.015 57.175L385.081 41.5959C379.03 38.2246 376.852 30.5606 380.244 24.5091L390.337 6.4381C393.709 0.386526 401.372 -1.7912 407.424 1.60103L453.743 27.4406C456.674 29.0739 458.789 31.7542 459.71 34.9789C460.632 38.2036 460.234 41.5959 458.601 44.5274L448.508 62.5984C445.136 68.65 437.473 70.8277 431.421 67.4355L428.783 65.9697L420.846 68.9222C420.302 69.1106 419.758 69.1944 419.213 69.1944ZM401.31 2.08264C397.645 2.08264 394.064 4.0091 392.159 7.44321L382.066 25.5142C379.26 30.5606 381.061 36.9473 386.107 39.7532L414.46 55.5836C414.732 55.7302 414.92 56.0024 414.983 56.2956L416.721 65.0693C416.868 65.8022 417.329 66.4304 417.978 66.7863C418.627 67.1423 419.402 67.2051 420.093 66.9539L428.468 63.8338C428.762 63.7291 429.076 63.7501 429.348 63.8967L432.405 65.5928C437.452 68.3987 443.838 66.5979 446.644 61.5514L456.737 43.4805C458.098 41.0305 458.433 38.2246 457.658 35.5234C456.905 32.8431 455.125 30.6025 452.696 29.2414L406.377 3.40184C404.786 2.50144 403.027 2.08264 401.31 2.08264Z" fill="#FF6600" fill-opacity="0.08"/>
<path d="M402.168 15.4629L443.901 38.7479L402.168 15.4629Z" fill="white"/>
<path d="M443.901 39.7949C443.733 39.7949 443.545 39.753 443.398 39.6692L401.666 16.3633C401.163 16.0911 400.975 15.442 401.268 14.9394C401.54 14.4369 402.189 14.2484 402.692 14.5416L444.424 37.8265C444.927 38.0987 445.115 38.7479 444.822 39.2504C444.613 39.5855 444.257 39.7949 443.901 39.7949Z" fill="#FF6600" fill-opacity="0.08"/>
<path d="M398.692 21.6819L440.425 44.9668L398.692 21.6819Z" fill="white"/>
<path d="M440.425 46.0139C440.257 46.0139 440.069 45.972 439.922 45.8883L398.189 22.6033C397.687 22.3311 397.498 21.682 397.791 21.1794C398.064 20.6769 398.713 20.4884 399.215 20.7816L440.948 44.0665C441.451 44.3387 441.639 44.9879 441.346 45.4904C441.137 45.8254 440.781 46.0139 440.425 46.0139Z" fill="#FF6600" fill-opacity="0.08"/>
<path d="M395.216 27.9011L420.029 41.7423L395.216 27.9011Z" fill="white"/>
<path d="M420.03 42.7893C419.862 42.7893 419.674 42.7475 419.527 42.6637L394.713 28.8225C394.211 28.5503 394.022 27.9012 394.316 27.3986C394.588 26.8961 395.237 26.7076 395.74 27.0008L420.553 40.8419C421.056 41.1142 421.244 41.7633 420.951 42.2658C420.742 42.6009 420.386 42.7893 420.03 42.7893Z" fill="#FF6600" fill-opacity="0.08"/>
<path d="M512.813 352.195H1.04699C0.460674 352.195 0 351.734 0 351.148C0 350.561 0.460674 350.101 1.04699 350.101H512.813C513.4 350.101 513.86 350.561 513.86 351.148C513.86 351.734 513.4 352.195 512.813 352.195Z" fill="#FF6600" fill-opacity="0.08"/>
</svg>
