<svg width="70" height="70" viewBox="0 0 70 70" fill="none" xmlns="http://www.w3.org/2000/svg">
<rect width="70" height="70" rx="8" fill="#FFE1E9"/>
<path fill-rule="evenodd" clip-rule="evenodd" d="M34.2776 23C34.1361 23 33.7877 23.0388 33.6025 23.4091L30.7621 29.0884C30.3125 29.986 29.4461 30.6097 28.4443 30.7528L22.0852 31.6691C21.6652 31.7297 21.5221 32.0408 21.4785 32.1715C21.4397 32.2975 21.3774 32.618 21.6668 32.8948L26.265 37.3126C26.9977 38.0173 27.3305 39.0331 27.1563 40.0271L26.0736 46.2648C26.0068 46.6553 26.251 46.8824 26.3599 46.9602C26.475 47.0473 26.783 47.22 27.1641 47.0208L32.8496 44.0731C33.7456 43.6111 34.8128 43.6111 35.7057 44.0731L41.3897 47.0193C41.7723 47.2168 42.0803 47.0442 42.197 46.9602C42.3059 46.8824 42.5501 46.6553 42.4832 46.2648L41.3974 40.0271C41.2232 39.0331 41.5561 38.0173 42.2888 37.3126L46.887 32.8948C47.1779 32.618 47.1156 32.296 47.0752 32.1715C47.0332 32.0408 46.8901 31.7297 46.4701 31.6691L40.111 30.7528C39.1108 30.6097 38.2443 29.986 37.7948 29.0868L34.9512 23.4091C34.7676 23.0388 34.4192 23 34.2776 23ZM26.8063 49.4444C26.1639 49.4444 25.5261 49.2422 24.9801 48.844C24.0374 48.1533 23.5754 47.0131 23.7761 45.8651L24.8588 39.6273C24.8992 39.3955 24.8199 39.1606 24.6488 38.9957L20.0505 34.578C19.2043 33.7675 18.901 32.5697 19.2588 31.4575C19.6197 30.3328 20.5748 29.5286 21.7523 29.3606L28.1114 28.4444C28.3572 28.4102 28.5688 28.2593 28.6745 28.0446L31.5165 22.3637C32.0408 21.3168 33.0985 20.6666 34.2776 20.6666C35.4568 20.6666 36.5145 21.3168 37.0388 22.3637L39.8823 28.0431C39.9896 28.2593 40.1996 28.4102 40.4439 28.4444L46.803 29.3606C47.9805 29.5286 48.9356 30.3328 49.2965 31.4575C49.6543 32.5697 49.3494 33.7675 48.5032 34.578L43.905 38.9957C43.7339 39.1606 43.6561 39.3955 43.6965 39.6257L44.7808 45.8651C44.9799 47.0146 44.5179 48.1548 43.5736 48.844C42.617 49.5455 41.371 49.6404 40.3148 49.0897L34.6323 46.1451C34.4099 46.03 34.1439 46.03 33.9214 46.1451L28.239 49.0913C27.7848 49.3277 27.2948 49.4444 26.8063 49.4444Z" fill="#FD346E"/>
</svg>
