<svg width="727" height="390" viewBox="0 0 727 390" fill="none" xmlns="http://www.w3.org/2000/svg">
<path d="M210.393 161.07H14.4814C6.50286 161.07 0 154.564 0 146.582V110.574C0 102.592 6.50286 96.0862 14.4814 96.0862H210.393C218.371 96.0862 224.874 102.592 224.874 110.574V146.582C224.874 154.564 218.371 161.07 210.393 161.07ZM14.4814 98.5885C7.87846 98.5885 2.5011 103.968 2.5011 110.574V146.582C2.5011 153.187 7.87846 158.567 14.4814 158.567H210.393C216.995 158.567 222.373 153.187 222.373 146.582V110.574C222.373 103.968 216.995 98.5885 210.393 98.5885H14.4814Z" fill="#FF6600" fill-opacity="0.08"/>
<path d="M176.403 116.58H68.0549C67.3546 116.58 66.8044 116.029 66.8044 115.329C66.8044 114.628 67.3546 114.077 68.0549 114.077H176.403C177.103 114.077 177.653 114.628 177.653 115.329C177.653 116.029 177.078 116.58 176.403 116.58Z" fill="#FF6600" fill-opacity="0.08"/>
<path d="M176.403 145.03H68.0549C67.3546 145.03 66.8044 144.48 66.8044 143.779C66.8044 143.078 67.3546 142.528 68.0549 142.528H176.403C177.103 142.528 177.653 143.078 177.653 143.779C177.653 144.455 177.078 145.03 176.403 145.03Z" fill="#FF6600" fill-opacity="0.08"/>
<path d="M192.935 130.817H68.0549C67.3546 130.817 66.8044 130.267 66.8044 129.566C66.8044 128.866 67.3546 128.315 68.0549 128.315H192.935C193.635 128.315 194.185 128.866 194.185 129.566C194.185 130.242 193.61 130.817 192.935 130.817Z" fill="#FF6600" fill-opacity="0.08"/>
<path d="M41.0681 144.855C31.5639 144.855 23.8105 137.123 23.8105 127.59C23.8105 118.081 31.5389 110.324 41.0681 110.324C50.5723 110.324 58.3257 118.056 58.3257 127.59C58.3007 137.123 50.5723 144.855 41.0681 144.855ZM41.0681 112.851C32.9395 112.851 26.3116 119.482 26.3116 127.615C26.3116 135.747 32.9395 142.378 41.0681 142.378C49.1966 142.378 55.8246 135.747 55.8246 127.615C55.7996 119.482 49.1966 112.851 41.0681 112.851Z" fill="#FF6600" fill-opacity="0.08"/>
<path d="M39.6424 134.321C39.3423 134.321 39.0172 134.195 38.7921 133.97L30.8135 126.438C30.3133 125.963 30.2883 125.162 30.7635 124.662C31.2387 124.161 32.0391 124.136 32.5393 124.612L39.6174 131.318L49.5718 121.259C50.047 120.758 50.8474 120.758 51.3476 121.259C51.8478 121.734 51.8478 122.535 51.3476 123.035L40.5428 133.945C40.2927 134.195 39.9676 134.321 39.6424 134.321Z" fill="#FF6600" fill-opacity="0.08"/>
<path d="M498.319 203.157H241.331C240.631 203.157 240.081 202.607 240.081 201.906V14.8383C240.081 14.1377 240.631 13.5872 241.331 13.5872H498.319C499.019 13.5872 499.57 14.1377 499.57 14.8383V201.906C499.57 202.607 499.019 203.157 498.319 203.157ZM242.582 200.655H497.069V16.0894H242.582V200.655Z" fill="#FF6600" fill-opacity="0.08"/>
<path d="M278.172 16.0894H270.344C269.644 16.0894 269.093 15.5389 269.093 14.8383V5.17965C269.093 2.32709 271.419 0 274.271 0C277.122 0 279.448 2.32709 279.448 5.17965V14.8383C279.423 15.5389 278.848 16.0894 278.172 16.0894ZM271.569 13.5872H276.897V5.17965C276.897 3.70332 275.696 2.50225 274.221 2.50225C272.745 2.50225 271.544 3.70332 271.544 5.17965V13.5872H271.569Z" fill="#FF6600" fill-opacity="0.08"/>
<path d="M469.331 16.0894H461.503C460.803 16.0894 460.252 15.5389 460.252 14.8383V5.17965C460.252 2.32709 462.578 0 465.43 0C468.281 0 470.607 2.32709 470.607 5.17965V14.8383C470.582 15.5389 470.032 16.0894 469.331 16.0894ZM462.753 13.5872H468.081V5.17965C468.081 3.70332 466.88 2.50225 465.405 2.50225C463.929 2.50225 462.728 3.70332 462.728 5.17965V13.5872H462.753Z" fill="#FF6600" fill-opacity="0.08"/>
<path d="M294.254 66.3095H264.016C263.316 66.3095 262.766 65.759 262.766 65.0584V34.8313C262.766 34.1306 263.316 33.5801 264.016 33.5801H294.254C294.955 33.5801 295.505 34.1306 295.505 34.8313V65.0584C295.505 65.759 294.955 66.3095 294.254 66.3095ZM265.292 63.8073H293.029V36.0824H265.292V63.8073Z" fill="#FF6600" fill-opacity="0.08"/>
<path d="M294.254 96.5617H264.016C263.316 96.5617 262.766 96.0112 262.766 95.3105V65.0584C262.766 64.3578 263.316 63.8073 264.016 63.8073H294.254C294.955 63.8073 295.505 64.3578 295.505 65.0584V95.3105C295.505 96.0112 294.955 96.5617 294.254 96.5617ZM265.292 94.0594H293.029V66.3095H265.292V94.0594Z" fill="#FF6600" fill-opacity="0.08"/>
<path d="M294.254 126.789H264.016C263.316 126.789 262.766 126.238 262.766 125.538V95.3105C262.766 94.6099 263.316 94.0594 264.016 94.0594H294.254C294.955 94.0594 295.505 94.6099 295.505 95.3105V125.563C295.505 126.238 294.955 126.789 294.254 126.789ZM265.292 124.287H293.029V96.5617H265.292V124.287Z" fill="#FF6600" fill-opacity="0.08"/>
<path d="M294.254 157.041H264.016C263.316 157.041 262.766 156.49 262.766 155.79V125.538C262.766 124.837 263.316 124.287 264.016 124.287H294.254C294.955 124.287 295.505 124.837 295.505 125.538V155.79C295.505 156.49 294.955 157.041 294.254 157.041ZM265.292 154.539H293.029V126.789H265.292V154.539Z" fill="#FF6600" fill-opacity="0.08"/>
<path d="M294.254 187.293H264.016C263.316 187.293 262.766 186.743 262.766 186.042V155.79C262.766 155.089 263.316 154.539 264.016 154.539H294.254C294.955 154.539 295.505 155.089 295.505 155.79V186.042C295.505 186.718 294.955 187.293 294.254 187.293ZM265.292 184.791H293.029V157.041H265.292V184.791Z" fill="#FF6600" fill-opacity="0.08"/>
<path d="M324.493 66.3095H294.254C293.554 66.3095 293.004 65.759 293.004 65.0584V34.8313C293.004 34.1306 293.554 33.5801 294.254 33.5801H324.493C325.193 33.5801 325.743 34.1306 325.743 34.8313V65.0584C325.743 65.759 325.168 66.3095 324.493 66.3095ZM295.505 63.8073H323.242V36.0824H295.505V63.8073Z" fill="#FF6600" fill-opacity="0.08"/>
<path d="M354.706 66.3095H324.468C323.767 66.3095 323.217 65.759 323.217 65.0584V34.8313C323.217 34.1306 323.767 33.5801 324.468 33.5801H354.706C355.406 33.5801 355.957 34.1306 355.957 34.8313V65.0584C355.957 65.759 355.406 66.3095 354.706 66.3095ZM325.743 63.8073H353.481V36.0824H325.743V63.8073Z" fill="#FF6600" fill-opacity="0.08"/>
<path d="M384.944 66.3095H354.706C354.006 66.3095 353.455 65.759 353.455 65.0584V34.8313C353.455 34.1306 354.006 33.5801 354.706 33.5801H384.944C385.645 33.5801 386.195 34.1306 386.195 34.8313V65.0584C386.195 65.759 385.645 66.3095 384.944 66.3095ZM355.957 63.8073H383.694V36.0824H355.957V63.8073Z" fill="#FF6600" fill-opacity="0.08"/>
<path d="M415.183 66.3095H384.944C384.244 66.3095 383.694 65.759 383.694 65.0584V34.8313C383.694 34.1306 384.244 33.5801 384.944 33.5801H415.183C415.883 33.5801 416.433 34.1306 416.433 34.8313V65.0584C416.433 65.759 415.858 66.3095 415.183 66.3095ZM386.195 63.8073H413.932V36.0824H386.195V63.8073Z" fill="#FF6600" fill-opacity="0.08"/>
<path d="M445.396 66.3095H415.183C414.482 66.3095 413.932 65.759 413.932 65.0584V34.8313C413.932 34.1306 414.482 33.5801 415.183 33.5801H445.421C446.121 33.5801 446.671 34.1306 446.671 34.8313V65.0584C446.646 65.759 446.096 66.3095 445.396 66.3095ZM416.433 63.8073H444.17V36.0824H416.433V63.8073Z" fill="#FF6600" fill-opacity="0.08"/>
<path d="M475.634 66.3095H445.421C444.721 66.3095 444.17 65.759 444.17 65.0584V34.8313C444.17 34.1306 444.721 33.5801 445.421 33.5801H475.634C476.334 33.5801 476.885 34.1306 476.885 34.8313V65.0584C476.885 65.759 476.309 66.3095 475.634 66.3095ZM446.646 63.8073H474.359V36.0824H446.646V63.8073Z" fill="#FF6600" fill-opacity="0.08"/>
<path d="M324.493 96.5617H294.254C293.554 96.5617 293.004 96.0112 293.004 95.3105V65.0584C293.004 64.3578 293.554 63.8073 294.254 63.8073H324.493C325.193 63.8073 325.743 64.3578 325.743 65.0584V95.3105C325.743 96.0112 325.168 96.5617 324.493 96.5617ZM295.505 94.0594H323.242V66.3095H295.505V94.0594Z" fill="#FF6600" fill-opacity="0.08"/>
<path d="M354.706 96.5617H324.468C323.767 96.5617 323.217 96.0112 323.217 95.3105V65.0584C323.217 64.3578 323.767 63.8073 324.468 63.8073H354.706C355.406 63.8073 355.957 64.3578 355.957 65.0584V95.3105C355.957 96.0112 355.406 96.5617 354.706 96.5617ZM325.743 94.0594H353.481V66.3095H325.743V94.0594Z" fill="#FF6600" fill-opacity="0.08"/>
<path d="M384.944 96.5617H354.706C354.006 96.5617 353.455 96.0112 353.455 95.3105V65.0584C353.455 64.3578 354.006 63.8073 354.706 63.8073H384.944C385.645 63.8073 386.195 64.3578 386.195 65.0584V95.3105C386.195 96.0112 385.645 96.5617 384.944 96.5617ZM355.957 94.0594H383.694V66.3095H355.957V94.0594Z" fill="#FF6600" fill-opacity="0.08"/>
<path d="M415.183 96.5617H384.944C384.244 96.5617 383.694 96.0112 383.694 95.3105V65.0584C383.694 64.3578 384.244 63.8073 384.944 63.8073H415.183C415.883 63.8073 416.433 64.3578 416.433 65.0584V95.3105C416.433 96.0112 415.858 96.5617 415.183 96.5617ZM386.195 94.0594H413.932V66.3095H386.195V94.0594Z" fill="#FF6600" fill-opacity="0.08"/>
<path d="M445.396 96.5617H415.183C414.482 96.5617 413.932 96.0112 413.932 95.3105V65.0584C413.932 64.3578 414.482 63.8073 415.183 63.8073H445.421C446.121 63.8073 446.671 64.3578 446.671 65.0584V95.3105C446.646 96.0112 446.096 96.5617 445.396 96.5617ZM416.433 94.0594H444.17V66.3095H416.433V94.0594Z" fill="#FF6600" fill-opacity="0.08"/>
<path d="M475.634 96.5617H445.421C444.721 96.5617 444.17 96.0112 444.17 95.3105V65.0584C444.17 64.3578 444.721 63.8073 445.421 63.8073H475.634C476.334 63.8073 476.885 64.3578 476.885 65.0584V95.3105C476.885 96.0112 476.309 96.5617 475.634 96.5617ZM446.646 94.0594H474.359V66.3095H446.646V94.0594Z" fill="#FF6600" fill-opacity="0.08"/>
<path d="M324.493 126.789H294.254C293.554 126.789 293.004 126.238 293.004 125.538V95.3105C293.004 94.6099 293.554 94.0594 294.254 94.0594H324.493C325.193 94.0594 325.743 94.6099 325.743 95.3105V125.563C325.743 126.238 325.168 126.789 324.493 126.789ZM295.505 124.287H323.242V96.5617H295.505V124.287Z" fill="#FF6600" fill-opacity="0.08"/>
<path d="M354.706 126.789H324.468C323.767 126.789 323.217 126.238 323.217 125.538V95.3105C323.217 94.6099 323.767 94.0594 324.468 94.0594H354.706C355.406 94.0594 355.957 94.6099 355.957 95.3105V125.563C355.957 126.238 355.406 126.789 354.706 126.789ZM325.743 124.287H353.481V96.5617H325.743V124.287Z" fill="#FF6600" fill-opacity="0.08"/>
<path d="M384.944 126.789H354.706C354.006 126.789 353.455 126.238 353.455 125.538V95.3105C353.455 94.6099 354.006 94.0594 354.706 94.0594H384.944C385.645 94.0594 386.195 94.6099 386.195 95.3105V125.563C386.195 126.238 385.645 126.789 384.944 126.789ZM355.957 124.287H383.694V96.5617H355.957V124.287Z" fill="#FF6600" fill-opacity="0.08"/>
<path d="M415.183 126.789H384.944C384.244 126.789 383.694 126.238 383.694 125.538V95.3105C383.694 94.6099 384.244 94.0594 384.944 94.0594H415.183C415.883 94.0594 416.433 94.6099 416.433 95.3105V125.563C416.433 126.238 415.858 126.789 415.183 126.789ZM386.195 124.287H413.932V96.5617H386.195V124.287Z" fill="#FF6600" fill-opacity="0.08"/>
<path d="M445.396 126.789H415.183C414.482 126.789 413.932 126.238 413.932 125.538V95.3105C413.932 94.6099 414.482 94.0594 415.183 94.0594H445.421C446.121 94.0594 446.671 94.6099 446.671 95.3105V125.563C446.646 126.238 446.096 126.789 445.396 126.789ZM416.433 124.287H444.17V96.5617H416.433V124.287Z" fill="#FF6600" fill-opacity="0.08"/>
<path d="M475.634 126.789H445.421C444.721 126.789 444.17 126.238 444.17 125.538V95.3105C444.17 94.6099 444.721 94.0594 445.421 94.0594H475.634C476.334 94.0594 476.885 94.6099 476.885 95.3105V125.563C476.885 126.238 476.309 126.789 475.634 126.789ZM446.646 124.287H474.359V96.5617H446.646V124.287Z" fill="#FF6600" fill-opacity="0.08"/>
<path d="M324.493 157.041H294.254C293.554 157.041 293.004 156.49 293.004 155.79V125.538C293.004 124.837 293.554 124.287 294.254 124.287H324.493C325.193 124.287 325.743 124.837 325.743 125.538V155.79C325.743 156.49 325.168 157.041 324.493 157.041ZM295.505 154.539H323.242V126.789H295.505V154.539Z" fill="#FF6600" fill-opacity="0.08"/>
<path d="M354.706 157.041H324.468C323.767 157.041 323.217 156.49 323.217 155.79V125.538C323.217 124.837 323.767 124.287 324.468 124.287H354.706C355.406 124.287 355.957 124.837 355.957 125.538V155.79C355.957 156.49 355.406 157.041 354.706 157.041ZM325.743 154.539H353.481V126.789H325.743V154.539Z" fill="#FF6600" fill-opacity="0.08"/>
<path d="M384.944 157.041H354.706C354.006 157.041 353.455 156.49 353.455 155.79V125.538C353.455 124.837 354.006 124.287 354.706 124.287H384.944C385.645 124.287 386.195 124.837 386.195 125.538V155.79C386.195 156.49 385.645 157.041 384.944 157.041ZM355.957 154.539H383.694V126.789H355.957V154.539Z" fill="#FF6600" fill-opacity="0.08"/>
<path d="M415.183 157.041H384.944C384.244 157.041 383.694 156.49 383.694 155.79V125.538C383.694 124.837 384.244 124.287 384.944 124.287H415.183C415.883 124.287 416.433 124.837 416.433 125.538V155.79C416.433 156.49 415.858 157.041 415.183 157.041ZM386.195 154.539H413.932V126.789H386.195V154.539Z" fill="#FF6600" fill-opacity="0.08"/>
<path d="M445.396 157.041H415.183C414.482 157.041 413.932 156.49 413.932 155.79V125.538C413.932 124.837 414.482 124.287 415.183 124.287H445.421C446.121 124.287 446.671 124.837 446.671 125.538V155.79C446.646 156.49 446.096 157.041 445.396 157.041ZM416.433 154.539H444.17V126.789H416.433V154.539Z" fill="#FF6600" fill-opacity="0.08"/>
<path d="M475.634 157.041H445.421C444.721 157.041 444.17 156.49 444.17 155.79V125.538C444.17 124.837 444.721 124.287 445.421 124.287H475.634C476.334 124.287 476.885 124.837 476.885 125.538V155.79C476.885 156.49 476.309 157.041 475.634 157.041ZM446.646 154.539H474.359V126.789H446.646V154.539Z" fill="#FF6600" fill-opacity="0.08"/>
<path d="M324.493 187.243H294.254C293.554 187.243 293.004 186.693 293.004 185.992V155.765C293.004 155.064 293.554 154.514 294.254 154.514H324.493C325.193 154.514 325.743 155.064 325.743 155.765V186.017C325.743 186.693 325.168 187.243 324.493 187.243ZM295.505 184.741H323.242V157.016H295.505V184.741Z" fill="#FF6600" fill-opacity="0.08"/>
<path d="M354.706 187.243H324.468C323.767 187.243 323.217 186.693 323.217 185.992V155.765C323.217 155.064 323.767 154.514 324.468 154.514H354.706C355.406 154.514 355.957 155.064 355.957 155.765V186.017C355.957 186.693 355.406 187.243 354.706 187.243ZM325.743 184.741H353.481V157.016H325.743V184.741Z" fill="#FF6600" fill-opacity="0.08"/>
<path d="M384.944 187.243H354.706C354.006 187.243 353.455 186.693 353.455 185.992V155.765C353.455 155.064 354.006 154.514 354.706 154.514H384.944C385.645 154.514 386.195 155.064 386.195 155.765V186.017C386.195 186.693 385.645 187.243 384.944 187.243ZM355.957 184.741H383.694V157.016H355.957V184.741Z" fill="#FF6600" fill-opacity="0.08"/>
<path d="M369.187 56.9011H282.999C280.323 56.9011 278.172 54.7491 278.172 52.0717C278.172 49.3943 280.323 47.2424 282.999 47.2424H369.187C371.864 47.2424 374.014 49.3943 374.014 52.0717C374.014 54.7491 371.839 56.9011 369.187 56.9011Z" fill="#FF6600" fill-opacity="0.08"/>
<path d="M456.676 116.73H404.903C402.227 116.73 400.076 114.578 400.076 111.9C400.076 109.223 402.227 107.071 404.903 107.071H456.676C459.352 107.071 461.503 109.223 461.503 111.9C461.503 114.578 459.327 116.73 456.676 116.73Z" fill="#FF6600" fill-opacity="0.08"/>
<path d="M335.272 145.631H283.5C280.823 145.631 278.673 143.479 278.673 140.801C278.673 138.124 280.823 135.972 283.5 135.972H335.272C337.949 135.972 340.1 138.124 340.1 140.801C340.1 143.479 337.924 145.631 335.272 145.631Z" fill="#FF6600" fill-opacity="0.08"/>
<path d="M309.361 176.308C311.668 176.308 313.538 174.437 313.538 172.129C313.538 169.822 311.668 167.951 309.361 167.951C307.054 167.951 305.184 169.822 305.184 172.129C305.184 174.437 307.054 176.308 309.361 176.308Z" fill="#FF6600" fill-opacity="0.08"/>
<path d="M472.133 388.424C472.058 388.424 472.008 388.424 471.933 388.399C471.257 388.298 470.782 387.648 470.907 386.972L493.517 247.272C493.617 246.596 494.267 246.121 494.943 246.246C495.618 246.346 496.093 246.997 495.968 247.672L473.358 387.373C473.258 387.998 472.733 388.424 472.133 388.424Z" fill="#FF6652"/>
<path d="M560.772 381.367C560.772 384.57 558.17 387.172 554.969 387.172C551.768 387.172 549.167 384.57 549.167 381.367C549.167 378.164 551.768 375.562 554.969 375.562C558.17 375.562 560.772 378.164 560.772 381.367Z" fill="#FF6652"/>
<path d="M600.589 376.813H552.993C552.293 376.813 551.743 376.263 551.743 375.562C551.743 374.861 552.293 374.311 552.993 374.311H600.589C601.289 374.311 601.84 374.861 601.84 375.562C601.84 376.263 601.264 376.813 600.589 376.813Z" fill="#FF6652"/>
<path d="M558.045 380.817L556.895 374.161H545.49V377.013V380.817L549.917 383.369H553.844L558.045 380.817Z" fill="#FFCEC8"/>
<path d="M558.045 380.817L559.096 386.071L526.106 386.021V385.596C526.106 384.47 526.832 383.444 527.907 383.069L545.465 377.013L548.141 380.166C548.166 380.141 552.318 383.169 558.045 380.817Z" fill="#426BFF"/>
<path d="M526.131 386.021V387.973L559.546 387.923L559.121 386.071L526.131 386.021Z" fill="#426BFF"/>
<path d="M460.778 381.367L464.929 376.313L456.151 368.055L454.325 370.007L451.724 372.785L453.199 377.689L456.051 380.366L460.778 381.367Z" fill="#FFCEC8"/>
<path d="M460.778 381.367L457.526 385.246L434.041 363.326L434.341 363.001C435.116 362.175 436.342 361.925 437.367 362.4L454.325 370.007L454.125 374.136C454.125 374.136 455 379.165 460.778 381.367Z" fill="#426BFF"/>
<path d="M434.016 363.351L432.69 364.752L456.176 386.722L457.501 385.271L434.016 363.351Z" fill="#426BFF"/>
<path d="M537.786 139.876L538.612 153.888C538.812 157.241 541.763 159.768 545.09 159.418C545.315 159.393 545.565 159.368 545.815 159.318L546.715 167.876C546.715 167.876 547.891 173.831 556.82 172.68C565.774 171.504 564.348 165.799 564.348 165.799L562.397 149.709C562.397 149.709 566.749 149.96 567.199 145.305C567.199 145.305 567.224 141.277 561.897 143.229L560.922 135.346C560.922 135.371 542.288 128.44 537.786 139.876Z" fill="#FFCEC8"/>
<path d="M560.922 135.371C560.922 135.371 548.291 144.38 537.786 139.876C537.786 139.876 533.51 137.498 534.785 130.117C534.785 130.117 536.886 122.435 547.741 123.511C547.741 123.511 554.219 124.287 556.07 126.514C556.07 126.514 556.745 123.311 562.197 124.362C562.197 124.362 564.923 124.662 565.799 131.068C566.674 137.498 566.674 143.679 566.674 143.679C566.674 143.679 564.623 142.103 561.922 143.229L560.922 135.371Z" fill="#384B61"/>
<path d="M623.324 271.068L648.51 186.167H569.801L586.483 271.068H623.324Z" fill="#FDA74C"/>
<path d="M586.933 266.99L465.305 377.314L452.674 365.428L518.928 280.627L547.041 266.664L586.933 266.99Z" fill="#293545"/>
<path d="M601.089 246.171L602.215 258.682C602.815 265.338 597.588 271.068 590.91 271.068H545.865L560.146 374.136H538.687L511.15 274.947C508.974 267.09 510.049 258.682 514.126 251.626L517.278 246.146H601.089V246.171Z" fill="#384B61"/>
<path d="M621.323 277.374H546.866L545.865 271.068H623.324L621.323 277.374Z" fill="#FDA74C"/>
<path d="M632.228 388.424C631.628 388.424 631.103 387.998 631.002 387.373L608.167 246.371C608.067 245.695 608.518 245.045 609.193 244.945C609.868 244.845 610.518 245.295 610.619 245.971L633.454 386.972C633.554 387.648 633.103 388.298 632.428 388.399C632.353 388.424 632.303 388.424 632.228 388.424Z" fill="#FF6652"/>
<path d="M546.39 165.599L532.234 167.125C526.932 167.7 522.005 170.128 518.353 173.981C514.851 177.659 512.701 182.414 512.275 187.468L510.825 203.783L508.099 242.292H600.439L598.888 227.804L609.168 225.277C613.795 223.926 617.046 222.45 618.072 217.72C618.622 215.218 618.422 212.616 617.522 210.239L605.291 177.785C603.54 173.105 600.189 169.177 595.862 166.675C592.311 164.623 588.234 163.622 584.132 163.797L564.073 164.648C564.073 164.648 564.223 170.203 555.244 170.503C555.269 170.503 548.141 170.778 546.39 165.599Z" fill="#FF6652"/>
<path d="M648.085 248.198H456.901C454.125 248.198 451.874 245.946 451.874 243.168V242.818C451.874 240.04 454.125 237.788 456.901 237.788H648.085C650.861 237.788 653.112 240.04 653.112 242.818V243.168C653.112 245.946 650.861 248.198 648.085 248.198Z" fill="#426BFF"/>
<path d="M530.959 203.783C530.533 203.783 530.208 203.458 530.208 203.032V185.291C530.208 184.866 530.533 184.541 530.959 184.541C531.384 184.541 531.709 184.866 531.709 185.291V203.032C531.709 203.458 531.384 203.783 530.959 203.783Z" fill="#FF361C"/>
<path d="M545.815 159.343C545.815 159.343 553.594 158.767 557.395 154.313C557.395 154.313 554.569 160.569 546.065 161.795L545.815 159.343Z" fill="#FF9B8F"/>
<path d="M559.621 227.88L555.794 231.283L544.89 232.509L546.54 235.286H562.848L561.672 234.435L559.621 227.88Z" fill="#FFCEC8"/>
<path d="M561.672 235.186C561.347 235.186 561.047 234.986 560.947 234.661L558.371 226.453C558.246 226.103 558.421 225.703 558.771 225.552L591.71 210.539L581.706 182.914C581.556 182.514 581.756 182.088 582.156 181.963C582.556 181.813 582.981 182.013 583.106 182.414L593.336 210.689C593.461 211.064 593.286 211.465 592.936 211.64L559.971 226.653L562.147 233.585L598.713 227.079C599.114 227.004 599.514 227.279 599.589 227.679C599.664 228.08 599.389 228.48 598.988 228.555L561.772 235.186C561.772 235.186 561.722 235.186 561.672 235.186Z" fill="#FF361C"/>
<path d="M576.779 375.962C576.078 375.962 575.528 375.412 575.528 374.711V277.374C575.528 276.673 576.078 276.123 576.779 276.123C577.479 276.123 578.029 276.673 578.029 277.374V374.711C578.029 375.412 577.479 375.962 576.779 375.962Z" fill="#FF6652"/>
<path d="M606.217 381.367C606.217 384.57 603.616 387.172 600.414 387.172C597.213 387.172 594.612 384.57 594.612 381.367C594.612 378.164 597.213 375.562 600.414 375.562C603.616 375.562 606.217 378.164 606.217 381.367Z" fill="#FF6652"/>
<path d="M567.024 238.464H544.89V234.235H562.798C565.124 234.235 567.024 236.137 567.024 238.464Z" fill="#293545"/>
<path d="M547.566 238.464H483.688L473.533 206.435C472.633 203.583 474.759 200.68 477.76 200.68H532.359C534.285 200.68 535.986 201.931 536.586 203.758L547.566 238.464Z" fill="#293545"/>
<path d="M507.523 222.35C506.098 223.325 503.947 222.7 502.771 220.948C501.571 219.197 501.771 216.995 503.221 216.019C504.647 215.043 506.798 215.669 507.973 217.42C509.149 219.172 508.949 221.374 507.523 222.35Z" fill="#44576E"/>
<path d="M350.929 49.019L351.38 62.8314L361.034 74.0915L361.159 78.0701L370.763 83.525L379.717 75.768L378.091 61.1549C378.091 61.1549 380.417 60.4292 380.642 57.7518C380.717 56.776 380.367 55.7751 379.592 55.1995C378.717 54.599 377.291 54.3988 375.19 56.6258L374.715 44.6901L351.38 45.4658L350.929 49.019Z" fill="#FFCEC8"/>
<path d="M375.24 56.6008C375.24 56.6008 378.466 72.9655 355.932 74.8422C355.331 74.8922 354.706 74.8922 354.106 74.8672C352.655 74.7921 351.505 73.591 351.505 72.1147L351.43 62.7813C351.43 62.7813 354.206 60.3542 356.732 62.381C359.258 64.4078 362.91 65.4337 367.362 61.9556C367.362 61.9556 371.413 59.5034 371.163 54.7992C371.063 52.7724 370.888 50.8707 370.363 49.4194C369.513 47.0672 366.511 46.3416 364.535 47.893C362.284 49.6696 357.357 52.347 350.979 48.9439C350.979 48.9439 346.953 46.6919 348.703 42.8635C350.454 39.035 354.531 37.9591 359.283 39.1101C364.035 40.2611 366.961 43.414 373.064 42.1128C373.064 42.1128 376.841 40.8367 377.841 39.1351L378.366 54.7241C378.316 54.7992 376.766 54.8492 375.24 56.6008Z" fill="#384B61"/>
<path d="M394.649 345.81L396.925 379.365H409.88V344.534L394.649 345.81Z" fill="#FFCEC8"/>
<path d="M396.925 379.365V387.197H426.012C426.012 387.197 427.288 384.07 424.312 382.994C421.31 381.918 412.206 380.316 409.905 377.138C409.905 377.138 408.555 379.616 405.628 378.865C402.702 378.114 400.276 375.287 396.925 379.365Z" fill="#2E3E52"/>
<path d="M359.833 345.785L357.782 379.365H344.802L343.951 344.534L359.833 345.785Z" fill="#FFCEC8"/>
<path d="M357.782 379.365V387.197H328.695C328.695 387.197 327.419 384.07 330.395 382.994C333.397 381.918 342.501 380.316 344.802 377.138C344.802 377.138 346.152 379.616 349.079 378.865C352.005 378.114 354.431 375.287 357.782 379.365Z" fill="#2E3E52"/>
<path d="M364.835 370.733L338.974 368.856V361.224L364.835 362.5V370.733Z" fill="#2E3E52"/>
<path d="M391.372 370.733L414.732 368.856V361.224L391.372 362.5V370.733Z" fill="#2E3E52"/>
<path d="M366.911 282.504L373.939 208.912L379.817 209.438L386.47 282.504H412.857L410.831 172.079H345.127L342.251 282.504H366.911Z" fill="#2E3E52"/>
<path d="M386.47 282.503L394.649 364.477L412.857 362.976V281.878L386.47 282.503Z" fill="#2E3E52"/>
<path d="M342.251 280.777L343.101 361.95L361.809 363.076L366.911 280.777H342.251Z" fill="#2E3E52"/>
<path d="M310.261 191.972L309.136 194.65L305.534 200.28L302.333 201.156C301.933 201.256 301.583 201.506 301.333 201.831L298.456 205.509C298.106 205.81 298.156 206.335 298.431 206.585C298.681 206.786 299.107 206.786 299.382 206.51C299.732 206.21 300.082 205.91 300.432 205.61L298.406 209.463C298.306 209.638 298.356 209.888 298.506 210.039C298.656 210.189 298.856 210.239 299.057 210.164C298.781 210.714 298.531 211.265 298.256 211.79C298.156 212.09 298.281 212.416 298.556 212.591C298.806 212.741 299.132 212.741 299.357 212.591C300.657 211.114 301.933 209.638 303.233 208.162L305.734 207.211L303.233 209.563L300.132 213.467C300.032 213.642 300.032 213.842 300.157 214.017C300.307 214.217 300.582 214.317 300.832 214.217C303.959 212.09 307.11 209.938 310.236 207.812L313.338 205.484L313.788 205.96L313.188 208.387C312.988 209.188 312.988 210.013 313.213 210.839C313.463 211.815 314.413 212.466 315.414 212.366L315.539 208.963C315.539 208.963 316.589 205.134 316.639 204.984C316.689 204.859 318.215 198.929 318.215 198.929L319.891 195.05L310.261 191.972Z" fill="#FFCEC8"/>
<path d="M339.349 106.195C339.474 128.34 340 161.82 342.075 177.735C342.075 177.735 410.656 181.538 414.957 173.356C414.957 173.356 410.931 154.163 409.78 127.715C409.055 111.025 404.453 97.4875 401.176 89.7806C399.301 85.4016 395.574 82.2738 391.147 81.298L380.918 79.0209C380.442 81.2479 378.667 82.9494 376.516 83.0746C370.388 83.3999 360.258 79.3963 360.258 79.3963L358.883 79.7466C347.378 82.6742 339.274 93.634 339.349 106.195Z" fill="#426BFF"/>
<path d="M323.192 146.006L342.251 161.345C335.773 173.881 321.316 202.181 321.316 202.181L306.485 194.249L323.192 146.006Z" fill="#FF6652"/>
<path d="M370.288 223.501L360.233 79.3963L354.831 80.7725C348.128 82.474 342.651 87.5786 340.175 94.4348L322.717 147.082L335.072 159.668L336.323 228.905L363.26 231.032C367.287 231.383 370.638 227.779 370.288 223.501Z" fill="#FF6652"/>
<path d="M380.918 79.0209L399.526 223.876C400.601 228.28 405.303 230.432 409.055 228.23L430.439 215.744L411.681 135.797L397.95 81.2479C395.749 79.9468 380.918 79.0209 380.918 79.0209Z" fill="#FF6652"/>
<path d="M338.649 162.821H338.624C338.074 162.796 337.648 162.346 337.648 161.795L339.124 111.125C339.149 110.574 339.599 110.149 340.15 110.149C340.7 110.174 341.125 110.624 341.125 111.175L339.649 161.845C339.624 162.371 339.199 162.821 338.649 162.821Z" fill="#E34934"/>
<path d="M344.527 145.706L363.21 142.828C364.435 142.653 365.261 141.502 365.086 140.276L360.334 109.273C360.158 108.047 359.008 107.221 357.782 107.396L339.099 110.274C337.874 110.449 337.048 111.6 337.223 112.826L341.975 143.829C342.176 145.055 343.326 145.881 344.527 145.706Z" fill="#2E3E52"/>
<path d="M370.338 129.641C370.338 129.641 369.888 127.064 367.537 126.138L362.359 122.735L362.835 125.788C362.835 125.788 356.357 122.81 352.555 124.612C348.778 126.388 352.58 133.295 357.057 134.245L363.585 136.748L375.565 138.249L370.338 129.641Z" fill="#FFCEC8"/>
<path d="M369.713 125.112L408.28 131.868C400.426 112.851 397.1 94.1345 395.574 86.1523C395.274 84.5759 397.925 82.7993 397.95 81.2229L400.701 81.6232C405.904 82.3989 410.406 85.6769 412.732 90.4061L434.391 134.471C435.892 139.976 433.966 145.631 429.489 148.934C425.887 151.586 421.21 152.537 416.633 151.561C399.951 148.008 366.586 140.926 366.586 140.926L369.713 125.112Z" fill="#FF6652"/>
<path d="M411.031 134.271C410.956 134.271 410.906 134.271 410.831 134.245L388.121 129.817C387.57 129.716 387.22 129.191 387.32 128.64C387.42 128.09 387.946 127.74 388.496 127.84L409.405 131.918L394.799 94.0844C394.599 93.559 394.849 92.9835 395.374 92.7833C395.899 92.5831 396.474 92.8333 396.674 93.3588L411.956 132.894C412.081 133.245 412.031 133.62 411.781 133.895C411.606 134.145 411.331 134.271 411.031 134.271Z" fill="#E34934"/>
<path d="M412.882 151.811C412.807 151.811 412.756 151.811 412.681 151.786L391.422 147.257C390.872 147.132 390.547 146.607 390.647 146.081C390.772 145.531 391.297 145.18 391.822 145.305L413.082 149.834C413.632 149.96 413.957 150.485 413.857 151.011C413.757 151.486 413.332 151.811 412.882 151.811Z" fill="#E34934"/>
<path d="M360.258 79.3963L359.683 76.1684L379.817 72.0397L380.918 79.0209L381.793 91.8324L370.313 93.1586L362.735 90.9566L360.859 88.1291L360.258 79.3963Z" fill="#426BFF"/>
<path d="M43.8443 288.234C43.5692 288.008 43.319 287.808 43.0689 287.608C43.0689 287.758 43.094 287.908 43.194 288.033C43.3691 288.234 43.6192 288.259 43.8443 288.234Z" fill="#87A1FF"/>
<path d="M48.2212 293.964C48.4713 294.264 48.9215 294.289 49.2216 294.039C49.2467 294.014 49.2467 293.964 49.2717 293.939C48.9965 293.588 48.7214 293.238 48.4463 292.913C48.3963 292.938 48.3463 292.913 48.3212 292.963C47.9961 293.213 47.9711 293.664 48.2212 293.964Z" fill="#87A1FF"/>
<path d="M44.3195 291.236C44.0193 291.487 43.9943 291.937 44.2444 292.237C44.4946 292.538 44.9448 292.563 45.2449 292.312C45.545 292.062 45.57 291.612 45.3199 291.311C45.0698 291.036 44.6196 290.986 44.3195 291.236Z" fill="#87A1FF"/>
<path d="M53.2734 299.919C53.2484 299.869 53.2234 299.819 53.1984 299.769C53.2234 299.819 53.1984 299.844 53.2484 299.894C53.2484 299.919 53.2734 299.894 53.2734 299.919Z" fill="#87A1FF"/>
<path d="M49.3217 297.192C49.0215 297.442 48.9965 297.892 49.2466 298.193C49.4968 298.493 49.9469 298.518 50.2471 298.268C50.5472 298.017 50.5722 297.567 50.3221 297.267C50.072 296.967 49.6218 296.916 49.3217 297.192Z" fill="#87A1FF"/>
<path d="M54.3489 303.122C54.0488 303.372 54.0238 303.823 54.2739 304.123C54.524 304.423 54.9742 304.448 55.2743 304.198C55.3493 304.123 55.3743 304.023 55.4244 303.923C55.2743 303.597 55.1242 303.297 54.9742 302.972C54.7241 302.947 54.524 302.972 54.3489 303.122Z" fill="#87A1FF"/>
<path d="M40.2427 290.536C40.4928 290.836 40.943 290.861 41.2431 290.611C41.5433 290.361 41.5683 289.91 41.3182 289.61C41.0681 289.31 40.6179 289.285 40.3177 289.535C40.3177 289.535 40.3177 289.56 40.2927 289.585C40.2927 289.885 40.2677 290.21 40.2427 290.536Z" fill="#87A1FF"/>
<path d="M45.2449 296.466C45.495 296.766 45.9452 296.791 46.2453 296.541C46.5455 296.291 46.5705 295.84 46.3204 295.54C46.0703 295.24 45.6201 295.215 45.3199 295.465C45.0448 295.715 44.9948 296.166 45.2449 296.466Z" fill="#87A1FF"/>
<path d="M42.3686 297.967C42.0685 298.218 42.0435 298.668 42.2936 298.968C42.5437 299.269 42.9939 299.294 43.294 299.043C43.5942 298.793 43.6192 298.343 43.3691 298.042C43.119 297.767 42.6688 297.717 42.3686 297.967Z" fill="#87A1FF"/>
<path d="M41.3432 293.764C41.0431 294.014 41.018 294.464 41.2682 294.765C41.5183 295.065 41.9685 295.09 42.2686 294.84C42.5687 294.589 42.5937 294.139 42.3436 293.839C42.0935 293.538 41.6433 293.513 41.3432 293.764Z" fill="#87A1FF"/>
<path d="M50.3471 301.395C50.047 301.646 50.022 302.096 50.2721 302.396C50.5222 302.697 50.9724 302.722 51.2725 302.471C51.5727 302.221 51.5977 301.771 51.3476 301.471C51.0975 301.195 50.6473 301.145 50.3471 301.395Z" fill="#87A1FF"/>
<path d="M47.3958 303.898C47.0957 304.148 47.0707 304.598 47.3208 304.899C47.5709 305.199 48.0211 305.224 48.3212 304.974C48.6214 304.723 48.6464 304.273 48.3963 303.973C48.1462 303.698 47.696 303.647 47.3958 303.898Z" fill="#87A1FF"/>
<path d="M46.3704 299.694C46.0702 299.944 46.0452 300.395 46.2953 300.695C46.5455 300.995 46.9956 301.02 47.2958 300.77C47.5959 300.52 47.6209 300.069 47.3708 299.769C47.1207 299.469 46.6705 299.444 46.3704 299.694Z" fill="#87A1FF"/>
<path d="M43.3941 302.196C43.0939 302.446 43.0689 302.897 43.319 303.197C43.5691 303.497 44.0193 303.522 44.3195 303.272C44.6196 303.022 44.6446 302.572 44.3945 302.271C44.1444 301.971 43.6942 301.946 43.3941 302.196Z" fill="#87A1FF"/>
<path d="M55.3743 307.326C55.0742 307.576 55.0492 308.026 55.2993 308.327C55.5494 308.627 55.9996 308.652 56.2998 308.402C56.5999 308.152 56.6249 307.701 56.3748 307.401C56.1247 307.126 55.6745 307.076 55.3743 307.326Z" fill="#87A1FF"/>
<path d="M52.398 309.828C52.0979 310.078 52.0729 310.529 52.323 310.829C52.5731 311.129 53.0233 311.154 53.3234 310.904C53.6236 310.654 53.6486 310.203 53.3985 309.903C53.1484 309.628 52.6982 309.578 52.398 309.828Z" fill="#87A1FF"/>
<path d="M51.3726 305.624C51.0724 305.874 51.0474 306.325 51.2975 306.625C51.5477 306.925 51.9979 306.95 52.298 306.7C52.5981 306.45 52.6231 306 52.373 305.699C52.1229 305.399 51.6727 305.374 51.3726 305.624Z" fill="#87A1FF"/>
<path d="M48.4213 308.127C48.1212 308.377 48.0961 308.827 48.3462 309.127C48.5964 309.428 49.0466 309.453 49.3467 309.202C49.6468 308.952 49.6718 308.502 49.4217 308.202C49.1466 307.901 48.7214 307.876 48.4213 308.127Z" fill="#87A1FF"/>
<path d="M57.4252 315.783C57.1251 316.034 57.1001 316.484 57.3502 316.784C57.6003 317.085 58.0505 317.11 58.3507 316.859C58.6508 316.609 58.6758 316.159 58.4257 315.858C58.1506 315.558 57.7004 315.508 57.4252 315.783Z" fill="#87A1FF"/>
<path d="M56.3998 311.555C56.0997 311.805 56.0747 312.255 56.3248 312.556C56.5749 312.856 57.0251 312.881 57.3252 312.631C57.6253 312.38 57.6503 311.93 57.4002 311.63C57.1501 311.329 56.6999 311.304 56.3998 311.555Z" fill="#87A1FF"/>
<path d="M53.4235 314.057C53.1233 314.307 53.0983 314.757 53.3484 315.058C53.5986 315.358 54.0488 315.383 54.3489 315.133C54.649 314.883 54.674 314.432 54.4239 314.132C54.1738 313.857 53.7236 313.807 53.4235 314.057Z" fill="#87A1FF"/>
<path d="M58.4257 319.987C58.1255 320.237 58.1005 320.688 58.3506 320.988C58.6008 321.288 59.0509 321.313 59.3511 321.063C59.6512 320.813 59.6762 320.363 59.4261 320.062C59.176 319.787 58.7258 319.737 58.4257 319.987Z" fill="#87A1FF"/>
<path d="M39.9926 300.345C39.9926 300.795 39.9926 301.22 39.9926 301.671C40.0926 301.646 40.2177 301.646 40.3177 301.571C40.6179 301.32 40.6429 300.87 40.3928 300.57C40.2927 300.445 40.1426 300.37 39.9926 300.345Z" fill="#87A1FF"/>
<path d="M44.4195 306.425C44.1194 306.675 44.0944 307.126 44.3445 307.426C44.5946 307.726 45.0448 307.751 45.3449 307.501C45.6451 307.251 45.6701 306.8 45.42 306.5C45.1699 306.2 44.7197 306.175 44.4195 306.425Z" fill="#87A1FF"/>
<path d="M41.4682 308.927C41.1681 309.177 41.1431 309.628 41.3932 309.928C41.6433 310.228 42.0935 310.253 42.3936 310.003C42.6938 309.753 42.7188 309.303 42.4687 309.002C42.1935 308.702 41.7684 308.677 41.4682 308.927Z" fill="#87A1FF"/>
<path d="M40.4428 304.698C40.1426 304.949 40.1176 305.399 40.3677 305.699C40.6178 306 41.068 306.025 41.3682 305.774C41.6683 305.524 41.6933 305.074 41.4432 304.774C41.1931 304.498 40.7429 304.448 40.4428 304.698Z" fill="#87A1FF"/>
<path d="M49.4467 312.355C49.1466 312.606 49.1216 313.056 49.3717 313.356C49.6218 313.656 50.072 313.682 50.3721 313.431C50.6723 313.181 50.6973 312.731 50.4472 312.43C50.1721 312.13 49.7469 312.105 49.4467 312.355Z" fill="#87A1FF"/>
<path d="M47.4709 314.933C47.2208 314.632 46.7706 314.607 46.4704 314.858C46.1703 315.108 46.1453 315.558 46.3954 315.858C46.6455 316.159 47.0957 316.184 47.3959 315.934C47.696 315.683 47.721 315.233 47.4709 314.933Z" fill="#87A1FF"/>
<path d="M45.445 310.629C45.1448 310.879 45.1198 311.329 45.3699 311.63C45.62 311.93 46.0702 311.955 46.3704 311.705C46.6705 311.455 46.6955 311.004 46.4454 310.704C46.1953 310.429 45.7451 310.379 45.445 310.629Z" fill="#87A1FF"/>
<path d="M42.4937 313.131C42.1935 313.381 42.1685 313.832 42.4186 314.132C42.6687 314.432 43.1189 314.457 43.4191 314.207C43.7192 313.957 43.7442 313.506 43.4941 313.206C43.219 312.931 42.7688 312.881 42.4937 313.131Z" fill="#87A1FF"/>
<path d="M54.4489 318.286C54.1488 318.536 54.1238 318.986 54.3739 319.287C54.624 319.587 55.0742 319.612 55.3743 319.362C55.6745 319.111 55.6995 318.661 55.4494 318.361C55.1993 318.06 54.7491 318.035 54.4489 318.286Z" fill="#87A1FF"/>
<path d="M52.3981 321.864C52.6982 321.614 52.7232 321.163 52.4731 320.863C52.223 320.563 51.7728 320.538 51.4726 320.788C51.1725 321.038 51.1475 321.489 51.3976 321.789C51.6477 322.089 52.0979 322.114 52.3981 321.864Z" fill="#87A1FF"/>
<path d="M50.3722 317.56C50.6223 317.86 51.0725 317.885 51.3726 317.635C51.6727 317.385 51.6977 316.934 51.4476 316.634C51.1975 316.334 50.7473 316.309 50.4472 316.559C50.1721 316.809 50.122 317.26 50.3722 317.56Z" fill="#87A1FF"/>
<path d="M48.4213 320.162C48.7214 319.912 48.7464 319.462 48.4963 319.161C48.2462 318.861 47.796 318.836 47.4959 319.086C47.1957 319.337 47.1707 319.787 47.4208 320.087C47.6709 320.388 48.1211 320.413 48.4213 320.162Z" fill="#87A1FF"/>
<path d="M59.3761 325.217C59.6262 325.517 60.0764 325.542 60.3765 325.292C60.6767 325.042 60.7017 324.591 60.4516 324.291C60.2015 323.991 59.7513 323.966 59.4511 324.216C59.151 324.466 59.126 324.917 59.3761 325.217Z" fill="#87A1FF"/>
<path d="M57.4003 327.794C57.7004 327.544 57.7254 327.094 57.4753 326.793C57.2252 326.493 56.775 326.468 56.4748 326.718C56.1747 326.968 56.1497 327.419 56.3998 327.719C56.6749 328.019 57.1251 328.069 57.4003 327.794Z" fill="#87A1FF"/>
<path d="M56.4748 322.59C56.2247 322.289 55.7745 322.264 55.4744 322.514C55.1743 322.765 55.1492 323.215 55.3993 323.515C55.6495 323.816 56.0997 323.841 56.3998 323.59C56.6999 323.34 56.7249 322.89 56.4748 322.59Z" fill="#87A1FF"/>
<path d="M53.4235 326.093C53.7236 325.842 53.7486 325.392 53.4985 325.092C53.2484 324.791 52.7982 324.766 52.4981 325.017C52.1979 325.267 52.1729 325.717 52.423 326.018C52.6731 326.318 53.1233 326.343 53.4235 326.093Z" fill="#87A1FF"/>
<path d="M62.4274 333.75C62.7276 333.499 62.7526 333.049 62.5025 332.749C62.2524 332.448 61.8022 332.423 61.502 332.674C61.2019 332.924 61.1769 333.374 61.427 333.674C61.6771 333.95 62.1273 334 62.4274 333.75Z" fill="#87A1FF"/>
<path d="M61.402 329.521C61.7021 329.271 61.7271 328.82 61.477 328.52C61.2269 328.22 60.7767 328.195 60.4766 328.445C60.1764 328.695 60.1514 329.145 60.4015 329.446C60.6517 329.721 61.1019 329.771 61.402 329.521Z" fill="#87A1FF"/>
<path d="M58.4257 332.023C58.7258 331.773 58.7508 331.322 58.5007 331.022C58.2506 330.722 57.8004 330.697 57.5003 330.947C57.2002 331.197 57.1751 331.648 57.4253 331.948C57.7004 332.248 58.1256 332.273 58.4257 332.023Z" fill="#87A1FF"/>
<path d="M62.5275 336.877C62.2274 337.128 62.2023 337.578 62.4525 337.878C62.7026 338.178 63.1528 338.204 63.4529 337.953C63.5279 337.878 63.5529 337.778 63.5779 337.678C63.5529 337.428 63.5279 337.178 63.5279 336.927C63.2778 336.652 62.8276 336.627 62.5275 336.877Z" fill="#87A1FF"/>
<path d="M43.4941 317.36C43.194 317.61 43.169 318.06 43.4191 318.361C43.6692 318.661 44.1194 318.686 44.4195 318.436C44.7197 318.186 44.7447 317.735 44.4946 317.435C44.2445 317.16 43.7943 317.11 43.4941 317.36Z" fill="#87A1FF"/>
<path d="M49.4468 324.391C49.7469 324.141 49.7719 323.691 49.5218 323.39C49.2717 323.09 48.8215 323.065 48.5213 323.315C48.2212 323.565 48.1962 324.016 48.4463 324.316C48.6964 324.591 49.1466 324.641 49.4468 324.391Z" fill="#87A1FF"/>
<path d="M46.4704 326.893C46.7706 326.643 46.7956 326.193 46.5455 325.892C46.2954 325.592 45.8452 325.567 45.545 325.817C45.2449 326.068 45.2199 326.518 45.47 326.818C45.7201 327.094 46.1703 327.144 46.4704 326.893Z" fill="#87A1FF"/>
<path d="M44.5196 321.589C44.2194 321.839 44.1944 322.289 44.4445 322.59C44.6947 322.89 45.1449 322.915 45.445 322.665C45.7451 322.414 45.7701 321.964 45.52 321.664C45.2699 321.363 44.8197 321.338 44.5196 321.589Z" fill="#87A1FF"/>
<path d="M42.3436 324.066C42.4187 324.391 42.4687 324.741 42.5437 325.067C42.7438 324.817 42.7938 324.441 42.5687 324.191C42.5187 324.116 42.4187 324.091 42.3436 324.066Z" fill="#87A1FF"/>
<path d="M54.449 330.321C54.7491 330.071 54.7741 329.621 54.524 329.321C54.2739 329.02 53.8237 328.995 53.5235 329.245C53.2234 329.496 53.1984 329.946 53.4485 330.246C53.6986 330.522 54.1488 330.572 54.449 330.321Z" fill="#87A1FF"/>
<path d="M51.4726 332.824C51.7728 332.573 51.7978 332.123 51.5477 331.823C51.2976 331.523 50.8474 331.498 50.5472 331.748C50.2471 331.998 50.2221 332.448 50.4722 332.749C50.7473 333.024 51.1725 333.074 51.4726 332.824Z" fill="#87A1FF"/>
<path d="M50.4472 328.595C50.7473 328.345 50.7723 327.894 50.5222 327.594C50.2721 327.294 49.8219 327.269 49.5218 327.519C49.2216 327.769 49.1966 328.22 49.4467 328.52C49.7219 328.82 50.1471 328.845 50.4472 328.595Z" fill="#87A1FF"/>
<path d="M47.4959 331.097C47.796 330.847 47.821 330.397 47.5709 330.096C47.3208 329.796 46.8706 329.771 46.5705 330.021C46.2704 330.271 46.2453 330.722 46.4954 331.022C46.7456 331.322 47.1958 331.372 47.4959 331.097Z" fill="#87A1FF"/>
<path d="M59.4511 336.252C59.7513 336.002 59.7763 335.551 59.5262 335.251C59.2761 334.951 58.8259 334.926 58.5257 335.176C58.2256 335.426 58.2006 335.876 58.4507 336.177C58.7008 336.452 59.151 336.502 59.4511 336.252Z" fill="#87A1FF"/>
<path d="M56.4999 338.754C56.8 338.504 56.825 338.053 56.5749 337.753C56.3248 337.453 55.8746 337.428 55.5744 337.678C55.2743 337.928 55.2493 338.379 55.4994 338.679C55.7495 338.979 56.1997 339.004 56.4999 338.754Z" fill="#87A1FF"/>
<path d="M55.4744 334.525C55.7745 334.275 55.7995 333.825 55.5494 333.524C55.2993 333.224 54.8491 333.199 54.549 333.449C54.2489 333.699 54.2239 334.15 54.474 334.45C54.7241 334.75 55.1743 334.775 55.4744 334.525Z" fill="#87A1FF"/>
<path d="M52.5981 336.027C52.348 335.726 51.8978 335.701 51.5977 335.951C51.2975 336.202 51.2725 336.652 51.5226 336.952C51.7728 337.253 52.223 337.278 52.5231 337.027C52.7982 336.777 52.8482 336.327 52.5981 336.027Z" fill="#87A1FF"/>
<path d="M63.4779 342.082C63.5779 342.207 63.703 342.232 63.8531 342.282C63.828 341.857 63.828 341.431 63.803 341.006C63.728 341.031 63.6279 341.031 63.5779 341.081C63.2528 341.356 63.2278 341.782 63.4779 342.082Z" fill="#87A1FF"/>
<path d="M61.502 344.684C61.8022 344.434 61.8272 343.984 61.5771 343.683C61.327 343.383 60.8767 343.358 60.5766 343.608C60.2765 343.859 60.2515 344.309 60.5016 344.609C60.7517 344.91 61.2019 344.935 61.502 344.684Z" fill="#87A1FF"/>
<path d="M60.4766 340.456C60.7767 340.205 60.8017 339.755 60.5516 339.455C60.3015 339.154 59.8513 339.129 59.5512 339.38C59.251 339.63 59.226 340.08 59.4761 340.38C59.7262 340.681 60.1764 340.706 60.4766 340.456Z" fill="#87A1FF"/>
<path d="M57.5253 342.983C57.8254 342.733 57.8504 342.282 57.6003 341.982C57.3502 341.682 56.9 341.657 56.5999 341.907C56.2997 342.157 56.2747 342.607 56.5248 342.908C56.775 343.183 57.2251 343.233 57.5253 342.983Z" fill="#87A1FF"/>
<path d="M62.5275 348.913C62.8276 348.663 62.8526 348.212 62.6025 347.912C62.3524 347.612 61.9022 347.587 61.6021 347.837C61.3019 348.087 61.2769 348.538 61.527 348.838C61.7771 349.113 62.2273 349.163 62.5275 348.913Z" fill="#87A1FF"/>
<path d="M43.5942 328.395C43.4941 328.27 43.3691 328.245 43.219 328.195C43.319 328.595 43.3941 328.995 43.4941 329.396C43.7942 329.145 43.8443 328.695 43.5942 328.395Z" fill="#87A1FF"/>
<path d="M48.5213 335.326C48.8215 335.076 48.8465 334.625 48.5964 334.325C48.3463 334.025 47.8961 334 47.5959 334.25C47.2958 334.5 47.2708 334.951 47.5209 335.251C47.771 335.551 48.2212 335.576 48.5213 335.326Z" fill="#87A1FF"/>
<path d="M45.6451 336.827C45.6201 336.777 45.57 336.802 45.52 336.752C45.5951 337.002 45.6701 337.228 45.7451 337.478C45.7951 337.253 45.7951 337.027 45.6451 336.827Z" fill="#87A1FF"/>
<path d="M44.6196 332.623C44.5196 332.523 44.3945 332.473 44.2695 332.448C44.3695 332.824 44.4696 333.174 44.5696 333.549C44.7947 333.274 44.8447 332.899 44.6196 332.623Z" fill="#87A1FF"/>
<path d="M53.6236 340.255C53.3735 339.955 52.9233 339.93 52.6231 340.18C52.323 340.431 52.298 340.881 52.5481 341.181C52.7982 341.482 53.2484 341.507 53.5485 341.256C53.8237 341.006 53.8737 340.556 53.6236 340.255Z" fill="#87A1FF"/>
<path d="M50.5722 343.759C50.8724 343.508 50.8974 343.058 50.6473 342.758C50.3972 342.457 49.947 342.432 49.6468 342.683C49.3467 342.933 49.3217 343.383 49.5718 343.683C49.8219 343.984 50.2721 344.009 50.5722 343.759Z" fill="#87A1FF"/>
<path d="M49.5468 339.555C49.8469 339.305 49.8719 338.854 49.6218 338.554C49.3717 338.254 48.9215 338.229 48.6214 338.479C48.3213 338.729 48.2962 339.179 48.5464 339.48C48.7965 339.755 49.2467 339.805 49.5468 339.555Z" fill="#87A1FF"/>
<path d="M58.5507 347.187C58.8509 346.936 58.8759 346.486 58.6258 346.186C58.3757 345.885 57.9255 345.86 57.6253 346.111C57.3252 346.361 57.3002 346.811 57.5503 347.112C57.8004 347.412 58.2506 347.437 58.5507 347.187Z" fill="#87A1FF"/>
<path d="M54.574 349.614C54.8241 349.914 55.2743 349.939 55.5744 349.689C55.8746 349.439 55.8996 348.988 55.6495 348.688C55.3994 348.388 54.9492 348.363 54.649 348.613C54.3489 348.863 54.3239 349.314 54.574 349.614Z" fill="#87A1FF"/>
<path d="M54.549 345.485C54.8491 345.235 54.8741 344.784 54.624 344.484C54.3739 344.184 53.9237 344.159 53.6236 344.409C53.3235 344.659 53.2984 345.11 53.5486 345.41C53.7987 345.685 54.2489 345.735 54.549 345.485Z" fill="#87A1FF"/>
<path d="M51.5977 347.987C51.8978 347.737 51.9228 347.287 51.6727 346.986C51.4226 346.686 50.9724 346.661 50.6723 346.911C50.3722 347.162 50.3471 347.612 50.5973 347.912C50.8474 348.212 51.2976 348.238 51.5977 347.987Z" fill="#87A1FF"/>
<path d="M63.5529 353.117C63.8531 352.867 63.8781 352.416 63.628 352.116C63.3778 351.816 62.9277 351.791 62.6275 352.041C62.3274 352.291 62.3024 352.742 62.5525 353.042C62.8026 353.342 63.2528 353.367 63.5529 353.117Z" fill="#87A1FF"/>
<path d="M60.6016 355.644C60.9018 355.394 60.9268 354.944 60.6767 354.643C60.4266 354.343 59.9764 354.318 59.6762 354.568C59.3761 354.818 59.3511 355.269 59.6012 355.569C59.8513 355.844 60.3015 355.894 60.6016 355.644Z" fill="#87A1FF"/>
<path d="M59.5762 351.415C59.8763 351.165 59.9013 350.715 59.6512 350.414C59.4011 350.114 58.9509 350.089 58.6508 350.339C58.3506 350.59 58.3256 351.04 58.5757 351.34C58.8259 351.616 59.2761 351.666 59.5762 351.415Z" fill="#87A1FF"/>
<path d="M56.5999 353.918C56.9 353.667 56.925 353.217 56.6749 352.917C56.4248 352.616 55.9746 352.591 55.6745 352.842C55.3744 353.092 55.3493 353.542 55.5995 353.843C55.8496 354.143 56.2998 354.168 56.5999 353.918Z" fill="#87A1FF"/>
<path d="M63.8031 356.22C63.753 356.245 63.703 356.22 63.678 356.27C63.3779 356.52 63.3529 356.97 63.603 357.271C63.653 357.321 63.728 357.321 63.778 357.346C63.753 356.97 63.778 356.595 63.8031 356.22Z" fill="#87A1FF"/>
<path d="M61.7021 358.847C61.452 358.547 61.0018 358.522 60.7017 358.772C60.4266 358.997 60.4016 359.373 60.5767 359.673L61.6771 359.723C61.8772 359.448 61.9272 359.097 61.7021 358.847Z" fill="#87A1FF"/>
<path d="M52.6231 352.216C52.9233 351.966 52.9483 351.515 52.6982 351.215C52.4481 350.915 51.9979 350.89 51.6977 351.14C51.3976 351.39 51.3726 351.841 51.6227 352.141C51.8728 352.416 52.323 352.466 52.6231 352.216Z" fill="#87A1FF"/>
<path d="M57.6253 358.146C57.9255 357.896 57.9505 357.446 57.7004 357.146C57.4503 356.845 57.0001 356.82 56.6999 357.07C56.3998 357.321 56.3748 357.771 56.6249 358.071C56.875 358.347 57.3252 358.397 57.6253 358.146Z" fill="#87A1FF"/>
<path d="M53.7236 355.419C53.5735 355.244 53.3485 355.194 53.1234 355.219C53.3234 355.594 53.5235 355.969 53.7236 356.295C53.8987 356.045 53.9487 355.694 53.7236 355.419Z" fill="#87A1FF"/>
<path d="M93.8413 272.495C96.7926 282.078 97.868 291.361 97.793 300.094L93.116 302.597L97.4429 307.351C94.7167 338.679 77.5591 361.324 77.5591 361.324L68.9303 359.047C54.7741 288.659 93.8413 272.495 93.8413 272.495Z" fill="#DEE5FF"/>
<path d="M73.3823 359.948C73.3573 359.948 73.3573 359.948 73.3322 359.948C73.1822 359.923 73.0821 359.773 73.1322 359.623L89.5394 281.152C89.5644 281.002 89.7144 280.902 89.8645 280.952C90.0146 280.977 90.1146 281.127 90.0646 281.277L73.6574 359.748C73.6324 359.848 73.5073 359.948 73.3823 359.948Z" fill="#859FFF"/>
<path d="M71.0312 359.823C71.0312 359.823 89.7645 320.438 62.1773 285.907C62.1773 285.907 35.1405 306.925 63.603 359.823H71.0312Z" fill="#426BFF"/>
<path d="M67.3296 359.573C67.2296 359.573 67.1546 359.498 67.1546 359.398L60.9268 293.689C60.9268 293.588 61.0019 293.488 61.1019 293.488C61.2019 293.488 61.302 293.563 61.302 293.664L67.5297 359.372C67.5297 359.473 67.4547 359.573 67.3296 359.573C67.3546 359.573 67.3296 359.573 67.3296 359.573Z" fill="white"/>
<path d="M58.7508 388.298H79.4849L85.2375 359.398H53.0233L58.7508 388.298Z" fill="white"/>
<path d="M79.485 388.749H58.7508C58.5257 388.749 58.3507 388.599 58.3006 388.374L52.5481 359.448C52.5231 359.322 52.5481 359.172 52.6482 359.072C52.7232 358.972 52.8733 358.897 52.9983 358.897H85.2125C85.3375 358.897 85.4876 358.947 85.5626 359.072C85.6377 359.172 85.6877 359.322 85.6627 359.448L79.9102 388.374C79.8851 388.599 79.7101 388.749 79.485 388.749ZM59.126 387.848H79.1098L84.6622 359.848H53.5736L59.126 387.848Z" fill="#426BFF"/>
<path d="M82.9114 314.357C82.7864 314.357 82.6613 314.257 82.6363 314.107L79.9852 291.762C79.9601 291.612 80.0852 291.487 80.2103 291.462C80.3603 291.437 80.4854 291.562 80.5104 291.687L83.1615 314.032C83.1866 314.182 83.0615 314.307 82.9364 314.332C82.9364 314.357 82.9114 314.357 82.9114 314.357Z" fill="#859FFF"/>
<path d="M79.3349 331.497C79.3099 331.497 79.2849 331.497 79.2599 331.497C79.1098 331.472 79.0348 331.297 79.0598 331.147C79.1348 330.847 83.0866 326.868 90.815 319.362C90.915 319.262 91.0901 319.262 91.1901 319.362C91.2902 319.462 91.2902 319.637 91.1901 319.737C86.6881 324.116 79.8852 330.797 79.56 331.297C79.56 331.422 79.46 331.497 79.3349 331.497Z" fill="#859FFF"/>
<path d="M83.8869 366.629H63.8281C63.578 366.629 63.3779 366.429 63.3779 366.179C63.3779 365.928 63.578 365.728 63.8281 365.728H83.8869C84.137 365.728 84.3371 365.928 84.3371 366.179C84.3371 366.429 84.137 366.629 83.8869 366.629Z" fill="#426BFF"/>
<path d="M154.293 387.473C157.622 387.473 160.32 384.773 160.32 381.442C160.32 378.112 157.622 375.412 154.293 375.412C150.964 375.412 148.265 378.112 148.265 381.442C148.265 384.773 150.964 387.473 154.293 387.473Z" fill="#426BFF"/>
<path d="M202.989 377.514H154.843C154.143 377.514 153.593 376.963 153.593 376.263C153.593 375.562 154.143 375.012 154.843 375.012H202.989C203.69 375.012 204.24 375.562 204.24 376.263C204.24 376.963 203.665 377.514 202.989 377.514Z" fill="#426BFF"/>
<path d="M178.278 376.138C177.578 376.138 177.028 375.587 177.028 374.886V273.871C177.028 273.17 177.578 272.62 178.278 272.62C178.979 272.62 179.529 273.17 179.529 273.871V374.886C179.529 375.562 178.979 376.138 178.278 376.138Z" fill="#426BFF"/>
<path d="M208.842 381.442C208.842 384.77 206.141 387.473 202.814 387.473C199.488 387.473 196.786 384.77 196.786 381.442C196.786 378.114 199.488 375.412 202.814 375.412C206.141 375.412 208.842 378.114 208.842 381.442Z" fill="#426BFF"/>
<path d="M143.138 288.409H217.371V280.902H141.087L143.138 288.409Z" fill="#3661FF"/>
<path d="M141.137 280.902L115.001 192.773H196.662L179.354 280.902H141.137Z" fill="#426BFF"/>
<path d="M237.755 368.306L245.883 383.019L251.085 383.269L254.587 385.421C254.962 385.646 255.212 386.071 255.237 386.497C255.287 387.147 254.812 387.673 254.162 387.648L244.958 387.197L238.63 377.038C238.63 377.038 237.279 376.088 237.129 377.464C237.029 378.565 237.529 383.794 237.73 385.946C237.78 386.447 237.454 386.847 237.004 386.822C236.579 386.797 236.204 386.397 236.154 385.921L235.103 376.288C235.128 376.288 232.302 369.682 237.755 368.306Z" fill="#FF6652"/>
<path d="M245.883 383.019L251.085 383.269L248.384 361.349L237.755 368.306L245.883 383.019Z" fill="#FFCDC7"/>
<path d="M248.384 361.349L247.434 352.241L228.801 351.515L237.755 368.306L248.384 361.349Z" fill="#FFCDC7"/>
<path d="M186.982 362.951L186.582 379.766L190.959 382.593L192.885 386.222C193.085 386.622 193.11 387.097 192.91 387.473C192.61 388.073 191.934 388.273 191.409 387.923L183.681 382.894L183.356 370.933C183.356 370.933 182.655 369.432 181.855 370.558C181.205 371.433 179.004 376.238 178.103 378.189C177.903 378.64 177.403 378.815 177.028 378.565C176.678 378.34 176.528 377.789 176.728 377.364L180.654 368.506C180.679 368.506 181.58 361.374 186.982 362.951Z" fill="#FF6652"/>
<path d="M186.582 379.766L190.959 382.593L199.663 362.3L186.982 362.951L186.582 379.766Z" fill="#FFCDC7"/>
<path d="M199.663 362.3L203.439 353.943L187.708 343.934L186.982 362.951L199.663 362.3Z" fill="#FFCDC7"/>
<path d="M186.807 246.446C195.111 248.423 205.14 250.675 213.369 252.927C221.297 255.104 229.926 255.504 237.579 258.457C241.431 259.933 245.033 262.41 247.084 266.014C248.659 268.791 249.21 272.044 249.585 275.222C250.835 286.382 250.56 297.742 251.16 308.952C251.861 321.914 252.561 334.876 253.286 347.837C253.461 350.765 253.611 353.692 253.787 356.62L223.623 357.571L213.119 267.365L186.807 246.446Z" fill="#FF4D36"/>
<path d="M229.801 189.595C229.801 189.595 230.026 192.122 231.077 193.073C231.152 193.148 231.252 193.223 231.327 193.298C231.352 193.874 231.452 194.475 231.727 195.025C232.077 195.801 232.352 196.601 232.627 197.402C232.202 197.577 231.877 197.727 231.852 197.727C231.752 197.777 227.775 199.404 227.775 199.404L225.199 200.93L222.298 194.349L229.801 189.595Z" fill="#FFCDC7"/>
<path d="M225.274 192.448L228.876 189.57L233.027 184.14C233.753 184.34 234.178 184.941 234.028 185.541L233.628 187.318C233.403 188.319 234.253 189.345 235.504 189.47C235.529 189.47 235.529 189.47 235.554 189.47L225.274 192.448Z" fill="#FFCDC7"/>
<path d="M228.626 192.147L228.976 190.871L232.802 189.37L233.378 189.87L237.78 188.344C237.98 188.444 238.38 188.694 238.63 189.17C238.955 189.795 238.78 190.396 238.705 190.596C238.405 190.721 238.105 190.821 237.805 190.946C237.88 190.946 238.555 190.996 238.83 191.522C239.03 191.897 238.93 192.398 238.555 192.773C238.68 192.798 239.205 192.898 239.48 193.323C239.905 193.949 239.38 194.675 239.355 194.725C239.03 194.85 238.705 194.975 238.405 195.1C238.855 195.125 239.23 195.325 239.355 195.676C239.505 196.076 239.33 196.551 238.855 196.877C237.504 197.177 236.154 197.477 234.803 197.803L223.698 200.98L228.626 192.147Z" fill="#FFCDC7"/>
<path d="M237.805 190.946L234.378 192.273C233.503 192.623 233.152 193.474 233.578 194.199L233.953 194.825L234.303 194.5L236.429 193.599L237.805 190.946Z" fill="#FFCDC7"/>
<path d="M233.978 195.325C233.953 195.325 233.928 195.325 233.903 195.325C233.753 195.3 233.628 195.225 233.528 195.075L233.153 194.449C232.877 193.999 232.827 193.474 232.977 192.998C233.153 192.473 233.603 192.022 234.178 191.797L237.604 190.471C237.855 190.371 238.155 190.496 238.255 190.746C238.355 190.996 238.23 191.297 237.98 191.397L234.553 192.723C234.253 192.848 234.028 193.048 233.928 193.298C233.853 193.499 233.878 193.699 234.003 193.899L234.078 194.024C234.078 194.024 234.103 194.024 234.103 193.999L236.229 193.098C236.479 192.998 236.779 193.098 236.879 193.374C236.979 193.624 236.854 193.924 236.604 194.024L234.603 194.925L234.328 195.2C234.228 195.275 234.103 195.325 233.978 195.325Z" fill="#FF9284"/>
<path d="M238.555 192.773L234.703 194.274C233.978 194.55 233.628 195.25 233.903 195.776C234.153 196.226 234.828 196.401 235.454 196.176L238.405 195.1L238.555 192.773Z" fill="#FFCDC7"/>
<path d="M234.878 196.777C234.278 196.777 233.753 196.501 233.478 196.026C233.278 195.676 233.253 195.275 233.403 194.9C233.578 194.424 233.978 194.024 234.528 193.799L238.38 192.298C238.63 192.197 238.93 192.323 239.03 192.573C239.13 192.823 239.005 193.123 238.755 193.223L234.903 194.725C234.628 194.825 234.428 195.025 234.353 195.225C234.303 195.325 234.328 195.425 234.353 195.525C234.478 195.726 234.853 195.851 235.278 195.701L238.23 194.625C238.48 194.525 238.78 194.675 238.88 194.925C238.98 195.175 238.855 195.475 238.58 195.576L235.629 196.651C235.378 196.752 235.128 196.777 234.878 196.777Z" fill="#FF9284"/>
<path d="M235.929 196.001L235.028 196.326C234.653 196.451 234.453 196.802 234.553 197.102C234.628 197.302 234.778 197.452 234.978 197.527C235.203 197.627 235.454 197.652 235.754 197.577L235.929 196.001Z" fill="#FFCDC7"/>
<path d="M235.454 198.128C235.228 198.128 235.003 198.078 234.803 198.003C234.478 197.853 234.228 197.602 234.103 197.302C234.003 197.077 234.028 196.802 234.128 196.551C234.253 196.251 234.528 196.001 234.853 195.901L235.754 195.576C236.004 195.475 236.304 195.626 236.404 195.876C236.504 196.126 236.379 196.426 236.104 196.526L235.203 196.852C235.078 196.902 235.028 196.977 235.028 197.002C235.053 197.052 235.128 197.102 235.178 197.127C235.303 197.177 235.479 197.202 235.629 197.152C235.904 197.102 236.179 197.252 236.229 197.527C236.279 197.803 236.129 198.053 235.854 198.128C235.729 198.103 235.579 198.128 235.454 198.128Z" fill="#FF9284"/>
<path d="M236.479 188.744L232.077 190.371L232.302 190.846C232.727 191.772 233.978 192.273 235.128 191.972L236.604 191.447L236.479 188.744Z" fill="#FFCDC7"/>
<path d="M234.478 192.573C233.353 192.573 232.277 191.997 231.852 191.071L231.627 190.596C231.577 190.471 231.552 190.321 231.627 190.196C231.677 190.071 231.777 189.97 231.927 189.92L236.329 188.294C236.604 188.194 236.879 188.319 236.979 188.594C237.079 188.844 236.954 189.145 236.679 189.245L232.777 190.696C233.102 191.397 234.103 191.772 235.028 191.547L236.454 191.021C236.704 190.921 237.004 191.071 237.104 191.322C237.204 191.572 237.054 191.872 236.804 191.972L235.328 192.498C235.028 192.523 234.753 192.573 234.478 192.573Z" fill="#FF9284"/>
<path d="M195.536 202.181L196.511 206.66L221.748 193.474L227.3 202.257L201.539 222.75C196.136 227.054 188.483 227.029 183.106 222.725L179.604 219.622L190.409 203.958C191.734 201.981 192.785 200.205 192.235 197.878L192.059 197.127L195.536 202.181Z" fill="#384B61"/>
<path d="M172.726 171.654C172.726 171.654 182.98 171.654 180.154 151.411L171.525 142.478C171.525 142.478 159.42 139.4 157.944 157.066C157.944 157.066 154.893 156.215 154.293 159.168C153.693 162.12 156.269 163.397 158.745 163.297L158.445 180.562C158.445 180.562 159.145 188.169 166.373 190.446C169.174 191.347 172.251 191.172 174.952 189.995C177.453 188.92 182.28 186.042 182.055 182.163L173.476 181.788L172.726 171.654Z" fill="#FFCDC7"/>
<path d="M158.445 179.911C158.32 179.811 157.369 179.761 157.219 179.761C151.767 179.861 146.189 179.861 140.862 181.188C137.761 184.215 134.434 186.667 134.434 191.021L146.965 207.436C146.965 207.436 139.486 215.193 149.466 211.29L150.941 238.214C164.622 238.214 173.526 238.139 184.831 238.064L193.71 212.541C194.836 209.213 194.961 205.635 194.11 202.231L195.536 202.181C194.561 199.629 193.56 197.102 192.685 194.525C191.334 190.521 188.983 186.317 186.232 183.139C185.457 182.264 184.606 181.413 183.556 180.912C182.03 180.162 180.204 180.462 178.654 181.037C177.528 181.463 177.753 182.989 177.553 183.965C177.303 185.316 176.603 186.392 175.352 187.068C174.027 187.768 172.451 187.869 170.95 187.844C168.249 187.794 165.523 187.318 163.122 186.092C160.721 184.866 159.47 182.839 158.62 180.287C158.595 180.137 158.545 180.012 158.445 179.911Z" fill="#384B61"/>
<path d="M157.969 157.091C157.969 157.091 167.399 156.991 171.65 147.582C171.65 147.582 173.726 151.936 180.329 152.587C181.28 152.687 179.579 142.253 179.154 141.527C174.402 133.044 153.718 136.447 153.392 146.882L154.318 159.218C154.293 159.193 154.793 156.39 157.969 157.091Z" fill="#FF6652"/>
<path d="M188.458 228.28C188.383 228.28 188.308 228.28 188.258 228.255C187.858 228.13 187.633 227.729 187.758 227.329C187.808 227.154 193.035 209.238 193.935 206.335C194.31 205.134 193.16 203.207 192.735 202.632L181.455 186.242C181.23 185.892 181.305 185.441 181.655 185.191C182.005 184.966 182.455 185.041 182.705 185.391L193.96 201.756C194.16 202.031 196.036 204.659 195.361 206.786C194.461 209.663 189.233 227.579 189.183 227.754C189.083 228.055 188.783 228.28 188.458 228.28Z" fill="#212B38"/>
<path d="M149.466 212.04C149.041 212.04 148.715 211.715 148.715 211.29V196.376C148.715 195.951 149.041 195.626 149.466 195.626C149.891 195.626 150.216 195.951 150.216 196.376V211.29C150.216 211.715 149.866 212.04 149.466 212.04Z" fill="#194BFF"/>
<path d="M172.726 171.654C172.726 171.654 167.424 172.104 164.147 167.575C164.147 167.575 165.923 174.131 173.051 174.782L172.726 171.654Z" fill="#FF887A"/>
<path d="M161.696 134.746C161.696 140.951 156.669 145.981 150.466 145.981C144.263 145.981 139.236 140.951 139.236 134.746C139.236 128.54 144.263 123.511 150.466 123.511C156.694 123.511 161.696 128.54 161.696 134.746Z" fill="#FF6652"/>
<path d="M198.362 224.577L200.788 223.776L206.691 223.325L209.017 225.002C209.317 225.227 209.667 225.327 210.017 225.327L214.144 225.377C214.544 225.452 214.895 225.177 214.92 224.852C214.92 224.577 214.694 224.301 214.369 224.251C213.969 224.176 213.569 224.101 213.169 224.026L216.97 223.426C217.145 223.4 217.296 223.25 217.321 223.075C217.346 222.9 217.271 222.75 217.12 222.65C217.646 222.55 218.171 222.45 218.696 222.35C218.946 222.274 219.121 221.999 219.096 221.749C219.071 221.499 218.896 221.299 218.671 221.224C216.945 221.123 215.22 220.998 213.494 220.898L211.493 219.722L214.494 220.173L218.921 220.198C219.096 220.173 219.246 220.072 219.296 219.897C219.371 219.697 219.271 219.472 219.071 219.347C215.895 218.346 212.694 217.345 209.517 216.369L206.216 215.493L206.316 214.968L208.367 214.142C209.042 213.867 209.617 213.442 210.092 212.891C210.643 212.24 210.593 211.265 209.992 210.664L207.516 212.291C207.516 212.291 204.24 213.542 204.115 213.567C203.99 213.592 199.013 215.593 199.013 215.593L195.586 216.244L198.362 224.577Z" fill="#FFCDC7"/>
<path d="M212.694 223.025C212.669 223.025 212.644 223.025 212.619 223L208.992 221.699C208.867 221.649 208.792 221.499 208.842 221.374C208.892 221.249 209.042 221.173 209.167 221.224L212.744 222.5L217.12 222.375C217.271 222.4 217.371 222.475 217.371 222.625C217.371 222.775 217.271 222.875 217.12 222.875L212.694 223.025Z" fill="#FF887A"/>
<path d="M212.894 224.226L210.993 224.126C210.968 224.126 210.943 224.126 210.918 224.101L208.292 223.15C208.167 223.1 208.092 222.95 208.142 222.825C208.192 222.7 208.317 222.625 208.467 222.675L211.068 223.601L212.919 223.701C213.069 223.701 213.169 223.826 213.144 223.976C213.144 224.126 213.019 224.226 212.894 224.226Z" fill="#FF887A"/>
<path d="M198.887 225.402L195.236 214.943L157.644 220.823L161.646 236.988L198.887 225.402Z" fill="#384B61"/>
<path d="M151.242 205.61C150.066 205.459 149.041 205.134 147.865 204.909C144.013 204.133 143.188 204.458 139.987 206.811L154.868 232.308C156.994 235.937 161.546 237.313 165.298 235.436L172.801 231.733L161.096 203.833C157.644 205.459 154.793 206.085 151.242 205.61Z" fill="#384B61"/>
<path d="M142.062 210.364L137.085 202.282C135.059 199.004 133.909 195.2 134.109 191.372C134.359 186.918 136.185 182.689 140.862 181.213C146.94 179.261 153.492 182.289 155.944 188.194L164.297 210.389H142.062V210.364Z" fill="#384B61"/>
<path d="M167.249 219.522C166.948 219.522 166.648 219.322 166.548 219.022L163.147 209.388L155.969 190.321C155.819 189.945 156.019 189.495 156.419 189.345C156.819 189.195 157.244 189.395 157.394 189.795L164.572 208.887L167.999 218.546C168.149 218.946 167.924 219.372 167.549 219.497C167.424 219.522 167.324 219.522 167.249 219.522Z" fill="#212B38"/>
<path d="M167.724 220.373C167.374 220.373 167.048 220.123 166.973 219.747C166.898 219.347 167.174 218.946 167.599 218.871L195.111 214.192C195.536 214.142 195.911 214.392 195.986 214.818C196.061 215.218 195.786 215.618 195.361 215.694L167.849 220.373C167.799 220.348 167.749 220.373 167.724 220.373Z" fill="#212B38"/>
<path d="M164.072 234.761C159.845 234.761 155.819 232.584 153.543 228.88L150.791 224.376C150.566 224.026 150.691 223.551 151.041 223.35C151.392 223.125 151.867 223.25 152.067 223.601L154.818 228.105C157.219 232.008 161.821 233.985 166.298 233.034L186.182 228.83C186.582 228.755 186.982 229.005 187.082 229.406C187.157 229.806 186.907 230.207 186.507 230.307L166.623 234.51C165.748 234.661 164.898 234.761 164.072 234.761Z" fill="#212B38"/>
<path d="M227.325 264.212L188.783 247.497H149.866C149.866 247.497 135.159 269.992 149.891 280.677H169.249C169.249 280.752 169.249 280.827 169.249 280.902H210.643L179.629 342.983L209.892 360.348L239.48 297.342C242.507 291.286 242.807 284.53 240.781 278.525C238.555 272.069 233.528 266.99 227.325 264.212Z" fill="#FF6652"/>
<path d="M288.277 248.323H97.0927C94.3165 248.323 92.0655 246.071 92.0655 243.293V242.943C92.0655 240.166 94.3165 237.914 97.0927 237.914H288.277C291.053 237.914 293.304 240.166 293.304 242.943V243.293C293.304 246.071 291.053 248.323 288.277 248.323Z" fill="#FDA74C"/>
<path d="M287.051 388.874C286.451 388.874 285.926 388.449 285.826 387.823L262.365 249.224C262.24 248.548 262.716 247.897 263.391 247.772C264.066 247.647 264.716 248.123 264.841 248.798L288.302 387.398C288.427 388.073 287.952 388.724 287.276 388.849C287.201 388.874 287.126 388.874 287.051 388.874Z" fill="#426BFF"/>
<path d="M95.567 388.874C95.492 388.874 95.417 388.874 95.3669 388.849C94.6916 388.724 94.2164 388.098 94.3415 387.398L117.802 248.798C117.927 248.123 118.577 247.672 119.252 247.772C119.928 247.897 120.403 248.523 120.278 249.224L96.7926 387.848C96.6925 388.449 96.1423 388.874 95.567 388.874Z" fill="#426BFF"/>
<path d="M186.857 237.914H209.842V233.535H191.259C188.808 233.535 186.857 235.486 186.857 237.914Z" fill="#2D57F0"/>
<path d="M207.066 237.914H273.345L283.875 204.684C284.825 201.731 282.599 198.703 279.498 198.703H222.848C220.847 198.703 219.071 200.005 218.471 201.906L207.066 237.914Z" fill="#2D57F0"/>
<path d="M252.811 219.997C251.786 221.774 249.635 222.475 248.034 221.574C246.433 220.648 245.983 218.446 247.009 216.669C248.034 214.893 250.185 214.192 251.786 215.093C253.386 215.994 253.837 218.196 252.811 219.997Z" fill="#7895FF"/>
<path d="M694.455 390H29.2629C28.5626 390 28.0123 389.45 28.0123 388.749C28.0123 388.048 28.5626 387.498 29.2629 387.498H694.455C695.156 387.498 695.706 388.048 695.706 388.749C695.706 389.45 695.156 390 694.455 390Z" fill="#C9D5FF"/>
</svg>
