<svg width="36" height="36" viewBox="0 0 36 36" fill="none" xmlns="http://www.w3.org/2000/svg">
<path d="M24 33.0006V27.1956C24.0563 26.4804 23.9596 25.7613 23.7165 25.0863C23.4734 24.4113 23.0894 23.7958 22.59 23.2806C27.3 22.7556 32.25 20.9706 32.25 12.7806C32.2496 10.6864 31.444 8.67244 30 7.15564C30.6838 5.3234 30.6354 3.29816 29.865 1.50064C29.865 1.50064 28.095 0.975639 24 3.72064C20.562 2.78887 16.938 2.78887 13.5 3.72064C9.405 0.975639 7.635 1.50064 7.635 1.50064C6.86456 3.29816 6.81622 5.3234 7.5 7.15564C6.04519 8.68369 5.23878 10.7158 5.25 12.8256C5.25 20.9556 10.2 22.7406 14.91 23.3256C14.4165 23.8356 14.0359 24.4437 13.793 25.1105C13.55 25.7773 13.4502 26.4877 13.5 27.1956V33.0006M13.5 28.5006C6 30.7506 6 24.7506 3 24.0006L13.5 28.5006Z" stroke="white" stroke-width="2" stroke-linecap="round" stroke-linejoin="round"/>
</svg>
