<svg width="36" height="36" viewBox="0 0 36 36" fill="none" xmlns="http://www.w3.org/2000/svg">
<path d="M24 12C26.3869 12 28.6761 12.9482 30.364 14.636C32.0518 16.3239 33 18.6131 33 21V31.5H27V21C27 20.2044 26.6839 19.4413 26.1213 18.8787C25.5587 18.3161 24.7956 18 24 18C23.2044 18 22.4413 18.3161 21.8787 18.8787C21.3161 19.4413 21 20.2044 21 21V31.5H15V21C15 18.6131 15.9482 16.3239 17.636 14.636C19.3239 12.9482 21.6131 12 24 12V12Z" stroke="white" stroke-width="2" stroke-linecap="round" stroke-linejoin="round"/>
<path d="M9 13.5H3V31.5H9V13.5Z" stroke="white" stroke-width="2" stroke-linecap="round" stroke-linejoin="round"/>
<path d="M6 9C7.65685 9 9 7.65685 9 6C9 4.34315 7.65685 3 6 3C4.34315 3 3 4.34315 3 6C3 7.65685 4.34315 9 6 9Z" stroke="white" stroke-width="2" stroke-linecap="round" stroke-linejoin="round"/>
</svg>
